<svg width="195" height="280" viewBox="0 0 195 280" fill="none" xmlns="http://www.w3.org/2000/svg">
<path d="M195 280H5.50633V242.439L94.9367 147.209C107.215 133.803 116.266 122.105 122.089 112.114C128.038 102.123 131.013 92.6378 131.013 83.6585C131.013 71.3912 127.911 61.7796 121.709 54.8238C115.506 47.7416 106.646 44.2005 95.1266 44.2005C82.7215 44.2005 72.9114 48.5005 65.6962 57.1003C58.6076 65.5736 55.0633 76.766 55.0633 90.6775H0C0 73.8573 3.98734 58.4914 11.962 44.5799C20.0633 30.6685 31.4557 19.7922 46.1392 11.9512C60.8228 3.98374 77.4684 0 96.0759 0C124.557 0 146.646 6.82927 162.342 20.4878C178.165 34.1463 186.076 53.4327 186.076 78.3469C186.076 92.0054 182.532 105.917 175.443 120.081C168.354 134.246 156.203 150.75 138.987 169.594L76.1392 235.799H195V280Z" fill="#C1D4E2"/>
</svg>
