<svg width="189" height="280" viewBox="0 0 189 280" fill="none" xmlns="http://www.w3.org/2000/svg">
<path d="M61.5045 116.043H90.2938C104.003 116.043 114.16 112.611 120.766 105.749C127.371 98.8859 130.674 89.7772 130.674 78.4225C130.674 67.4421 127.371 58.8948 120.766 52.7808C114.285 46.6667 105.312 43.6096 93.8457 43.6096C83.5015 43.6096 74.8398 46.4795 67.8605 52.2193C60.8813 57.8342 57.3917 65.1961 57.3917 74.3048H3.36499C3.36499 60.0802 7.16617 47.3529 14.7685 36.123C22.4955 24.7683 33.2136 15.9091 46.9228 9.54545C60.7567 3.18182 75.9614 0 92.5371 0C121.326 0 143.884 6.92513 160.211 20.7754C176.537 34.5009 184.7 53.467 184.7 77.6738C184.7 90.1515 180.899 101.631 173.297 112.112C165.694 122.594 155.724 130.642 143.386 136.257C158.715 141.747 170.119 149.982 177.596 160.963C185.199 171.943 189 184.92 189 199.893C189 224.1 180.151 243.503 162.454 258.102C144.881 272.701 121.576 280 92.5371 280C65.368 280 43.1217 272.825 25.7982 258.476C8.59941 244.127 0 225.16 0 201.578H54.0267C54.0267 211.809 57.8279 220.169 65.4303 226.658C73.1573 233.146 82.6291 236.39 93.8457 236.39C106.682 236.39 116.715 233.021 123.944 226.283C131.297 219.421 134.973 210.374 134.973 199.144C134.973 171.943 120.018 158.342 90.1068 158.342H61.5045V116.043Z" fill="#C1D4E2"/>
</svg>
