<svg width="100" height="100" viewBox="0 0 100 100" fill="none" xmlns="http://www.w3.org/2000/svg">
<g clip-path="url(#clip0)">
<path d="M31.2562 41.2575C31.2562 39.2532 30.6993 37.3348 29.6589 35.6784C33.8299 33.5372 36.6905 29.1908 36.6905 24.1887C36.6905 23.1087 35.8151 22.2333 34.7351 22.2333C33.6551 22.2333 32.7797 23.1087 32.7797 24.1887C32.7797 29.1483 28.7445 33.1835 23.7849 33.1835C22.7049 33.1835 21.8295 34.0589 21.8295 35.1389C21.8295 36.2189 22.7049 37.0943 23.7849 37.0943C24.4511 37.0943 25.1055 37.0435 25.7448 36.9457C29.4289 41.1402 26.3294 47.9078 20.7384 47.8642C19.6586 47.8642 18.783 48.7397 18.783 49.8196C18.783 50.8996 19.6584 51.775 20.7384 51.775C26.5381 51.775 31.2562 47.057 31.2562 41.2575Z" fill="#254F91"/>
<path d="M39.5474 56.1502C35.0997 57.342 31.34 60.0979 28.8756 63.9518C27.3129 63.2784 25.5917 62.9053 23.7849 62.9053C21.1983 62.9947 21.195 66.7258 23.7849 66.8161C28.7446 66.8161 32.7798 70.8512 32.7798 75.8109C32.7798 76.8909 33.6552 77.7663 34.7352 77.7663C35.8151 77.7663 36.6906 76.8909 36.6906 75.8109C36.6906 71.9027 34.9444 68.3947 32.1912 66.0261C34.1294 63.0146 37.0762 60.8609 40.5595 59.9276C43.0358 59.1726 42.0708 55.5657 39.5474 56.1502Z" fill="#254F91"/>
<path d="M81.5575 51.9553C83.9188 59.4058 94.793 57.9072 94.9606 49.9997C94.7922 42.0911 83.9175 40.5952 81.5575 48.0445H51.9418V36.3121H75.6264C76.3251 36.3121 76.9705 35.9394 77.3198 35.3344L80.1543 30.425C84.366 31.4813 88.6429 28.1208 88.5844 23.7667C88.5844 19.993 85.5143 16.923 81.7405 16.923C75.7564 16.9058 72.6708 24.1936 76.7695 28.4661L74.4973 32.4015H51.9418V20.6691H62.1748C62.8735 20.6691 63.519 20.2964 63.8682 19.6914L65.9464 16.0918C70.1581 17.1481 74.435 13.7875 74.3765 9.43363C74.3765 5.6599 71.3063 2.58974 67.5326 2.58974C61.5487 2.57253 58.4629 9.8603 62.5616 14.1326L61.0458 16.7582H51.9418V9.71872C51.6329 -2.14076 35.0319 -3.6079 32.5615 7.87869C26.0625 8.72753 20.9816 14.153 20.6705 20.8041C12.5193 21.8598 7.04259 30.4068 9.49133 38.2699C3.55553 44.6286 3.55572 55.3718 9.49133 61.7305C7.04161 69.5944 12.5214 78.1418 20.6705 79.1962C20.9816 85.8472 26.0625 91.2727 32.5615 92.1215C35.0368 103.614 51.6343 102.136 51.9418 90.2815V83.2421H61.0458L62.5616 85.8676C58.4631 90.1399 61.5491 97.4285 67.5328 97.4105C71.3063 97.4105 74.3767 94.3403 74.3767 90.5666C74.435 86.2133 70.1583 82.8512 65.9466 83.9085L63.8684 80.3088C63.5192 79.7038 62.8737 79.3311 62.175 79.3311H51.942V67.5987H74.4975L76.7697 71.5341C72.6712 75.8065 75.757 83.095 81.7407 83.077C85.5143 83.077 88.5846 80.0071 88.5846 76.2333C88.6429 71.88 84.3662 68.5179 80.1545 69.5752L77.32 64.6658C76.9707 64.0608 76.3252 63.6881 75.6266 63.6881H51.9418V51.9557H81.5575V51.9553ZM88.1167 47.0668C89.734 47.0668 91.0498 48.3826 91.0498 49.9999C90.9023 53.8857 85.3306 53.8847 85.1836 49.9999C85.1836 48.3826 86.4994 47.0668 88.1167 47.0668ZM81.7403 20.8338C83.3576 20.8338 84.6734 22.1496 84.6734 23.7669C84.526 27.6527 78.9541 27.6517 78.8072 23.7669C78.8072 22.1496 80.123 20.8338 81.7403 20.8338ZM67.5326 6.50033C69.1499 6.50033 70.4657 7.81612 70.4657 9.43343C70.3183 13.3192 64.7464 13.318 64.5995 9.43343C64.5995 7.81612 65.9153 6.50033 67.5326 6.50033ZM70.4657 90.5662C70.4657 92.1835 69.1499 93.4993 67.5326 93.4993C63.6468 93.3519 63.6478 87.7802 67.5326 87.6331C69.1499 87.6333 70.4657 88.9491 70.4657 90.5662ZM84.6734 76.2331C84.6734 77.8504 83.3576 79.1662 81.7403 79.1662C77.8546 79.0188 77.8555 73.4471 81.7403 73.3C83.3576 73.3 84.6734 74.6158 84.6734 76.2331ZM48.031 90.2811C47.7422 98.0341 36.601 98.0689 36.2987 90.2811C36.2987 89.2011 35.4232 88.3257 34.3433 88.3257C28.9522 88.3257 24.5663 83.9398 24.5663 78.5487C24.5663 78.2228 24.5827 77.8929 24.615 77.5679C24.7516 76.4463 23.7849 75.389 22.658 75.4191C17.3935 75.5579 12.7209 70.9129 12.8341 65.6427C12.8341 64.3746 13.0734 63.1406 13.5458 61.9746C13.845 61.236 13.6661 60.3897 13.0934 59.8354C7.57054 54.7169 7.56937 45.2819 13.0936 40.1637C13.6661 39.6093 13.845 38.763 13.5458 38.0245C13.0736 36.8589 12.8341 35.6248 12.8341 34.3563C12.7244 29.1098 17.3536 24.47 22.6013 24.5799C23.1781 24.5997 23.7298 24.366 24.115 23.9413C24.7964 23.2735 24.5815 22.3017 24.5663 21.4507C24.5663 16.0597 28.9522 11.6735 34.3433 11.6735C35.4232 11.6735 36.2987 10.7981 36.2987 9.71814C36.5781 1.97398 47.7305 1.9249 48.031 9.71814V90.2811Z" fill="#254F91"/>
</g>
<defs>
<clipPath id="clip0">
<rect width="100" height="100" fill="white"/>
</clipPath>
</defs>
</svg>
