<svg width="100" height="100" viewBox="0 0 100 100" fill="none" xmlns="http://www.w3.org/2000/svg">
<g clip-path="url(#clip0)">
<path d="M81.3477 47.3656H89.6391C89.9707 48.6011 90.7401 49.6739 91.8039 50.3842C92.8678 51.0945 94.1535 51.3939 95.4217 51.2266C96.6899 51.0594 97.8541 50.4369 98.6974 49.475C99.5407 48.5132 100.006 47.2776 100.006 45.9985C100.006 44.7193 99.5407 43.4837 98.6974 42.5219C97.8541 41.5601 96.6899 40.9375 95.4217 40.7703C94.1535 40.603 92.8678 40.9024 91.8039 41.6128C90.7401 42.3231 89.9707 43.3958 89.6391 44.6313H81.3477V38.0094H87.5C87.7174 38.0094 87.9316 37.9575 88.1249 37.8582C88.3182 37.7589 88.4851 37.615 88.6117 37.4383L92.8774 31.4797C94.0742 31.9267 95.3926 31.9235 96.5872 31.4706C97.7818 31.0178 98.7711 30.1462 99.3709 29.0182C99.9706 27.8902 100.14 26.5827 99.8474 25.3391C99.5548 24.0955 98.8202 23.0007 97.7804 22.2584C96.7406 21.5162 95.4665 21.1771 94.1953 21.3045C92.9242 21.4318 91.7426 22.0168 90.8706 22.9505C89.9987 23.8842 89.4958 25.103 89.4557 26.3799C89.4155 27.6568 89.8408 28.9048 90.6524 29.8914L86.7969 35.275H81.3469V30.2055C81.3469 29.8429 81.2029 29.4951 80.9465 29.2387C80.6901 28.9823 80.3423 28.8383 79.9797 28.8383C77.8651 28.8379 75.8046 28.1697 74.0922 26.9289L81.6352 17.6321C82.8076 18.158 84.1313 18.2396 85.3595 17.8618C86.5877 17.4839 87.6366 16.6724 88.3107 15.5784C88.9848 14.4844 89.238 13.1826 89.0233 11.9156C88.8086 10.6487 88.1404 9.50309 87.1435 8.69233C86.1466 7.88156 84.8888 7.46096 83.6047 7.50894C82.3206 7.55692 81.0978 8.0702 80.1641 8.95311C79.2305 9.83601 78.6497 11.0283 78.5301 12.3077C78.4105 13.5871 78.7602 14.8664 79.5141 15.9071L72.1008 25.0477C70.6613 23.2605 69.8767 21.0346 69.8774 18.7399C69.8772 18.3773 69.733 18.0297 69.4767 17.7733C69.2203 17.517 68.8727 17.3729 68.5102 17.3727H31.4891C31.1265 17.3729 30.7789 17.517 30.5226 17.7733C30.2662 18.0297 30.1221 18.3773 30.1219 18.7399C30.1225 21.0346 29.3379 23.2605 27.8985 25.0477L20.4852 15.9063C21.2359 14.8683 21.5837 13.5927 21.4638 12.3173C21.3438 11.0418 20.7643 9.85352 19.8332 8.97367C18.9021 8.09383 17.6829 7.58247 16.4027 7.53488C15.1225 7.48729 13.8687 7.9067 12.8748 8.71498C11.8809 9.52326 11.2148 10.6653 11.0005 11.9283C10.7861 13.1913 11.0383 14.4891 11.7099 15.58C12.3815 16.6709 13.4268 17.4805 14.651 17.8579C15.8752 18.2352 17.1948 18.1547 18.3641 17.6313L25.907 26.9281C24.1947 28.1689 22.1342 28.8371 20.0195 28.8375C19.6569 28.8375 19.3092 28.9816 19.0528 29.238C18.7964 29.4944 18.6524 29.8421 18.6524 30.2047V35.2742H13.2031L9.34845 29.8906C10.172 28.895 10.6052 27.6338 10.5673 26.3423C10.5293 25.0508 10.0228 23.8172 9.14229 22.8717C8.26173 21.9261 7.06725 21.3332 5.7817 21.2036C4.49615 21.0739 3.20734 21.4164 2.15571 22.1671C1.10409 22.9178 0.36148 24.0254 0.0664326 25.2833C-0.228615 26.5412 -0.0559477 27.8636 0.55222 29.0035C1.16039 30.1435 2.16252 31.0233 3.37164 31.4788C4.58077 31.9343 5.9143 31.9343 7.12346 31.4789L11.3891 37.4375C11.5155 37.6142 11.6823 37.7583 11.8754 37.8577C12.0686 37.9572 12.2827 38.0092 12.5 38.0094H18.6524V44.6313H10.361C10.0293 43.3958 9.25993 42.3231 8.19609 41.6128C7.13226 40.9024 5.84651 40.603 4.57832 40.7703C3.31012 40.9375 2.14596 41.5601 1.30265 42.5219C0.459344 43.4837 -0.0056093 44.7193 -0.0056093 45.9985C-0.0056093 47.2776 0.459344 48.5132 1.30265 49.475C2.14596 50.4369 3.31012 51.0594 4.57832 51.2266C5.84651 51.3939 7.13226 51.0945 8.19609 50.3842C9.25993 49.6739 10.0293 48.6011 10.361 47.3656H18.6524V55.0727C18.6524 55.4156 18.6719 55.7555 18.6836 56.0969H11.9141C11.6606 56.097 11.412 56.1675 11.1963 56.3007C10.9805 56.4338 10.806 56.6243 10.6922 56.8508L6.33595 65.5313C5.07596 65.2657 3.76237 65.4674 2.64012 66.0988C1.51788 66.7302 0.663571 67.7483 0.2365 68.9631C-0.190571 70.1779 -0.161256 71.5065 0.318979 72.7013C0.799213 73.8961 1.69759 74.8754 2.84659 75.4567C3.9956 76.0381 5.3168 76.1816 6.56386 75.8607C7.81092 75.5398 8.8987 74.7763 9.62439 73.7126C10.3501 72.6489 10.6641 71.3576 10.508 70.0794C10.3519 68.8012 9.7362 67.6234 8.7758 66.7656L12.7578 58.8282H18.9063C19.7254 65.0381 22.561 70.8073 26.9774 75.2492L18.1133 82.8336C17.0526 82.1025 15.7622 81.782 14.4826 81.9321C13.2031 82.0822 12.0218 82.6925 11.1591 83.6492C10.2963 84.606 9.81101 85.8438 9.79358 87.132C9.77616 88.4202 10.2278 89.6707 11.0644 90.6504C11.901 91.6302 13.0653 92.2722 14.3403 92.4568C15.6153 92.6414 16.9139 92.356 17.994 91.6538C19.0741 90.9516 19.8619 89.8806 20.2106 88.6404C20.5593 87.4002 20.445 86.0755 19.8891 84.9133L29.0195 77.1008C29.7008 77.6656 30.4024 78.211 31.1414 78.7149L49.2297 91.0586C49.4573 91.2121 49.7255 91.2942 50 91.2942C50.2745 91.2942 50.5428 91.2121 50.7703 91.0586L68.8586 78.7149C69.5977 78.211 70.2992 77.6656 70.9805 77.1008L80.111 84.9133C79.5612 86.0679 79.4499 87.3829 79.7977 88.6134C80.1454 89.8439 80.9286 90.9061 82.0014 91.6022C83.0741 92.2982 84.3632 92.5806 85.6287 92.3967C86.8941 92.2129 88.0497 91.5754 88.88 90.603C89.7104 89.6305 90.159 88.3894 90.1423 87.1107C90.1255 85.8321 89.6447 84.6031 88.7892 83.6527C87.9337 82.7023 86.7619 82.0952 85.4921 81.9445C84.2222 81.7938 82.9409 82.1098 81.8867 82.8336L73.0227 75.2492C77.439 70.8073 80.2746 65.0381 81.0938 58.8282H87.2414L91.2258 66.7625C90.2852 67.6097 89.6843 68.7697 89.5347 70.0267C89.3852 71.2837 89.6972 72.5523 90.4128 73.5965C91.1284 74.6407 92.1989 75.3895 93.4251 75.7037C94.6514 76.0179 95.9501 75.8761 97.0796 75.3046C98.2092 74.7332 99.0928 73.7709 99.5661 72.5969C100.039 71.4228 100.07 70.1168 99.653 68.9217C99.2356 67.7266 98.3985 66.7237 97.2972 66.0995C96.1959 65.4753 94.9054 65.2722 93.6656 65.5281L89.3094 56.8477C89.1956 56.6211 89.0211 56.4307 88.8053 56.2975C88.5896 56.1644 88.341 56.0939 88.0875 56.0938H81.318C81.3297 55.7524 81.3492 55.4125 81.3492 55.0695L81.3477 47.3656ZM94.7266 43.4594C95.2288 43.4594 95.7197 43.6083 96.1372 43.8873C96.5548 44.1663 96.8802 44.5628 97.0724 45.0268C97.2645 45.4908 97.3148 46.0013 97.2169 46.4938C97.1189 46.9863 96.8771 47.4388 96.522 47.7938C96.1669 48.1489 95.7145 48.3908 95.2219 48.4887C94.7294 48.5867 94.2189 48.5364 93.7549 48.3442C93.291 48.1521 92.8944 47.8266 92.6154 47.4091C92.3364 46.9915 92.1875 46.5006 92.1875 45.9985C92.1883 45.3253 92.4561 44.68 92.9321 44.204C93.4081 43.728 94.0534 43.4602 94.7266 43.4594ZM94.7266 24.0063C95.2288 24.0063 95.7197 24.1552 96.1372 24.4342C96.5548 24.7132 96.8802 25.1097 97.0724 25.5737C97.2645 26.0376 97.3148 26.5482 97.2169 27.0407C97.1189 27.5332 96.8771 27.9856 96.522 28.3407C96.1669 28.6958 95.7145 28.9376 95.2219 29.0356C94.7294 29.1336 94.2189 29.0833 93.7549 28.8911C93.291 28.6989 92.8944 28.3735 92.6154 27.956C92.3364 27.5384 92.1875 27.0475 92.1875 26.5453C92.189 25.8726 92.457 25.2279 92.9329 24.7524C93.4089 24.2769 94.0538 24.0094 94.7266 24.0086V24.0063ZM2.73439 26.5477C2.73439 26.0455 2.88331 25.5546 3.1623 25.137C3.4413 24.7195 3.83785 24.3941 4.3018 24.2019C4.76575 24.0097 5.27627 23.9594 5.7688 24.0574C6.26133 24.1554 6.71375 24.3972 7.06884 24.7523C7.42394 25.1074 7.66576 25.5598 7.76373 26.0523C7.8617 26.5449 7.81142 27.0554 7.61924 27.5193C7.42707 27.9833 7.10163 28.3798 6.68408 28.6588C6.26654 28.9378 5.77563 29.0867 5.27346 29.0867C4.60031 29.0859 3.95497 28.8181 3.47898 28.3422C3.00299 27.8662 2.73522 27.2208 2.73439 26.5477ZM5.27346 48.5375C4.77128 48.5375 4.28037 48.3886 3.86283 48.1096C3.44528 47.8306 3.11984 47.4341 2.92767 46.9701C2.73549 46.5062 2.68521 45.9956 2.78318 45.5031C2.88115 45.0106 3.12297 44.5582 3.47807 44.2031C3.83316 43.848 4.28558 43.6062 4.77811 43.5082C5.27064 43.4102 5.78116 43.4605 6.24511 43.6527C6.70906 43.8448 7.10561 44.1703 7.38461 44.5878C7.6636 45.0054 7.81252 45.4963 7.81252 45.9985C7.81169 46.6716 7.54392 47.3169 7.06793 47.7929C6.59194 48.2689 5.9466 48.5367 5.27346 48.5375ZM5.27346 73.236C4.77128 73.236 4.28037 73.087 3.86283 72.8081C3.44528 72.5291 3.11984 72.1325 2.92767 71.6685C2.73549 71.2046 2.68521 70.6941 2.78318 70.2015C2.88115 69.709 3.12297 69.2566 3.47807 68.9015C3.83316 68.5464 4.28558 68.3046 4.77811 68.2066C5.27064 68.1087 5.78116 68.1589 6.24511 68.3511C6.70906 68.5433 7.10561 68.8687 7.38461 69.2863C7.6636 69.7038 7.81252 70.1947 7.81252 70.6969C7.81169 71.37 7.54392 72.0154 7.06793 72.4914C6.59194 72.9674 5.9466 73.2351 5.27346 73.236ZM97.2656 70.6969C97.2656 71.1991 97.1167 71.69 96.8377 72.1075C96.5587 72.5251 96.1622 72.8505 95.6982 73.0427C95.2343 73.2349 94.7238 73.2851 94.2312 73.1872C93.7387 73.0892 93.2863 72.8474 92.9312 72.4923C92.5761 72.1372 92.3343 71.6848 92.2363 71.1922C92.1383 70.6997 92.1886 70.1892 92.3808 69.7252C92.573 69.2613 92.8984 68.8647 93.316 68.5857C93.7335 68.3068 94.2244 68.1578 94.7266 68.1578C95.3997 68.1587 96.0451 68.4264 96.5211 68.9024C96.997 69.3784 97.2648 70.0237 97.2656 70.6969ZM83.7813 10.2797C84.2834 10.2797 84.7743 10.4286 85.1919 10.7076C85.6094 10.9866 85.9349 11.3832 86.1271 11.8471C86.3192 12.3111 86.3695 12.8216 86.2715 13.3141C86.1736 13.8066 85.9317 14.2591 85.5767 14.6142C85.2216 14.9693 84.7691 15.2111 84.2766 15.309C83.7841 15.407 83.2736 15.3567 82.8096 15.1646C82.3457 14.9724 81.9491 14.6469 81.6701 14.2294C81.3911 13.8119 81.2422 13.321 81.2422 12.8188C81.243 12.1456 81.5108 11.5003 81.9868 11.0243C82.4628 10.5483 83.1081 10.2805 83.7813 10.2797ZM13.6797 12.8188C13.6797 12.3166 13.8286 11.8257 14.1076 11.4081C14.3866 10.9906 14.7832 10.6652 15.2471 10.473C15.7111 10.2808 16.2216 10.2305 16.7141 10.3285C17.2066 10.4265 17.6591 10.6683 18.0142 11.0234C18.3693 11.3785 18.6111 11.8309 18.709 12.3234C18.807 12.816 18.7567 13.3265 18.5646 13.7904C18.3724 14.2544 18.0469 14.6509 17.6294 14.9299C17.2118 15.2089 16.7209 15.3578 16.2188 15.3578C15.5456 15.357 14.9003 15.0892 14.4243 14.6132C13.9483 14.1373 13.6805 13.4919 13.6797 12.8188ZM15.1352 89.7203C14.633 89.7203 14.1421 89.5714 13.7245 89.2924C13.307 89.0134 12.9816 88.6169 12.7894 88.1529C12.5972 87.689 12.5469 87.1785 12.6449 86.6859C12.7429 86.1934 12.9847 85.741 13.3398 85.3859C13.6949 85.0308 14.1473 84.789 14.6398 84.691C15.1324 84.593 15.6429 84.6433 16.1068 84.8355C16.5708 85.0277 16.9673 85.3531 17.2463 85.7706C17.5253 86.1882 17.6742 86.6791 17.6742 87.1813C17.6734 87.8544 17.4056 88.4998 16.9296 88.9758C16.4537 89.4517 15.8083 89.7195 15.1352 89.7203ZM67.3172 76.4571L50 88.2727L32.6828 76.4571C29.2004 74.0825 26.3509 70.893 24.3822 67.1661C22.4135 63.4391 21.3852 59.2876 21.3867 55.0727V31.5C24.2926 31.1617 26.9992 29.8521 29.0678 27.7834C31.1365 25.7148 32.4461 23.0083 32.7844 20.1024H67.2156C67.554 23.0083 68.8636 25.7148 70.9322 27.7834C73.0009 29.8521 75.7074 31.1617 78.6133 31.5V55.0727C78.6149 59.2876 77.5866 63.4391 75.6178 67.1661C73.6491 70.893 70.7996 74.0825 67.3172 76.4571ZM87.4039 87.1813C87.4039 87.6835 87.255 88.1744 86.976 88.5919C86.697 89.0095 86.3005 89.3349 85.8365 89.5271C85.3726 89.7192 84.862 89.7695 84.3695 89.6715C83.877 89.5736 83.4246 89.3318 83.0695 88.9767C82.7144 88.6216 82.4726 88.1692 82.3746 87.6766C82.2766 87.1841 82.3269 86.6736 82.5191 86.2096C82.7113 85.7457 83.0367 85.3491 83.4542 85.0701C83.8718 84.7911 84.3627 84.6422 84.8649 84.6422C85.538 84.643 86.1833 84.9108 86.6593 85.3868C87.1353 85.8628 87.4031 86.5081 87.4039 87.1813Z" fill="#254F91"/>
<path d="M73.5351 36.3634C73.5352 36.0988 73.4585 35.84 73.3145 35.6181C73.1704 35.3962 72.9651 35.2209 72.7234 35.1134C68.658 33.3078 65.4075 30.0575 63.6016 25.9923C63.4941 25.7505 63.3188 25.5452 63.0969 25.4011C62.875 25.257 62.6161 25.1804 62.3516 25.1805H37.6477C37.3831 25.1804 37.1242 25.257 36.9023 25.4011C36.6804 25.5452 36.5051 25.7505 36.3977 25.9923C34.5921 30.0577 31.3418 33.3082 27.2766 35.1141C27.0349 35.2217 26.8296 35.397 26.6855 35.6189C26.5415 35.8407 26.4648 36.0996 26.4648 36.3641V55.0727C26.4632 58.4616 27.2897 61.7996 28.8726 64.7961C30.4555 67.7926 32.7467 70.3569 35.5469 72.2657L49.2312 81.6032C49.4588 81.7567 49.7271 81.8388 50.0016 81.8388C50.2761 81.8388 50.5443 81.7567 50.7719 81.6032L64.4531 72.2657C67.2522 70.3572 69.5427 67.7937 71.1252 64.7983C72.7078 61.8028 73.5345 58.466 73.5336 55.0782L73.5351 36.3634ZM70.8008 55.0727C70.8014 58.0151 70.0832 60.9132 68.7085 63.5147C67.3339 66.1163 65.3444 68.3426 62.9133 70.0001L50 78.8149L37.0859 70.0001C34.655 68.3424 32.6658 66.116 31.2913 63.5145C29.9168 60.913 29.1986 58.015 29.1992 55.0727V37.2305C33.2373 35.2242 36.5089 31.9528 38.5156 27.9149H61.4844C63.4911 31.9528 66.7627 35.2242 70.8008 37.2305V55.0727Z" fill="#254F91"/>
</g>
<defs>
<clipPath id="clip0">
<rect width="100" height="100" fill="white"/>
</clipPath>
</defs>
</svg>
