<svg width="165" height="165" viewBox="0 0 165 165" fill="none" xmlns="http://www.w3.org/2000/svg">
<g clip-path="url(#clip0)">
<path d="M23.7704 92.7527C23.4373 92.8851 23.071 92.9097 22.7232 92.8231C22.3753 92.7366 22.0633 92.5431 21.8311 92.2701C21.5988 91.997 21.458 91.6581 21.4284 91.3008C21.3987 90.9436 21.4818 90.586 21.6659 90.2784L33.873 69.9108C34.1111 69.5296 34.4894 69.2571 34.9264 69.1519C35.3634 69.0468 35.8242 69.1174 36.2097 69.3486C36.5951 69.5799 36.8744 69.9532 36.9873 70.3882C37.1003 70.8233 37.0379 71.2853 36.8136 71.6748L24.6058 92.0409C24.4138 92.364 24.12 92.6144 23.7704 92.7527Z" fill="#F5F5F5"/>
<path d="M158.723 116.632L132.012 127.241C131.589 127.408 131.117 127.401 130.7 127.221C130.282 127.041 129.953 126.702 129.785 126.28C129.617 125.857 129.624 125.385 129.804 124.967C129.985 124.55 130.323 124.221 130.746 124.053L155.863 114.077L129.918 48.7502C129.75 48.3275 129.757 47.8555 129.937 47.4379C130.117 47.0203 130.456 46.6914 130.878 46.5235C131.301 46.3557 131.773 46.3626 132.191 46.5427C132.608 46.7229 132.937 47.0616 133.105 47.4843L159.684 114.405C159.852 114.828 159.845 115.3 159.665 115.718C159.484 116.135 159.146 116.464 158.723 116.632Z" fill="#F5F5F5"/>
<path d="M104.966 137.982L100.344 139.818C99.9217 139.986 99.4497 139.979 99.0321 139.798C98.6145 139.618 98.2856 139.28 98.1177 138.857C97.9498 138.434 97.9567 137.962 98.1369 137.545C98.3171 137.127 98.6558 136.798 99.0785 136.63L103.7 134.795C104.123 134.627 104.595 134.634 105.013 134.814C105.43 134.994 105.759 135.333 105.927 135.755C106.095 136.178 106.088 136.65 105.908 137.068C105.728 137.485 105.389 137.814 104.966 137.982Z" fill="#F5F5F5"/>
<path d="M89.1883 144.249L50.349 159.674C49.9263 159.842 49.4543 159.835 49.0367 159.655C48.6191 159.475 48.2902 159.136 48.1223 158.713L21.5437 91.7925C21.3759 91.3698 21.3828 90.8977 21.563 90.4801C21.7431 90.0625 22.0818 89.7336 22.5045 89.5658C22.9272 89.3979 23.3992 89.4048 23.8168 89.585C24.2344 89.7651 24.5633 90.1038 24.7312 90.5265L50.6768 155.854L87.9224 141.061C88.345 140.893 88.8171 140.9 89.2347 141.08C89.6523 141.26 89.9812 141.599 90.1491 142.022C90.3169 142.445 90.31 142.917 90.1299 143.334C89.9497 143.752 89.611 144.081 89.1883 144.249Z" fill="#F5F5F5"/>
<path d="M120.856 131.671L116.122 133.551C115.7 133.719 115.228 133.712 114.81 133.532C114.392 133.352 114.064 133.013 113.896 132.59C113.728 132.168 113.735 131.696 113.915 131.278C114.095 130.86 114.434 130.531 114.856 130.364L119.59 128.484C120.013 128.316 120.485 128.323 120.902 128.503C121.32 128.683 121.649 129.022 121.817 129.444C121.984 129.867 121.977 130.339 121.797 130.757C121.617 131.174 121.278 131.503 120.856 131.671Z" fill="#F5F5F5"/>
<path d="M93.4203 110.165C88.5096 112.123 83.0695 112.308 78.0376 110.686L22.6103 92.7911C22.396 92.7218 22.1974 92.6111 22.0259 92.4651C21.8544 92.3191 21.7133 92.1408 21.6107 91.9403C21.5081 91.7398 21.446 91.5211 21.428 91.2966C21.4099 91.0721 21.4363 90.8462 21.5055 90.6319C21.6453 90.1991 21.9513 89.8395 22.3563 89.6324C22.5568 89.5298 22.7755 89.4677 23 89.4496C23.2245 89.4316 23.4503 89.4579 23.6647 89.5271L79.0884 107.418C83.3624 108.791 87.9809 108.636 92.1532 106.979C96.3254 105.322 99.7917 102.266 101.959 98.3344L130.007 47.292C130.225 46.8933 130.594 46.5979 131.031 46.4708C131.467 46.3438 131.937 46.3954 132.335 46.6143C132.734 46.8333 133.029 47.2016 133.156 47.6384C133.284 48.0751 133.232 48.5444 133.013 48.9431L104.965 99.9909C102.418 104.623 98.3355 108.221 93.4203 110.165Z" fill="#F5F5F5"/>
<path d="M50.3489 159.674C50.0207 159.804 49.6602 159.831 49.3166 159.749C48.973 159.667 48.6631 159.481 48.4292 159.216C48.1952 158.952 48.0487 158.621 48.0097 158.27C47.9707 157.919 48.041 157.565 48.2111 157.255L75.4536 107.706C75.5594 107.504 75.7044 107.325 75.8802 107.179C76.0561 107.034 76.2592 106.925 76.4776 106.859C76.6961 106.793 76.9255 106.772 77.1524 106.795C77.3793 106.819 77.5992 106.888 77.7992 106.998C77.9991 107.108 78.1751 107.257 78.3169 107.436C78.4586 107.614 78.5633 107.82 78.6247 108.039C78.6861 108.259 78.703 108.489 78.6745 108.715C78.6459 108.942 78.5725 109.16 78.4585 109.358L51.2191 158.906C51.0272 159.255 50.7194 159.527 50.3489 159.674Z" fill="#F5F5F5"/>
<path d="M158.723 116.632C158.353 116.778 157.943 116.792 157.564 116.669L103.749 99.3133C103.531 99.2477 103.328 99.1392 103.152 98.9941C102.975 98.849 102.83 98.6702 102.724 98.4682C102.618 98.2662 102.553 98.045 102.534 97.8177C102.514 97.5903 102.54 97.3614 102.61 97.1442C102.68 96.9271 102.793 96.7261 102.942 96.553C103.09 96.38 103.272 96.2383 103.476 96.1364C103.68 96.0345 103.903 95.9744 104.13 95.9595C104.358 95.9447 104.587 95.9754 104.802 96.0499L158.617 113.406C158.953 113.514 159.247 113.724 159.46 114.006C159.672 114.288 159.792 114.629 159.804 114.982C159.816 115.334 159.718 115.682 159.524 115.978C159.331 116.273 159.051 116.501 158.723 116.632Z" fill="#F5F5F5"/>
<path d="M84.3752 36.2457C84.0253 36.3842 83.6396 36.4039 83.2774 36.3016L61.6641 30.2076L50.1246 49.4687C50.0088 49.6619 49.8561 49.8303 49.6752 49.9645C49.4943 50.0987 49.2887 50.1959 49.0702 50.2506C48.8518 50.3054 48.6246 50.3165 48.4019 50.2835C48.1791 50.2505 47.965 50.1739 47.7718 50.0581C47.5786 49.9423 47.4101 49.7896 47.2759 49.6087C47.1418 49.4278 47.0445 49.2222 46.9898 49.0037C46.9351 48.7853 46.9239 48.5582 46.9569 48.3354C46.99 48.1126 47.0666 47.8985 47.1824 47.7053L59.4004 27.3186C59.5939 26.996 59.8882 26.7461 60.2378 26.6072C60.5875 26.4683 60.973 26.4483 61.3352 26.5502L84.2112 32.9988C84.5596 33.0935 84.8693 33.2958 85.0961 33.5768C85.3228 33.8579 85.455 34.2033 85.4739 34.5639C85.4928 34.9245 85.3974 35.2819 85.2012 35.5851C85.0051 35.8882 84.7182 36.1218 84.3816 36.2524L84.3752 36.2457Z" fill="#F5F5F5"/>
<path d="M132.144 49.7106C131.795 49.8497 131.41 49.8692 131.048 49.7658L108.194 43.3252C107.785 43.1783 107.448 42.8819 107.249 42.4959C107.051 42.1099 107.006 41.663 107.124 41.2453C107.242 40.8276 107.514 40.4703 107.886 40.2453C108.257 40.0203 108.699 39.9444 109.124 40.033L131.979 46.4752C132.321 46.5748 132.624 46.7784 132.845 47.0578C133.066 47.3372 133.194 47.6785 133.212 48.0342C133.23 48.3899 133.137 48.7425 132.946 49.0429C132.755 49.3433 132.474 49.5767 132.144 49.7106Z" fill="#F5F5F5"/>
<path d="M120.361 71.1445C119.938 71.3123 119.466 71.3054 119.048 71.1252C118.631 70.9451 118.302 70.6064 118.134 70.1837L101.892 29.2885L31.7676 57.1393L48.0097 98.0345C48.1776 98.4572 48.1707 98.9293 47.9905 99.3468C47.8103 99.7644 47.4716 100.093 47.049 100.261C46.6263 100.429 46.1542 100.422 45.7366 100.242C45.319 100.062 44.9901 99.7231 44.8223 99.3005L27.9472 56.8115C27.7793 56.3888 27.7862 55.9168 27.9664 55.4992C28.1466 55.0816 28.4853 54.7527 28.9079 54.5848L102.22 25.468C102.642 25.3002 103.114 25.3071 103.532 25.4872C103.95 25.6674 104.279 26.0061 104.446 26.4288L121.321 68.9177C121.489 69.3404 121.482 69.8125 121.302 70.2301C121.122 70.6477 120.783 70.9766 120.361 71.1445Z" fill="#F5F5F5"/>
<path d="M91.2764 78.8487C89.2963 80.8063 86.9279 82.3271 84.3239 83.3131C80.3078 85.1803 75.7383 85.4766 71.5147 84.1437C69.6192 83.421 67.9066 82.2887 66.499 80.8279C65.0915 79.3671 64.0237 77.6136 63.3719 75.6925C62.4885 73.6574 62.0189 71.4669 61.9902 69.2485C61.9616 67.0301 62.3746 64.8282 63.2051 62.7709C64.0188 60.7525 65.2483 58.9279 66.8137 57.4161C68.3792 55.9042 70.2454 54.7389 72.2909 53.996C73.9936 53.2179 75.8331 52.7833 77.704 52.7172C79.5749 52.6511 81.4405 52.9547 83.1939 53.6106C84.7885 54.242 86.232 55.2029 87.4298 56.4305C88.6277 57.658 89.5529 59.1246 90.1451 60.7342C91.4856 63.587 91.6916 66.8426 90.7215 69.8417C90.2679 71.0994 89.5451 72.2429 88.6038 73.1923C87.6624 74.1417 86.5251 74.8742 85.2713 75.3385C84.5213 75.6791 83.6686 75.7163 82.8917 75.4423C82.1891 75.181 81.6186 74.6518 81.3054 73.9707C81.1106 74.9569 80.6702 75.878 80.0248 76.6488C79.3795 77.4195 78.5501 78.015 77.6135 78.38C76.8779 78.6962 76.083 78.8511 75.2825 78.8342C74.482 78.8173 73.6944 78.629 72.9728 78.282C71.3659 77.4479 70.1471 76.0205 69.5749 74.3028C68.5009 71.6966 68.372 68.7968 69.2106 66.1056C69.4507 64.9588 69.9545 63.8836 70.6822 62.9653C71.4099 62.0469 72.3415 61.3107 73.4031 60.8149C74.2733 60.3796 75.2341 60.1563 76.207 60.163C77.18 60.1697 78.1376 60.4063 79.0017 60.8534L78.752 59.1979L81.4789 58.1149L83.2079 69.344C83.3136 70.2625 83.517 71.167 83.8146 72.0423C84.1066 72.7776 84.5336 73.0336 85.0957 72.8104C85.955 72.4555 86.7178 71.9019 87.3217 71.195C87.9256 70.4882 88.3532 69.6483 88.5696 68.7441C89.151 66.3444 88.8998 63.8184 87.8573 61.5801C87.3699 60.2491 86.5975 59.0407 85.5943 58.0393C84.591 57.038 83.3811 56.268 82.0492 55.7831C79.1348 54.7521 75.9358 54.8799 73.113 56.1402C71.36 56.7779 69.7657 57.7873 68.4394 59.0991C67.1132 60.4109 66.0864 61.994 65.4296 63.74C64.0547 67.3139 64.1266 71.2831 65.6302 74.8049C66.1732 76.4398 67.0718 77.9341 68.2613 79.1803C69.4508 80.4266 70.9017 81.3937 72.5096 82.0123C76.1332 83.1031 80.0324 82.8144 83.4559 81.2019C85.6848 80.3877 87.7154 79.1095 89.4135 77.452L91.2764 78.8487ZM79.361 63.3142C78.6564 62.8401 77.8396 62.5593 76.9924 62.5001C76.1452 62.4408 75.2973 62.6052 74.5336 62.9767C73.7699 63.3482 73.1172 63.9139 72.6409 64.6169C72.1645 65.32 71.8812 66.1359 71.8194 66.9829C71.395 69.0305 71.5827 71.1576 72.3591 73.0992C73.4499 75.8458 75.0934 76.7829 77.2896 75.9107C77.8477 75.6721 78.3531 75.3256 78.7767 74.891C79.2004 74.4564 79.534 73.9424 79.7583 73.3784C80.3475 71.9949 80.5183 70.469 80.2495 68.9894L79.361 63.3142Z" fill="#F5F5F5"/>
<path d="M84.4041 83.5102C80.3395 85.3875 75.7215 85.6844 71.45 84.343C69.5276 83.6069 67.7906 82.4573 66.3616 80.9756C64.9327 79.4939 63.8468 77.7163 63.1808 75.7686C62.291 73.707 61.8181 71.4897 61.7893 69.2445C61.7605 66.9992 62.1765 64.7705 63.0131 62.6868C63.8402 60.6441 65.0861 58.7973 66.6705 57.2655C68.255 55.7336 70.1427 54.5508 72.2122 53.7931C75.7044 52.2079 79.6821 52.0696 83.276 53.4084C84.896 54.0536 86.3624 55.0318 87.5802 56.2798C88.798 57.5278 89.7401 59.0177 90.3454 60.653C91.7006 63.5564 91.9073 66.865 90.9239 69.9145C90.4594 71.2006 89.7208 72.3704 88.7592 73.3426C87.7977 74.3149 86.6362 75.0665 85.3553 75.5452C84.5536 75.9072 83.6429 75.9449 82.814 75.6504C82.2293 75.434 81.7264 75.0412 81.3748 74.5263C81.12 75.4438 80.6541 76.289 80.0145 76.9944C79.3749 77.6998 78.5793 78.246 77.6911 78.5892C76.9277 78.915 76.1036 79.0742 75.2738 79.056C74.444 79.0377 73.6277 78.8425 72.8794 78.4835C71.2251 77.6242 69.9685 76.157 69.3736 74.3903C68.2852 71.7377 68.1539 68.789 69.0023 66.0501C69.254 64.8732 69.7749 63.7705 70.5241 62.8286C71.2733 61.8866 72.2304 61.131 73.3206 60.6209C74.159 60.2157 75.0735 59.9921 76.0043 59.9645C76.9351 59.9369 77.8613 60.1061 78.7223 60.4608L78.5095 59.0563L81.646 57.8106L83.4145 69.3064C83.5199 70.2102 83.7206 71.1002 84.0133 71.9617C84.3298 72.7586 84.7164 72.7287 85.0097 72.6122C85.8378 72.2669 86.5728 71.7311 87.1547 71.0482C87.7367 70.3653 88.1492 69.5547 88.3588 68.6823C88.9232 66.3292 88.6763 63.8545 87.6582 61.6593C87.1775 60.3579 86.4197 59.1764 85.4374 58.1966C84.4551 57.2168 83.2716 56.4622 81.9689 55.9849C79.1034 54.9774 75.9612 55.1033 73.1855 56.3366C71.4619 56.9667 69.8943 57.9608 68.5894 59.2512C67.2845 60.5416 66.2729 62.098 65.6234 63.8144C64.2759 67.3393 64.3479 71.2495 65.8244 74.7223C66.36 76.3268 67.2427 77.7935 68.4096 79.0181C69.5765 80.2426 70.999 81.1949 72.5758 81.8072C76.1509 82.8733 79.9934 82.5859 83.3702 80.9999C85.5694 80.1946 87.5736 78.9339 89.2519 77.3004L89.3828 77.1654L91.6008 78.8289L91.4281 79.0027C89.4259 80.9776 87.0336 82.5128 84.4041 83.5102ZM72.3689 54.1921C70.3523 54.9293 68.5126 56.0808 66.9681 57.5722C65.4236 59.0637 64.2087 60.8622 63.4015 62.8518C62.5862 64.8849 62.1814 67.0593 62.2106 69.2496C62.2397 71.4399 62.7021 73.6028 63.5712 75.6135C64.2159 77.5044 65.2681 79.2305 66.6534 80.6698C68.0388 82.1092 69.7234 83.2266 71.5882 83.9431C75.7641 85.2483 80.2765 84.952 84.2459 83.1117C86.7413 82.162 89.0207 80.7209 90.9488 78.8738L89.4266 77.7311C87.7288 79.3396 85.7217 80.5862 83.5272 81.3952C80.0534 83.0219 76.1019 83.311 72.4283 82.2071C70.7938 81.5755 69.3188 80.5911 68.1082 79.3242C66.8976 78.0572 65.9814 76.5389 65.4247 74.8774C63.9058 71.3045 63.8334 67.2814 65.2229 63.6561C65.8939 61.8853 66.9384 60.2798 68.2855 58.9488C69.6325 57.6178 71.2504 56.5926 73.0292 55.9429C75.9012 54.67 79.1512 54.5429 82.1138 55.5878C83.474 56.0834 84.7101 56.869 85.7363 57.8901C86.7625 58.9112 87.5543 60.1434 88.0566 61.5011C89.1182 63.7861 89.3743 66.3634 88.7832 68.8126C88.555 69.7466 88.1098 70.6136 87.4836 71.3432C86.8574 72.0728 86.068 72.6444 85.1794 73.0116C84.7905 73.1661 84.0716 73.256 83.6215 72.1229C83.3164 71.2315 83.107 70.3102 82.9968 69.3745L81.312 58.4193L78.9947 59.3397L79.2862 61.272L78.8992 61.0456C78.0619 60.6165 77.1354 60.3902 76.1946 60.385C75.2538 60.3798 74.3249 60.5959 73.4829 61.0158C72.4537 61.5039 71.5511 62.2232 70.8457 63.1176C70.1402 64.0119 69.6509 65.0572 69.416 66.1718C68.5968 68.8172 68.7239 71.6651 69.7755 74.227C70.3319 75.8901 71.5101 77.2735 73.0635 78.0875C73.7585 78.4194 74.5163 78.5996 75.2863 78.6161C76.0564 78.6325 76.8211 78.4848 77.5297 78.1828C78.433 77.8269 79.2325 77.2501 79.855 76.5051C80.4776 75.7601 80.9032 74.8708 81.0929 73.9187L81.2331 73.3427L81.492 73.8783C81.6334 74.1919 81.8358 74.4742 82.0873 74.7088C82.3389 74.9434 82.6346 75.1256 82.9573 75.2448C83.6834 75.4983 84.4793 75.4624 85.1796 75.1445C86.4041 74.6869 87.5145 73.9686 88.4339 73.0392C89.3532 72.1099 90.0594 70.9917 90.5036 69.7622C91.4482 66.8122 91.2431 63.6142 89.9294 60.8089C89.3434 59.2279 88.4316 57.7876 87.2533 56.5814C86.0749 55.3752 84.6563 54.4301 83.0894 53.8073C79.6049 52.5173 75.7519 52.6556 72.3689 54.1921ZM77.3688 76.11C75.0515 77.0303 73.2981 76.044 72.16 73.1784C71.3697 71.1978 71.1774 69.029 71.6069 66.9402C71.6759 66.058 71.9749 65.2093 72.4742 64.4788C72.9734 63.7482 73.6555 63.1612 74.4523 62.7764C75.2491 62.3916 76.1329 62.2224 77.0155 62.2857C77.8981 62.3489 78.7487 62.6425 79.4825 63.1369L79.5588 63.1897L80.4612 68.9553C80.7338 70.4768 80.557 72.0449 79.9524 73.4676C79.4755 74.656 78.5462 75.6064 77.3688 76.11ZM74.595 63.1887C73.8741 63.5548 73.2595 64.1003 72.8105 64.7728C72.3614 65.4452 72.093 66.2219 72.0311 67.0282C71.6194 69.035 71.8054 71.1186 72.5661 73.0209C73.6137 75.6585 75.1352 76.5395 77.2182 75.7122C77.7517 75.4833 78.2347 75.1512 78.6394 74.7349C79.044 74.3186 79.3624 73.8265 79.5761 73.2867C80.1393 71.9404 80.298 70.4591 80.0327 69.024L79.1586 63.4409C78.4829 63.0119 77.7085 62.7633 76.9094 62.7186C76.1103 62.6738 75.3131 62.8346 74.5938 63.1855L74.595 63.1887Z" fill="#F5F5F5"/>
</g>
<defs>
<clipPath id="clip0">
<rect width="126.897" height="126.897" fill="white" transform="translate(0 46.8398) rotate(-21.6612)"/>
</clipPath>
</defs>
</svg>
