<svg width="274" height="274" viewBox="0 0 274 274" fill="none" xmlns="http://www.w3.org/2000/svg">
<g clip-path="url(#clip0)">
<path d="M66.4813 74.2725C65.992 73.9901 65.6035 73.5614 65.3704 73.0467C65.1373 72.5321 65.0714 71.9573 65.1819 71.4032C65.2924 70.8492 65.5737 70.3437 65.9864 69.9578C66.3991 69.5719 66.9223 69.325 67.4825 69.2518L104.595 64.4298C105.299 64.3515 106.006 64.5526 106.563 64.9901C107.121 65.4275 107.484 66.0662 107.575 66.7688C107.666 67.4713 107.477 68.1815 107.05 68.7465C106.623 69.3115 105.99 69.6861 105.29 69.7896L68.178 74.6093C67.5908 74.6878 66.994 74.5694 66.4813 74.2725Z" fill="#F5F5F5"/>
<path d="M168.899 264.446L129.671 241.798C129.05 241.439 128.597 240.849 128.412 240.157C128.226 239.464 128.323 238.726 128.682 238.106C129.04 237.485 129.63 237.032 130.323 236.846C131.015 236.661 131.753 236.758 132.374 237.116L169.262 258.414L224.653 162.472C225.012 161.851 225.602 161.398 226.295 161.213C226.987 161.027 227.725 161.125 228.345 161.483C228.966 161.841 229.419 162.432 229.605 163.124C229.79 163.816 229.693 164.554 229.335 165.175L172.591 263.457C172.233 264.078 171.643 264.531 170.95 264.716C170.258 264.902 169.52 264.805 168.899 264.446Z" fill="#F5F5F5"/>
<path d="M89.9507 218.866L83.1629 214.947C82.5421 214.588 82.0891 213.998 81.9036 213.306C81.7181 212.613 81.8152 211.875 82.1736 211.255C82.532 210.634 83.1223 210.181 83.8147 209.995C84.5071 209.81 85.2448 209.907 85.8656 210.265L92.6534 214.184C93.2741 214.543 93.7271 215.133 93.9126 215.825C94.0981 216.518 94.001 217.256 93.6426 217.876C93.2842 218.497 92.6939 218.95 92.0015 219.136C91.3092 219.321 90.5714 219.224 89.9507 218.866Z" fill="#F5F5F5"/>
<path d="M66.7786 205.487L9.73795 172.555C9.11718 172.196 8.66421 171.606 8.47869 170.913C8.29317 170.221 8.39029 169.483 8.7487 168.863L65.4919 70.5804C65.8503 69.9596 66.4407 69.5066 67.133 69.3211C67.8254 69.1356 68.5631 69.2327 69.1839 69.5911C69.8047 69.9495 70.2576 70.5398 70.4432 71.2322C70.6287 71.9246 70.5316 72.6623 70.1732 73.2831L14.7813 169.225L69.4813 200.806C70.1021 201.164 70.555 201.754 70.7406 202.447C70.9261 203.139 70.829 203.877 70.4706 204.498C70.1122 205.118 69.5218 205.571 68.8295 205.757C68.1371 205.942 67.3994 205.845 66.7786 205.487Z" fill="#F5F5F5"/>
<path d="M113.287 232.339L106.335 228.325C105.714 227.967 105.261 227.376 105.076 226.684C104.89 225.992 104.987 225.254 105.346 224.633C105.704 224.012 106.294 223.559 106.987 223.374C107.679 223.188 108.417 223.285 109.038 223.644L115.989 227.657C116.61 228.016 117.063 228.606 117.249 229.298C117.434 229.991 117.337 230.729 116.979 231.349C116.62 231.97 116.03 232.423 115.337 232.609C114.645 232.794 113.907 232.697 113.287 232.339Z" fill="#F5F5F5"/>
<path d="M113.05 177.397C105.828 173.241 100.282 166.696 97.3673 158.89L65.2998 72.8754C65.1759 72.5428 65.1186 72.189 65.1314 71.8343C65.1442 71.4796 65.2267 71.1308 65.3743 70.808C65.5218 70.4851 65.7315 70.1945 65.9914 69.9527C66.2513 69.7109 66.5562 69.5227 66.8889 69.3988C67.5606 69.1484 68.3043 69.1752 68.9563 69.4732C69.2791 69.6208 69.5697 69.8305 69.8115 70.0904C70.0533 70.3502 70.2416 70.6552 70.3655 70.9878L102.435 156.994C104.915 163.62 109.622 169.178 115.749 172.716C121.877 176.254 129.044 177.551 136.022 176.386L226.543 161.157C227.25 161.038 227.975 161.204 228.559 161.62C229.143 162.036 229.538 162.666 229.657 163.373C229.776 164.08 229.61 164.805 229.194 165.389C228.778 165.973 228.148 166.368 227.441 166.488L136.914 181.722C128.698 183.102 120.259 181.572 113.05 177.397Z" fill="#F5F5F5"/>
<path d="M9.73802 172.555C9.25558 172.277 8.87069 171.857 8.63595 171.352C8.40121 170.847 8.32808 170.282 8.42656 169.734C8.52503 169.187 8.7903 168.682 9.18612 168.291C9.58193 167.899 10.089 167.64 10.638 167.547L98.5245 152.783C98.8779 152.716 99.241 152.72 99.5927 152.795C99.9443 152.871 100.277 153.015 100.573 153.221C100.868 153.426 101.119 153.689 101.311 153.993C101.503 154.296 101.633 154.636 101.693 154.99C101.752 155.345 101.741 155.708 101.658 156.058C101.576 156.408 101.424 156.738 101.213 157.029C101.001 157.32 100.733 157.565 100.426 157.751C100.118 157.937 99.7761 158.06 99.4203 158.112L11.5384 172.88C10.9188 172.984 10.2822 172.869 9.73802 172.555Z" fill="#F5F5F5"/>
<path d="M168.899 264.447C168.356 264.132 167.939 263.639 167.72 263.051L136.563 179.557C136.431 179.223 136.366 178.865 136.373 178.506C136.381 178.146 136.46 177.792 136.606 177.463C136.752 177.134 136.962 176.838 137.224 176.592C137.486 176.345 137.794 176.154 138.131 176.028C138.468 175.902 138.827 175.845 139.186 175.86C139.545 175.874 139.898 175.961 140.224 176.113C140.549 176.266 140.841 176.482 141.082 176.749C141.323 177.016 141.508 177.329 141.627 177.668L172.784 261.162C172.978 261.684 173.007 262.252 172.866 262.791C172.725 263.329 172.421 263.811 171.996 264.17C171.571 264.529 171.046 264.749 170.492 264.798C169.937 264.848 169.381 264.725 168.899 264.447Z" fill="#F5F5F5"/>
<path d="M195.587 93.9471C195.073 93.6501 194.672 93.1924 194.444 92.6447L180.847 59.9684L145.755 64.5339C145.403 64.5796 145.045 64.5556 144.703 64.4631C144.36 64.3707 144.039 64.2116 143.757 63.995C143.476 63.7785 143.24 63.5086 143.063 63.2009C142.886 62.8932 142.772 62.5536 142.726 62.2016C142.68 61.8496 142.704 61.492 142.797 61.1493C142.889 60.8066 143.048 60.4854 143.265 60.2041C143.481 59.9229 143.751 59.6871 144.059 59.5101C144.367 59.3331 144.706 59.2185 145.058 59.1728L182.205 54.3456C182.793 54.2695 183.39 54.3888 183.904 54.6853C184.417 54.9818 184.819 55.4388 185.047 55.9861L199.44 90.5701C199.664 91.0934 199.716 91.674 199.591 92.2291C199.465 92.7841 199.167 93.2853 198.74 93.6612C198.312 94.0371 197.777 94.2685 197.211 94.3224C196.644 94.3763 196.075 94.25 195.584 93.9615L195.587 93.9471Z" fill="#F5F5F5"/>
<path d="M225.643 166.164C225.129 165.869 224.728 165.411 224.503 164.863L210.121 130.314C209.903 129.665 209.94 128.958 210.223 128.336C210.506 127.713 211.015 127.221 211.646 126.958C212.278 126.696 212.986 126.683 213.627 126.922C214.268 127.16 214.795 127.634 215.101 128.245L229.481 162.797C229.692 163.317 229.736 163.89 229.607 164.437C229.477 164.983 229.181 165.475 228.759 165.845C228.337 166.216 227.81 166.445 227.252 166.502C226.693 166.56 226.131 166.441 225.643 166.164Z" fill="#F5F5F5"/>
<path d="M187.626 172.552C187.005 172.194 186.552 171.603 186.366 170.911C186.181 170.218 186.278 169.481 186.636 168.86L221.312 108.8L118.325 49.3405L83.6497 109.4C83.2913 110.021 82.701 110.474 82.0086 110.66C81.3162 110.845 80.5785 110.748 79.9577 110.39C79.337 110.031 78.884 109.441 78.6985 108.749C78.5129 108.056 78.6101 107.319 78.9685 106.698L114.995 44.2972C115.354 43.6764 115.944 43.2234 116.637 43.0379C117.329 42.8524 118.067 42.9495 118.687 43.3079L226.355 105.47C226.976 105.828 227.429 106.419 227.615 107.111C227.8 107.804 227.703 108.541 227.345 109.162L191.318 171.563C190.959 172.183 190.369 172.636 189.677 172.822C188.984 173.007 188.247 172.91 187.626 172.552Z" fill="#F5F5F5"/>
<path d="M149.668 144.13C145.312 143.596 141.116 142.155 137.352 139.9C131.117 136.761 126.283 131.402 123.802 124.877C122.842 121.827 122.567 118.603 122.997 115.435C123.427 112.267 124.551 109.233 126.288 106.549C127.94 103.467 130.189 100.745 132.904 98.5406C135.618 96.3364 138.744 94.6942 142.099 93.7096C145.39 92.7421 148.847 92.4783 152.247 92.9354C155.646 93.3925 158.911 94.5603 161.829 96.3627C164.456 97.7068 166.791 99.5559 168.702 101.804C170.613 104.052 172.062 106.655 172.965 109.464C173.744 112.053 173.967 114.777 173.62 117.458C173.274 120.138 172.366 122.716 170.955 125.022C168.739 129.468 164.915 132.905 160.26 134.638C158.261 135.307 156.141 135.532 154.047 135.296C151.953 135.061 149.936 134.371 148.136 133.275C146.982 132.681 146.102 131.663 145.681 130.435C145.317 129.31 145.414 128.088 145.95 127.035C144.54 127.758 142.971 128.114 141.387 128.07C139.803 128.026 138.256 127.583 136.889 126.782C135.779 126.181 134.811 125.35 134.049 124.344C133.287 123.338 132.75 122.18 132.473 120.949C131.934 118.147 132.507 115.245 134.071 112.858C136.242 108.983 139.701 105.988 143.848 104.394C145.5 103.569 147.322 103.141 149.169 103.143C151.015 103.145 152.836 103.576 154.487 104.404C155.876 105.054 157.091 106.024 158.034 107.233C158.977 108.442 159.621 109.857 159.913 111.363L161.715 109.436L165.72 111.748L153.529 124.863C152.497 125.892 151.578 127.028 150.787 128.251C150.163 129.331 150.264 130.109 151.09 130.586C152.368 131.301 153.799 131.703 155.263 131.759C156.727 131.814 158.183 131.522 159.513 130.905C163.048 129.278 165.925 126.498 167.672 123.021C168.841 121.117 169.58 118.98 169.837 116.761C170.094 114.542 169.863 112.294 169.16 110.173C167.586 105.562 164.3 101.733 159.982 99.4751C157.48 97.9315 154.674 96.9475 151.755 96.5905C148.837 96.2335 145.876 96.512 143.076 97.4069C137.313 99.2013 132.477 103.171 129.593 108.473C128.103 110.742 127.134 113.314 126.757 116.003C126.379 118.692 126.602 121.431 127.409 124.023C129.603 129.569 133.772 134.107 139.113 136.763C142.298 138.722 145.864 139.983 149.573 140.462L149.668 144.13ZM157.222 114.213C157.12 112.878 156.668 111.594 155.913 110.489C155.158 109.384 154.126 108.496 152.92 107.915C151.714 107.334 150.377 107.08 149.042 107.179C147.707 107.277 146.421 107.725 145.314 108.476C142.368 109.954 139.922 112.265 138.281 115.123C135.952 119.157 136.4 122.105 139.625 123.967C140.466 124.424 141.388 124.71 142.34 124.809C143.291 124.907 144.253 124.817 145.169 124.543C147.456 123.919 149.509 122.638 151.075 120.859L157.222 114.213Z" fill="#F5F5F5"/>
<path d="M137.186 140.191C130.892 137.002 126.01 131.584 123.492 124.992C122.523 121.896 122.246 118.624 122.68 115.409C123.115 112.194 124.251 109.114 126.007 106.386C127.686 103.271 129.965 100.519 132.712 98.2879C135.46 96.0573 138.621 94.3925 142.015 93.3896C145.349 92.415 148.85 92.1497 152.293 92.6108C155.735 93.0719 159.043 94.2491 162.003 96.0666C167.377 98.8339 171.437 103.616 173.295 109.368C174.082 112.001 174.306 114.77 173.954 117.496C173.602 120.221 172.681 122.843 171.251 125.19C168.987 129.703 165.099 133.194 160.367 134.959C158.323 135.642 156.155 135.873 154.013 135.635C151.871 135.397 149.807 134.696 147.963 133.58C146.731 132.943 145.794 131.854 145.348 130.542C145.044 129.607 145.038 128.601 145.331 127.663C143.947 128.245 142.447 128.496 140.95 128.395C139.452 128.294 137.999 127.844 136.707 127.082C135.557 126.457 134.555 125.593 133.766 124.55C132.978 123.506 132.421 122.306 132.133 121.03C131.578 118.145 132.163 115.157 133.766 112.694C135.981 108.756 139.498 105.711 143.713 104.082C145.414 103.242 147.286 102.808 149.183 102.813C151.08 102.819 152.95 103.263 154.646 104.112C155.967 104.752 157.137 105.664 158.082 106.788C159.026 107.912 159.722 109.222 160.125 110.633L161.653 108.997L166.26 111.656L153.778 125.082C152.763 126.095 151.859 127.214 151.08 128.418C150.405 129.588 150.82 130.037 151.25 130.286C152.487 130.972 153.868 131.356 155.281 131.408C156.694 131.46 158.1 131.177 159.383 130.584C162.844 128.981 165.661 126.256 167.38 122.851C168.519 120.985 169.238 118.893 169.489 116.721C169.74 114.549 169.516 112.348 168.832 110.271C167.276 105.743 164.049 101.982 159.81 99.7565C157.346 98.2418 154.585 97.2758 151.714 96.9242C148.843 96.5726 145.93 96.8437 143.173 97.719C137.498 99.4993 132.735 103.411 129.885 108.632C128.426 110.862 127.475 113.387 127.102 116.027C126.729 118.667 126.943 121.356 127.727 123.904C129.905 129.366 134.017 133.835 139.279 136.459C142.424 138.39 145.942 139.636 149.602 140.113L149.897 140.143L150.009 144.511L149.625 144.468C145.227 143.923 140.99 142.467 137.186 140.191ZM161.663 96.6504C158.78 94.8783 155.558 93.7296 152.204 93.2785C148.851 92.8274 145.44 93.0837 142.191 94.0311C138.881 95.0108 135.797 96.6363 133.118 98.8137C130.438 100.991 128.217 103.677 126.581 106.717C124.874 109.363 123.768 112.351 123.344 115.471C122.919 118.591 123.184 121.766 124.122 124.772C126.591 131.21 131.369 136.498 137.524 139.606C141.138 141.763 145.148 143.172 149.316 143.749L149.241 140.75C145.592 140.224 142.089 138.962 138.944 137.04C133.536 134.336 129.316 129.733 127.089 124.113C126.272 121.475 126.047 118.689 126.429 115.954C126.812 113.219 127.793 110.602 129.303 108.289C132.235 102.918 137.137 98.8956 142.977 97.0691C145.822 96.1673 148.828 95.8889 151.791 96.2529C154.753 96.6169 157.602 97.6146 160.144 99.1784C164.526 101.484 167.86 105.378 169.465 110.062C170.182 112.228 170.419 114.524 170.16 116.791C169.901 119.058 169.152 121.241 167.965 123.189C166.178 126.736 163.242 129.572 159.637 131.236C158.259 131.867 156.752 132.164 155.238 132.103C153.724 132.042 152.245 131.625 150.923 130.886C150.352 130.556 149.537 129.755 150.498 128.091C151.302 126.842 152.236 125.683 153.285 124.632L165.181 111.839L161.777 109.874L159.674 112.123L159.575 111.424C159.287 109.969 158.661 108.602 157.748 107.434C156.834 106.266 155.659 105.329 154.317 104.699C152.707 103.904 150.936 103.491 149.14 103.493C147.345 103.496 145.574 103.913 143.967 104.712C139.896 106.286 136.499 109.227 134.361 113.032C132.849 115.345 132.29 118.154 132.803 120.871C133.072 122.054 133.59 123.167 134.322 124.135C135.055 125.103 135.985 125.904 137.051 126.485C138.374 127.254 139.869 127.678 141.399 127.719C142.928 127.761 144.444 127.417 145.806 126.721L146.655 126.331L146.246 127.175C145.997 127.656 145.846 128.182 145.802 128.723C145.758 129.263 145.821 129.807 145.99 130.322C146.386 131.468 147.208 132.416 148.286 132.971C150.049 134.038 152.023 134.708 154.07 134.936C156.118 135.164 158.191 134.944 160.145 134.291C164.715 132.574 168.468 129.194 170.652 124.828C172.033 122.558 172.922 120.022 173.261 117.386C173.6 114.751 173.382 112.073 172.62 109.527C170.808 103.958 166.87 99.3303 161.663 96.6504ZM139.456 124.26C136.053 122.295 135.558 119.163 137.988 114.954C139.664 112.041 142.157 109.683 145.159 108.172C146.317 107.394 147.658 106.934 149.05 106.837C150.441 106.74 151.833 107.01 153.088 107.618C154.343 108.227 155.416 109.154 156.201 110.307C156.985 111.46 157.454 112.799 157.56 114.189L157.57 114.335L151.324 121.087C149.71 122.912 147.599 124.226 145.249 124.87C143.313 125.442 141.23 125.223 139.456 124.26ZM152.718 108.198C151.56 107.665 150.285 107.438 149.015 107.541C147.745 107.643 146.522 108.07 145.465 108.782C142.582 110.235 140.188 112.502 138.58 115.302C136.343 119.176 136.742 121.918 139.801 123.684C140.605 124.12 141.488 124.392 142.398 124.486C143.309 124.579 144.228 124.491 145.104 124.228C147.319 123.608 149.306 122.356 150.82 120.625L156.868 114.086C156.737 112.831 156.288 111.631 155.562 110.599C154.836 109.568 153.858 108.739 152.721 108.193L152.718 108.198Z" fill="#F5F5F5"/>
</g>
<defs>
<clipPath id="clip0">
<rect width="200" height="200" fill="white" transform="translate(100) rotate(30)"/>
</clipPath>
</defs>
</svg>
