<svg width="338" height="142" viewBox="0 0 338 142" fill="none" xmlns="http://www.w3.org/2000/svg">
<g clip-path="url(#clip0)">
<path d="M52.2904 112.567C50.6195 122.337 55.4463 125.448 63.8623 125.448C69.8649 125.448 76.5481 123.083 77.9714 116.985C79.6422 109.767 68.9366 108.336 58.7261 104.975C48.5774 101.615 38.305 96.326 41.7085 81.2051C45.669 63.1595 63.9861 56.128 78.3427 56.128C93.5038 56.128 107.056 64.0929 103.034 82.6985H83.1695C85.2116 75.1691 79.2091 72.7423 73.1446 72.7423C68.8129 72.7423 63.1197 74.3602 61.944 79.7739C60.5826 86.1832 71.35 87.3032 81.6225 90.6635C91.9568 93.9614 101.796 99.4996 98.4544 114.434C93.8751 135.28 75.9293 142 59.0974 142C41.5848 142 27.9088 133.662 32.4881 112.505H52.2904V112.567Z" fill="#175CA3"/>
<path d="M189.854 57.8703H209.718L191.401 140.258H171.537L189.854 57.8703Z" fill="#175CA3"/>
<path d="M122.774 123.083H138.802C145.052 123.083 149.94 120.656 151.487 113.874C153.158 106.531 148.888 104.104 142.948 104.104H127.044L122.774 123.083ZM130.138 90.3523H145.485C148.888 90.3523 154.025 88.3611 155.324 82.4496C156.685 76.4137 153.096 74.4847 148.95 74.4847H133.603L130.138 90.3523ZM117.452 57.8703H153.158C166.339 57.6836 179.953 61.355 176.178 78.5294C174.508 85.9343 169.062 91.9702 162.379 95.1437C169.928 97.695 173.332 105.349 171.228 114.683C166.896 134.408 152.168 140.32 135.769 140.32H99.1351L117.452 57.8703Z" fill="#175CA3"/>
<path d="M237.503 24.7038C226.55 -5.04032 163.616 -8.40053 97.093 17.1122C49.6294 35.4067 13.0571 63.4706 0 88.7967C18.1315 69.5688 47.2779 50.7143 82.4269 37.0868C149.074 11.5741 211.884 14.9343 222.837 44.6784C226.055 53.2033 224.57 63.0973 219.31 73.3024C235.399 56.1902 242.64 38.8291 237.503 24.7038Z" fill="#EC2439"/>
<path fill-rule="evenodd" clip-rule="evenodd" d="M239.607 83.2585L226.922 140.258H246.786L259.533 83.2585H239.607Z" fill="#175CA3"/>
<path fill-rule="evenodd" clip-rule="evenodd" d="M285.71 111.074C309.287 96.8861 312.195 57.9325 280.45 57.8703H245.301L240.721 78.2182C240.783 78.2182 272.9 78.2182 276.365 78.2182C288.061 78.2182 283.358 95.6415 272.219 95.6415H261.885L257.306 115.989H263.494L271.972 140.195H295.054L295.673 137.084L285.71 111.074Z" fill="#175CA3"/>
<path fill-rule="evenodd" clip-rule="evenodd" d="M312.505 83.2585L299.819 140.258H319.683L332.369 83.2585H312.505Z" fill="#175CA3"/>
<path fill-rule="evenodd" clip-rule="evenodd" d="M338 57.8703H318.136L313.618 78.2182H333.483L338 57.8703Z" fill="#ED2633"/>
</g>
<defs>
<clipPath id="clip0">
<rect width="338" height="142" fill="white"/>
</clipPath>
</defs>
</svg>
