<svg width="160" height="68" viewBox="0 0 160 68" fill="none" xmlns="http://www.w3.org/2000/svg">
<g clip-path="url(#clip0)">
<path d="M24.7528 53.1126C23.9619 57.7222 26.2468 59.1902 30.2307 59.1902C33.0721 59.1902 36.2358 58.0745 36.9096 55.1972C37.7005 51.7914 32.6327 51.1161 27.7993 49.5307C22.9952 47.9452 18.1326 45.4496 19.7437 38.3151C21.6185 29.8006 30.2893 26.4829 37.0853 26.4829C44.2622 26.4829 50.6774 30.241 48.7733 39.0197H39.3702C40.3369 35.4671 37.4954 34.3221 34.6247 34.3221C32.5741 34.3221 29.8792 35.0855 29.3226 37.6398C28.6781 40.6639 33.7752 41.1924 38.6379 42.7778C43.5298 44.3339 48.1875 46.947 46.6056 53.9934C44.4379 63.8291 35.9429 67 27.9751 67C19.6851 67 13.2113 63.0657 15.379 53.0833H24.7528V53.1126Z" fill="#254F91"/>
<path d="M89.8718 27.3051H99.275L90.6042 66.178H81.201L89.8718 27.3051Z" fill="#254F91"/>
<path d="M58.1179 58.0744H65.7049C68.6635 58.0744 70.9777 56.9294 71.71 53.7291C72.5009 50.2646 70.4797 49.1196 67.6675 49.1196H60.1391L58.1179 58.0744ZM61.6038 42.631H68.8685C70.4797 42.631 72.911 41.6914 73.5262 38.9022C74.1706 36.0543 72.4716 35.1441 70.509 35.1441H63.2442L61.6038 42.631ZM55.5987 27.3049H72.5009C78.7404 27.2168 85.1849 28.9491 83.398 37.0525C82.6071 40.5464 80.0293 43.3943 76.8656 44.8917C80.4394 46.0955 82.0505 49.7068 81.0546 54.1108C79.004 63.418 72.0322 66.2072 64.2695 66.2072H46.9279L55.5987 27.3049Z" fill="#254F91"/>
<path d="M112.428 11.6555C107.243 -2.37872 77.4515 -3.96417 45.9612 8.07352C23.4932 16.7054 6.18089 29.9469 0 41.8965C8.58294 32.8242 22.3801 23.928 39.0187 17.4981C70.5676 5.46046 100.3 7.04591 105.485 21.0801C107.008 25.1024 106.305 29.7707 103.815 34.5858C111.432 26.5117 114.859 18.3202 112.428 11.6555Z" fill="#ED2633"/>
<path fill-rule="evenodd" clip-rule="evenodd" d="M113.424 39.2841L107.419 66.178H116.822L122.856 39.2841H113.424Z" fill="#254F91"/>
<path fill-rule="evenodd" clip-rule="evenodd" d="M135.247 52.4081C146.408 45.7139 147.785 27.3344 132.757 27.3051H116.119L113.951 36.9059C113.98 36.9059 129.183 36.9059 130.824 36.9059C136.36 36.9059 134.134 45.1267 128.861 45.1267H123.969L121.802 54.7275H124.731L128.744 66.1487H139.67L139.963 64.6806L135.247 52.4081Z" fill="#254F91"/>
<path fill-rule="evenodd" clip-rule="evenodd" d="M147.931 39.2841L141.926 66.178H151.329L157.334 39.2841H147.931Z" fill="#254F91"/>
<path fill-rule="evenodd" clip-rule="evenodd" d="M160 27.3051H150.597L148.458 36.9059H157.862L160 27.3051Z" fill="#ED2633"/>
</g>
<defs>
<clipPath id="clip0">
<rect width="160" height="67" fill="white"/>
</clipPath>
</defs>
</svg>
