<svg width="100" height="100" viewBox="0 0 100 100" fill="none" xmlns="http://www.w3.org/2000/svg">
<path d="M17.1582 48.2079C15.4965 48.2079 13.9338 48.8553 12.7566 50.0327C10.3369 52.4596 10.3369 56.4085 12.7582 58.837C13.934 60.0128 15.4965 60.6602 17.1582 60.6602C18.8201 60.6602 20.3826 60.0128 21.5568 58.8386C22.7347 57.6639 23.3842 56.102 23.3853 54.4407C23.3867 52.7768 22.7379 51.2108 21.5584 50.0311C20.3826 48.8553 18.8201 48.2079 17.1582 48.2079ZM19.4867 56.7655C18.8642 57.388 18.0375 57.7305 17.1582 57.7305C16.2791 57.7305 15.4521 57.3878 14.8314 56.7669C13.5488 55.4805 13.5488 53.3874 14.8299 52.1026C15.4521 51.4803 16.2791 51.1376 17.1582 51.1376C18.0375 51.1376 18.8642 51.4803 19.4867 52.1026C20.1123 52.7284 20.4566 53.5579 20.4558 54.4386C20.4552 55.3165 20.1115 56.1425 19.4867 56.7655Z" fill="#254F91"/>
<path d="M46.9295 79.9335C46.3598 79.3589 45.4381 79.3603 44.8635 79.9302C44.2891 80.4998 44.2904 81.4328 44.86 82.0074C45.1465 82.2962 45.523 82.441 45.9002 82.441C46.2728 82.441 46.6459 82.2996 46.9314 82.0164C47.5059 81.4468 47.51 80.5193 46.9404 79.9449L46.9295 79.9335Z" fill="#254F91"/>
<path d="M89.3156 54.9061H74.3115C73.5023 54.9061 72.8467 55.562 72.8467 56.371C72.8467 57.18 73.5023 57.8358 74.3115 57.8358H89.3156C91.325 57.8358 92.9598 59.6878 92.9598 61.9643V63.3714H50.7156V57.8358H67.5105C68.3197 57.8358 68.9754 57.18 68.9754 56.371C68.9754 55.562 68.3197 54.9061 67.5105 54.9061H50.2471C48.89 54.9061 47.7859 56.0501 47.7859 57.4563V63.7509C47.7859 65.1571 48.8898 66.3011 50.2471 66.3011H65.8242C65.208 67.0813 64.543 67.8308 63.8314 68.5423C61.0449 71.3288 57.6402 73.4282 53.9281 74.6665C52.3113 71.9077 49.3168 70.0499 45.8949 70.0499C42.4752 70.0499 39.4822 71.9054 37.8648 74.6614C34.159 73.4241 30.7592 71.3263 27.9754 68.5425C26.8488 67.4157 25.8367 66.1936 24.9523 64.8985C25.4515 64.5263 25.9308 64.1155 26.3838 63.6626C28.8486 61.1975 30.2062 57.9204 30.2062 54.4351C30.2062 50.9499 28.8488 47.6747 26.3844 45.2124C25.098 43.9243 23.5883 42.9421 21.9441 42.2942C22.9422 39.4052 24.4359 36.763 26.4008 34.411L40.1109 45.8384C40.556 46.2124 41.1072 46.4122 41.6826 46.4122C41.7574 46.4122 41.8326 46.4089 41.908 46.402C42.2982 46.3669 42.665 46.2405 42.9871 46.0393L44.9912 47.7126C45.7652 48.3569 46.706 48.6712 47.6414 48.6712C48.8279 48.6712 50.0055 48.1653 50.8211 47.1856L51.0523 46.9083L53.8779 49.2647C54.7756 50.0132 55.8728 50.3802 56.9894 50.3802C58.3687 50.3802 59.7771 49.8194 60.8721 48.7245C61.7713 47.8251 62.2336 46.6007 62.1736 45.2765C62.108 43.8292 61.4336 42.4686 60.3244 41.5444L57.4959 39.1819L57.7262 38.9058C58.4332 38.0606 58.7678 36.9872 58.6682 35.8829C58.5685 34.779 58.0473 33.7827 57.2021 33.0792L55.1914 31.3999C55.334 31.0407 55.3916 30.6507 55.3529 30.2548C55.2892 29.6011 54.9746 29.0132 54.4795 28.6095L50.4281 25.2311L50.4279 25.2309L33.9621 11.5081C32.6437 10.4054 30.9697 9.88329 29.2455 10.0374C27.7951 10.1675 26.4637 10.7645 25.4189 11.737L20.3437 7.49892L20.3658 7.47255C21.9769 5.54853 21.7203 2.6706 19.7914 1.05497C18.8586 0.276846 17.6752 -0.0907323 16.4605 0.0190333C15.2459 0.12919 14.1486 0.703799 13.3707 1.63642L6.191 10.2409C5.41346 11.1733 5.0451 12.3558 5.15428 13.57C5.26366 14.7845 5.83651 15.8808 6.76718 16.6561C7.61796 17.3659 8.65409 17.7122 9.68495 17.7122C10.9894 17.7122 12.2855 17.1573 13.1861 16.0823C13.1867 16.0815 13.1875 16.0808 13.1881 16.0798L13.2113 16.0518L18.2883 20.2872C16.8332 22.5624 16.9635 25.4987 18.5432 27.6257C14.8308 32.0356 12.2435 37.2868 11.0035 42.9259C9.88788 43.5245 8.85409 44.2901 7.93378 45.2104C5.46835 47.6729 4.11053 50.9487 4.11053 54.4343C4.11053 57.9196 5.46815 61.1968 7.93378 63.6624C9.72342 65.4499 11.9076 66.6061 14.2078 67.1364C15.8795 70.3487 18.0385 73.2886 20.633 75.8835C25.0668 80.3175 30.5633 83.4929 36.5885 85.1153V88.9608H26.6777C25.8685 88.9608 25.2129 89.6167 25.2129 90.4257C25.2129 91.2347 25.8685 91.8905 26.6777 91.8905H81.4072C81.4217 91.8905 81.4449 91.9138 81.4449 91.9282V97.0317C81.4449 97.0462 81.4217 97.0696 81.4072 97.0696H10.3824C10.368 97.0696 10.3447 97.0462 10.3447 97.0317V91.9282C10.3447 91.9138 10.368 91.8905 10.3824 91.8905H19.8769C20.6861 91.8905 21.3418 91.2347 21.3418 90.4257C21.3418 89.6167 20.6861 88.9608 19.8769 88.9608H10.3824C8.74608 88.9608 7.41503 90.2921 7.41503 91.9282V97.0317C7.41503 98.6681 8.74608 99.9993 10.3824 99.9993H81.4072C83.0435 99.9993 84.3746 98.6681 84.3746 97.0317V91.9282C84.3746 90.2921 83.0435 88.9608 81.4072 88.9608H55.2014V85.1212C61.2359 83.4979 66.7363 80.3204 71.1678 75.8835C73.9861 73.0649 76.2861 69.8442 78.0158 66.3003H93.4342C94.7883 66.3003 95.8896 65.1563 95.8896 63.7501V61.9636C95.8894 58.0724 92.9406 54.9061 89.3156 54.9061ZM58.4475 43.794C58.9199 44.1878 59.2187 44.7915 59.2467 45.4093C59.2625 45.7573 59.1978 46.2556 58.8002 46.6532C58.0139 47.4393 56.7156 47.8163 55.7541 47.0147L52.9285 44.6587L54.4174 42.8735L55.6197 41.4325L58.4475 43.794ZM55.3258 35.3294C55.5703 35.5329 55.7209 35.8229 55.7502 36.1462C55.7793 36.4696 55.683 36.7821 55.4775 37.0276L48.5701 45.3101C48.1512 45.8128 47.3707 45.8819 46.8668 45.4622L44.9576 43.8683L53.4103 33.7298L55.3258 35.3294ZM27.1012 14.21C27.7053 13.486 28.5598 13.0405 29.507 12.9556C29.6162 12.9458 29.7246 12.9409 29.8328 12.9409C30.6588 12.9409 31.4478 13.2247 32.0842 13.7571L52.241 30.5575L41.6269 43.2884L21.4699 26.4878C19.9724 25.2425 19.7705 23.0071 21.0183 21.5061L27.1012 14.21ZM10.939 14.2026C10.3621 14.8899 9.3328 14.9815 8.64335 14.4061C8.31405 14.1317 8.11112 13.7417 8.07206 13.3077C8.033 12.8724 8.16386 12.4495 8.44061 12.1179L15.6201 3.51337C15.8973 3.18114 16.2896 2.97646 16.725 2.937C16.776 2.93231 16.8267 2.92997 16.8771 2.92997C17.2576 2.92997 17.6213 3.06024 17.9123 3.30302C18.6004 3.87958 18.6935 4.90614 18.1176 5.59403L10.939 14.2026ZM15.0877 13.802L18.4674 9.74892L23.5016 13.9528L20.1244 18.0038L15.0877 13.802ZM20.6785 29.6417L24.1514 32.5362C21.9383 35.1966 20.2207 38.2636 19.1111 41.5331C18.4711 41.4376 17.8193 41.3888 17.1603 41.3888C16.1963 41.3888 15.249 41.4964 14.3297 41.6987C15.5758 37.2819 17.7371 33.1724 20.6785 29.6417ZM10.0047 61.5907C8.09296 59.679 7.04003 57.1376 7.04003 54.4347C7.04003 51.7321 8.09276 49.1925 10.0047 47.2829C11.9162 45.3712 14.4576 44.3183 17.1603 44.3183C19.8627 44.3183 22.4023 45.371 24.3111 47.2821C24.3115 47.2825 24.3119 47.2829 24.3125 47.2835C26.2236 49.1923 27.2764 51.7319 27.2764 54.4345C27.2764 57.1374 26.2234 59.6788 24.3117 61.5905C20.3693 65.5329 13.9512 65.5325 10.0047 61.5907ZM36.5885 79.3563V82.0685C31.3576 80.5229 26.5871 77.695 22.7047 73.8124C20.7816 71.8892 19.1201 69.7602 17.7441 67.4614C19.3412 67.3905 20.9262 67.0259 22.4144 66.3731C23.4293 67.8841 24.5973 69.3071 25.9033 70.6136C28.9736 73.6839 32.7166 76.0065 36.7986 77.3934C36.6621 78.0266 36.5885 78.6829 36.5885 79.3563ZM52.2717 88.9614H39.5182V79.3565C39.5182 75.8403 42.3787 72.9796 45.8947 72.9796C49.4109 72.9796 52.2715 75.8403 52.2715 79.3565V88.9614H52.2717ZM69.0953 73.8132C65.2146 77.6985 60.4406 80.5284 55.2014 82.0745V79.3563C55.2014 78.6849 55.1281 78.0306 54.9926 77.3991C59.0814 76.0116 62.8297 73.6868 65.9031 70.6136C67.2324 69.2841 68.4205 67.8362 69.4437 66.3009H74.7203C73.224 69.0497 71.3391 71.5694 69.0953 73.8132Z" fill="#254F91"/>
</svg>
