<svg width="100" height="100" viewBox="0 0 100 100" fill="none" xmlns="http://www.w3.org/2000/svg">
<path d="M50 58.5325C51.8034 58.5325 53.5664 57.9978 55.0659 56.9958C56.5654 55.9939 57.7341 54.5698 58.4242 52.9036C59.1144 51.2374 59.295 49.404 58.9431 47.6353C58.5913 45.8665 57.7229 44.2417 56.4476 42.9665C55.1724 41.6913 53.5477 40.8228 51.7789 40.471C50.0101 40.1192 48.1767 40.2997 46.5106 40.9899C44.8444 41.68 43.4203 42.8488 42.4184 44.3483C41.4164 45.8478 40.8817 47.6107 40.8817 49.4142C40.8844 51.8317 41.846 54.1494 43.5554 55.8588C45.2648 57.5682 47.5825 58.5298 50 58.5325ZM50 42.6395C51.3399 42.6395 52.6497 43.0369 53.7638 43.7813C54.8778 44.5257 55.7462 45.5837 56.2589 46.8216C56.7717 48.0595 56.9058 49.4217 56.6444 50.7358C56.383 52.05 55.7378 53.2571 54.7904 54.2045C53.8429 55.152 52.6358 55.7972 51.3217 56.0586C50.0075 56.32 48.6454 56.1859 47.4075 55.6731C46.1696 55.1603 45.1115 54.292 44.3671 53.1779C43.6227 52.0639 43.2254 50.7541 43.2254 49.4142C43.2274 47.618 43.9418 45.8961 45.2119 44.626C46.4819 43.356 48.2039 42.6416 50 42.6395Z" fill="#254F91"/>
<path d="M39.0494 58.5271C39.7415 59.3732 40.536 60.13 41.4146 60.7803L41.3613 62.5916C41.3542 62.834 41.4224 63.0727 41.5567 63.2747C41.6909 63.4766 41.8845 63.632 42.1107 63.7193L46.2035 65.299C46.4288 65.3858 46.6755 65.4009 46.9097 65.3422C47.1439 65.2835 47.3543 65.1539 47.5121 64.9711L48.6904 63.6055C49.7761 63.6988 50.8688 63.6705 51.9482 63.5211L53.2105 64.8373C53.3766 65.0104 53.5917 65.1284 53.827 65.1754C54.0622 65.2223 54.3062 65.1959 54.5259 65.0998L58.547 63.3406C58.7692 63.2434 58.9558 63.0797 59.081 62.872C59.2062 62.6643 59.2638 62.4229 59.2461 62.1811L59.1125 60.3646C59.9585 59.6726 60.7154 58.8781 61.3656 57.9994L63.1769 58.0527C63.4193 58.0595 63.6578 57.9912 63.8597 57.857C64.0616 57.7228 64.2171 57.5294 64.3046 57.3033L65.8841 53.2105C65.971 52.9853 65.9862 52.7386 65.9275 52.5044C65.8689 52.2702 65.7394 52.0598 65.5566 51.902L64.1912 50.7234C64.2845 49.6376 64.2562 48.5448 64.1068 47.4652L65.423 46.2031C65.5961 46.0371 65.7141 45.8219 65.7611 45.5867C65.808 45.3514 65.7816 45.1075 65.6855 44.8877L63.9263 40.8666C63.8291 40.6444 63.6654 40.4579 63.4577 40.3327C63.25 40.2075 63.0086 40.1498 62.7668 40.1676L60.9504 40.3012C60.2582 39.4552 59.4638 38.6984 58.5853 38.048L58.6386 36.2367C58.6458 35.9943 58.5775 35.7556 58.4432 35.5536C58.3089 35.3516 58.1153 35.1963 57.889 35.109L53.7963 33.5293C53.5709 33.4425 53.3243 33.4274 53.09 33.4861C52.8558 33.5448 52.6454 33.6744 52.4877 33.8572L51.3093 35.2229C50.2235 35.1296 49.1306 35.1579 48.051 35.3072L46.7886 33.991C46.6226 33.8179 46.4074 33.6999 46.1722 33.6529C45.937 33.606 45.693 33.6324 45.4732 33.7285L41.4523 35.4883C41.2302 35.5855 41.0436 35.7492 40.9184 35.9569C40.7932 36.1646 40.7355 36.406 40.7533 36.6479L40.8869 38.4643C40.0408 39.1563 39.284 39.9508 38.6338 40.8295L36.8225 40.7762C36.5801 40.7696 36.3417 40.838 36.1398 40.9722C35.9379 41.1063 35.7825 41.2996 35.6947 41.5256L34.1152 45.6184C34.0284 45.8437 34.0132 46.0903 34.0719 46.3245C34.1306 46.5588 34.2602 46.7692 34.443 46.927L35.8086 48.1055C35.7152 49.1912 35.7435 50.284 35.893 51.3635L34.5767 52.6256C34.4036 52.7916 34.2856 53.0068 34.2386 53.2421C34.1917 53.4774 34.2181 53.7214 34.3142 53.9412L36.0738 57.9621C36.1709 58.1844 36.3345 58.371 36.5422 58.4962C36.7499 58.6214 36.9913 58.679 37.2332 58.6611L39.0494 58.5271ZM38.3008 51.573C38.0711 50.3182 38.0382 49.0353 38.2031 47.7703C38.2281 47.578 38.205 47.3824 38.1358 47.2012C38.0666 47.02 37.9535 46.8588 37.8066 46.732L36.6004 45.6912L37.5842 43.1422L39.1965 43.1896C39.395 43.1949 39.5917 43.1498 39.7682 43.0587C39.9447 42.9675 40.0953 42.8333 40.206 42.6684C40.9062 41.6169 41.7839 40.6953 42.8 39.9447C42.959 39.8271 43.0857 39.6711 43.1682 39.4914C43.2507 39.3116 43.2864 39.1139 43.2719 38.9166L43.1531 37.3023L45.665 36.2035L46.7859 37.3723C46.9201 37.5122 47.0868 37.6166 47.2713 37.6762C47.4557 37.7358 47.6521 37.7488 47.8427 37.7139C49.0977 37.4844 50.3808 37.4514 51.6459 37.6162C51.8383 37.6413 52.0339 37.6181 52.2151 37.5489C52.3964 37.4797 52.5576 37.3666 52.6843 37.2197L53.7248 36.0135L56.2738 36.9973L56.2263 38.6098C56.2205 38.8085 56.2653 39.0054 56.3565 39.182C56.4478 39.3586 56.5824 39.5091 56.7478 39.6193C57.7992 40.3194 58.7207 41.197 59.4713 42.2129C59.5888 42.3721 59.7447 42.4989 59.9245 42.5814C60.1043 42.664 60.3021 42.6996 60.4994 42.685L62.1136 42.5664L63.2125 45.0781L62.0437 46.199C61.9038 46.3332 61.7994 46.4999 61.7398 46.6843C61.6802 46.8687 61.6672 47.065 61.7021 47.2557C61.9317 48.5105 61.9647 49.7934 61.7998 51.0584C61.7748 51.2507 61.7979 51.4462 61.8671 51.6274C61.9363 51.8086 62.0494 51.9698 62.1963 52.0965L63.4021 53.1373L62.4183 55.6865L60.806 55.6391C60.6074 55.6335 60.4106 55.6785 60.2341 55.7696C60.0575 55.8608 59.9069 55.9952 59.7964 56.1603C59.0963 57.2118 58.2186 58.1334 57.2025 58.884C57.0435 59.0016 56.9168 59.1576 56.8343 59.3373C56.7518 59.5171 56.7161 59.7148 56.7306 59.9121L56.8494 61.5264L54.3359 62.6246L53.215 61.4559C53.0809 61.3159 52.9141 61.2114 52.7297 61.1517C52.5452 61.0921 52.3488 61.0792 52.1582 61.1143C50.9034 61.344 49.6205 61.3769 48.3556 61.2119C48.1633 61.1872 47.9678 61.2104 47.7866 61.2796C47.6053 61.3488 47.4441 61.4617 47.3172 61.6084L46.2767 62.8146L43.7277 61.8309L43.7752 60.2184C43.781 60.0197 43.7363 59.8228 43.6451 59.6462C43.5539 59.4696 43.4193 59.319 43.2539 59.2088C42.2025 58.5088 41.2808 57.6312 40.5303 56.6152C40.4127 56.4562 40.2567 56.3295 40.0769 56.2469C39.8972 56.1644 39.6994 56.1287 39.5021 56.1432L37.8879 56.2617L36.7889 53.75L37.9576 52.6291C38.0977 52.4952 38.2023 52.3286 38.2622 52.1443C38.3221 51.96 38.3353 51.7637 38.3008 51.573Z" fill="#254F91"/>
<path d="M50 91.7759C50.8648 91.7759 51.7102 91.5195 52.4292 91.039C53.1483 90.5586 53.7087 89.8757 54.0396 89.0767C54.3706 88.2778 54.4572 87.3986 54.2885 86.5504C54.1197 85.7023 53.7033 84.9232 53.0918 84.3117C52.4803 83.7002 51.7012 83.2837 50.853 83.115C50.0049 82.9463 49.1257 83.0329 48.3267 83.3638C47.5278 83.6948 46.8449 84.2552 46.3645 84.9743C45.884 85.6933 45.6276 86.5387 45.6276 87.4035C45.6289 88.5627 46.09 89.6741 46.9097 90.4938C47.7294 91.3135 48.8408 91.7746 50 91.7759ZM50 85.3748C50.4013 85.3748 50.7935 85.4937 51.1271 85.7167C51.4607 85.9396 51.7207 86.2564 51.8743 86.6271C52.0278 86.9978 52.068 87.4057 51.9897 87.7992C51.9115 88.1928 51.7182 88.5543 51.4345 88.838C51.1508 89.1217 50.7893 89.3149 50.3958 89.3932C50.0023 89.4715 49.5944 89.4313 49.2237 89.2777C48.853 89.1242 48.5361 88.8642 48.3132 88.5305C48.0903 88.1969 47.9713 87.8047 47.9713 87.4035C47.972 86.8656 48.1859 86.35 48.5662 85.9697C48.9466 85.5894 49.4622 85.3754 50 85.3748Z" fill="#254F91"/>
<path d="M28.9062 21.2382C29.2171 21.2382 29.5151 21.1147 29.7349 20.8949C29.9547 20.6752 30.0781 20.3771 30.0781 20.0663V19.0741C30.0781 18.7633 29.9547 18.4652 29.7349 18.2455C29.5151 18.0257 29.2171 17.9022 28.9062 17.9022C28.5954 17.9022 28.2974 18.0257 28.0776 18.2455C27.8578 18.4652 27.7344 18.7633 27.7344 19.0741V20.0663C27.7344 20.3771 27.8578 20.6752 28.0776 20.8949C28.2974 21.1147 28.5954 21.2382 28.9062 21.2382Z" fill="#254F91"/>
<path d="M28.9062 34.5648C29.2171 34.5648 29.5151 34.4414 29.7349 34.2216C29.9547 34.0018 30.0781 33.7038 30.0781 33.393V23.942C30.0781 23.6312 29.9547 23.3331 29.7349 23.1134C29.5151 22.8936 29.2171 22.7701 28.9062 22.7701C28.5954 22.7701 28.2974 22.8936 28.0776 23.1134C27.8578 23.3331 27.7344 23.6312 27.7344 23.942V33.393C27.7344 33.7038 27.8578 34.0018 28.0776 34.2216C28.2974 34.4414 28.5954 34.5648 28.9062 34.5648Z" fill="#254F91"/>
<path d="M82.8048 50.5859C83.0307 51.6773 83.5723 52.6783 84.3623 53.4645C85.2635 54.365 86.4393 54.9393 87.7036 55.0963C88.968 55.2534 90.2486 54.9844 91.3428 54.3317C92.4369 53.6791 93.2822 52.6802 93.7448 51.4931C94.2074 50.306 94.2609 48.9985 93.8968 47.7776C93.5327 46.5567 92.7718 45.4921 91.7345 44.7523C90.6973 44.0125 89.4429 43.6398 88.17 43.6931C86.8971 43.7464 85.6783 44.2227 84.7066 45.0467C83.7348 45.8706 83.0656 46.9951 82.8048 48.2422H76.7578V38.7832C77.058 38.0677 77.2126 37.2994 77.2123 36.5234C77.2115 35.5989 77.5753 34.7113 78.2246 34.0532C78.874 33.3951 79.7566 33.0195 80.681 33.0078H81.781C81.9864 34.1124 82.5308 35.1256 83.3384 35.9066C84.1392 36.7053 85.1586 37.2488 86.268 37.4684C87.3775 37.688 88.5271 37.5738 89.5717 37.1404C90.6162 36.7069 91.5089 35.9736 92.137 35.033C92.765 34.0925 93.1002 32.9869 93.1002 31.856C93.1002 30.725 92.765 29.6194 92.137 28.6789C91.5089 27.7383 90.6162 27.005 89.5717 26.5716C88.5271 26.1381 87.3775 26.024 86.268 26.2435C85.1586 26.4631 84.1392 27.0066 83.3384 27.8053C82.5695 28.5992 82.0312 29.5875 81.781 30.6641H80.681C79.2243 30.6656 77.8224 31.2193 76.7578 32.2135V11.7188C76.7578 9.33595 75.8112 7.05073 74.1263 5.36584C72.4414 3.68094 70.1562 2.73438 67.7734 2.73438H32.2266C29.8438 2.73438 27.5585 3.68094 25.8736 5.36584C24.1887 7.05073 23.2422 9.33595 23.2422 11.7188V32.2135C22.1776 31.2193 20.7756 30.6656 19.3189 30.6641H18.2189C17.9688 29.5876 17.4304 28.5996 16.6615 27.8059C15.8595 26.999 14.8359 26.4484 13.7205 26.224C12.6052 25.9995 11.4483 26.1112 10.3966 26.5451C9.34482 26.9789 8.44556 27.7152 7.81277 28.6607C7.17999 29.6062 6.84219 30.7183 6.84219 31.856C6.84219 32.9937 7.17999 34.1057 7.81277 35.0512C8.44556 35.9967 9.34482 36.7331 10.3966 37.1669C11.4483 37.6007 12.6052 37.7124 13.7205 37.488C14.8359 37.2635 15.8595 36.7129 16.6615 35.9061C17.4691 35.1252 18.0135 34.1122 18.2189 33.0078H19.3189C20.2434 33.0195 21.126 33.3951 21.7753 34.0532C22.4247 34.7113 22.7884 35.5989 22.7877 36.5234C22.7874 37.2994 22.9419 38.0677 23.2422 38.7832V48.2422H17.1951C16.9343 46.9953 16.2652 45.8711 15.2935 45.0473C14.3219 44.2236 13.1033 43.7474 11.8306 43.6941C10.5578 43.6409 9.3037 44.0136 8.26664 44.7533C7.22958 45.493 6.46883 46.5574 6.10478 47.7781C5.74073 48.9988 5.79419 50.3061 6.25668 51.493C6.71918 52.6799 7.56429 53.6786 8.65828 54.3312C9.75227 54.9838 11.0326 55.2529 12.2968 55.0959C13.5609 54.9389 14.7366 54.3648 15.6377 53.4645C16.4277 52.6783 16.9692 51.6773 17.1951 50.5859H23.2422V60.0449C22.9419 60.7605 22.7874 61.5287 22.7877 62.3047C22.7884 63.2292 22.4247 64.1168 21.7753 64.7749C21.126 65.433 20.2434 65.8086 19.3189 65.8203H18.2189C18.0135 64.7157 17.4692 63.7025 16.6615 62.9215C15.8617 62.128 14.8449 61.589 13.7393 61.3725C12.6337 61.156 11.4887 61.2716 10.4487 61.7048C9.40866 62.138 8.52015 62.8694 7.89515 63.8067C7.27016 64.7441 6.93664 65.8455 6.93664 66.9722C6.93664 68.0988 7.27016 69.2002 7.89515 70.1376C8.52015 71.075 9.40866 71.8064 10.4487 72.2396C11.4887 72.6728 12.6337 72.7884 13.7393 72.5719C14.8449 72.3553 15.8617 71.8164 16.6615 71.0229C17.4304 70.2289 17.9688 69.2407 18.2189 68.1641H19.3189C20.7756 68.1625 22.1776 67.6089 23.2422 66.6146V88.0859C23.2422 90.4687 24.1887 92.754 25.8736 94.4389C27.5585 96.1237 29.8438 97.0703 32.2266 97.0703H67.7734C70.1562 97.0703 72.4414 96.1237 74.1263 94.4389C75.8112 92.754 76.7578 90.4687 76.7578 88.0859V66.6146C77.8224 67.6089 79.2243 68.1625 80.681 68.1641H81.781C82.0312 69.2405 82.5695 70.2285 83.3384 71.0223C84.1399 71.8257 85.1617 72.3733 86.2745 72.5957C87.3874 72.8181 88.5411 72.7054 89.5899 72.2718C90.6386 71.8381 91.535 71.1031 92.1658 70.1597C92.7966 69.2163 93.1333 68.107 93.1333 66.9722C93.1333 65.8373 92.7966 64.728 92.1658 63.7846C91.535 62.8413 90.6386 62.1062 89.5899 61.6726C88.5411 61.2389 87.3874 61.1262 86.2745 61.3486C85.1617 61.5711 84.1399 62.1186 83.3384 62.9221C82.5308 63.7029 81.9865 64.7159 81.781 65.8203H80.681C79.7566 65.8086 78.874 65.433 78.2246 64.7749C77.5753 64.1168 77.2115 63.2292 77.2123 62.3047C77.2126 61.5287 77.058 60.7605 76.7578 60.0449V50.5859H82.8048ZM86.0195 47.0211C86.4927 46.5477 87.0957 46.2253 87.7522 46.0946C88.4087 45.9639 89.0892 46.0309 89.7077 46.287C90.3261 46.5431 90.8547 46.9769 91.2266 47.5334C91.5985 48.09 91.797 48.7443 91.797 49.4137C91.797 50.083 91.5985 50.7374 91.2266 51.2939C90.8547 51.8505 90.3261 52.2842 89.7077 52.5404C89.0892 52.7965 88.4087 52.8634 87.7522 52.7327C87.0957 52.6021 86.4927 52.2796 86.0195 51.8062C85.386 51.1711 85.0303 50.3107 85.0303 49.4137C85.0303 48.5166 85.386 47.6562 86.0195 47.0211ZM84.9957 29.4836C85.469 29.0103 86.072 28.6879 86.7285 28.5573C87.385 28.4267 88.0655 28.4937 88.6839 28.7499C89.3024 29.006 89.8309 29.4398 90.2028 29.9964C90.5747 30.5529 90.7732 31.2073 90.7732 31.8767C90.7732 32.546 90.5747 33.2004 90.2028 33.7569C89.8309 34.3135 89.3024 34.7473 88.6839 35.0034C88.0655 35.2596 87.385 35.3266 86.7285 35.196C86.072 35.0654 85.469 34.7431 84.9957 34.2697C84.361 33.635 84.0045 32.7742 84.0045 31.8767C84.0045 30.9791 84.361 30.1183 84.9957 29.4836ZM15.0043 34.2697C14.4505 34.8233 13.722 35.1676 12.9427 35.2442C12.1635 35.3208 11.3818 35.1248 10.7309 34.6897C10.08 34.2546 9.60003 33.6072 9.37288 32.8579C9.14574 32.1086 9.18544 31.3037 9.4852 30.5804C9.78497 29.857 10.3263 29.26 11.0169 28.891C11.7074 28.5221 12.5046 28.404 13.2725 28.5568C14.0404 28.7097 14.7316 29.1241 15.2282 29.7295C15.7248 30.3348 15.9962 31.0936 15.9961 31.8766C15.9955 32.7742 15.6388 33.6349 15.0043 34.2697ZM13.9805 51.807C13.5073 52.2799 12.9046 52.6019 12.2485 52.7322C11.5924 52.8626 10.9123 52.7955 10.2944 52.5394C9.6764 52.2833 9.14822 51.8498 8.77662 51.2935C8.40502 50.7373 8.20669 50.0834 8.20669 49.4145C8.20669 48.7455 8.40502 48.0916 8.77662 47.5354C9.14822 46.9792 9.6764 46.5456 10.2944 46.2895C10.9123 46.0334 11.5924 45.9663 12.2485 46.0967C12.9046 46.227 13.5073 46.549 13.9805 47.0219C14.6139 47.657 14.9697 48.5174 14.9697 49.4145C14.9697 50.3115 14.6139 51.1719 13.9805 51.807ZM15.0043 69.3445C14.5311 69.8175 13.9284 70.1395 13.2722 70.2699C12.6161 70.4003 11.936 70.3332 11.3179 70.0771C10.6999 69.821 10.1717 69.3874 9.80004 68.8312C9.4284 68.2749 9.23004 67.6209 9.23004 66.952C9.23004 66.283 9.4284 65.629 9.80004 65.0727C10.1717 64.5165 10.6999 64.0829 11.3179 63.8268C11.936 63.5707 12.6161 63.5036 13.2722 63.634C13.9284 63.7644 14.5311 64.0864 15.0043 64.5594C15.6387 65.194 15.995 66.0546 15.995 66.952C15.995 67.8493 15.6387 68.7099 15.0043 69.3445ZM25.5859 41.5256C26.4913 42.0864 27.5352 42.3832 28.6002 42.3828H29.7342C29.1709 43.9841 28.8036 45.6478 28.6404 47.3375C28.6096 47.6488 28.5873 47.9326 28.5701 48.2422H25.5859V41.5256ZM25.5859 50.5859H28.567C28.6647 52.5869 29.0616 54.5619 29.7443 56.4453H28.6002C27.5352 56.4449 26.4913 56.7418 25.5859 57.3025V50.5859ZM74.414 88.2092C74.414 91.8707 71.4629 94.9219 67.8011 94.9219H32.1988C28.5371 94.9219 25.5859 91.8707 25.5859 88.2092V81.25H74.414V88.2092ZM74.414 78.9062H25.5859V60.5832C25.8839 60.0435 26.3201 59.5928 26.8498 59.2775C27.3796 58.9622 27.9837 58.7936 28.6002 58.7891H30.7291C32.3327 62.0724 34.7487 64.8914 37.7478 66.9788C40.7469 69.0662 44.2295 70.3527 47.8654 70.7162C48.5824 70.7869 49.2969 70.8352 50.008 70.8352C54.0159 70.8184 57.9393 69.6816 61.3353 67.553C64.7313 65.4245 67.4647 62.3889 69.2267 58.7891H71.3998C72.0162 58.7936 72.6204 58.9622 73.1501 59.2775C73.6799 59.5928 74.1161 60.0435 74.414 60.5832V78.9062ZM30.9726 47.541C31.3431 43.7839 32.8193 40.221 35.2147 37.3028C37.6101 34.3847 40.817 32.2424 44.4299 31.1469C48.0428 30.0513 51.8995 30.0518 55.5121 31.1481C59.1248 32.2444 62.3312 34.3874 64.726 37.3061C67.1207 40.2248 68.5962 43.788 68.9658 47.5452C69.3354 51.3024 68.5825 55.0849 66.8025 58.4142C65.0224 61.7436 62.295 64.4703 58.9652 66.2496C55.6354 68.0289 51.8528 68.7809 48.0957 68.4103C45.5948 68.1804 43.1646 67.456 40.9459 66.2792C38.7273 65.1024 36.7646 63.4967 35.1716 61.5552C33.5786 59.6136 32.3871 57.375 31.6663 54.9693C30.9455 52.5636 30.7097 50.0386 30.9726 47.541ZM74.414 57.3025C73.5087 56.7418 72.4647 56.4449 71.3998 56.4453H70.2035C70.7667 54.8439 71.134 53.1803 71.2972 51.4906C71.3281 51.1793 71.3504 50.8955 71.3676 50.5859H74.414V57.3025ZM74.414 48.2422H71.3707C71.2728 46.2413 70.876 44.2662 70.1933 42.3828H71.3998C72.4647 42.3832 73.5087 42.0864 74.414 41.5256V48.2422ZM74.414 38.2449C74.1161 38.7846 73.6799 39.2353 73.1501 39.5506C72.6204 39.8659 72.0162 40.0345 71.3998 40.0391H69.2084C67.4453 36.4364 64.7066 33.4008 61.3038 31.2776C57.9009 29.1543 53.9705 28.0287 49.9596 28.0287C45.9486 28.0287 42.0182 29.1543 38.6153 31.2776C35.2125 33.4008 32.4738 36.4364 30.7107 40.0391H28.6002C27.9837 40.0345 27.3796 39.8659 26.8498 39.5506C26.3201 39.2353 25.8839 38.7846 25.5859 38.2449V16.2109H74.414V38.2449ZM74.414 13.8672H25.5859V11.7908C25.5859 8.1293 28.5371 5.07812 32.1988 5.07812H67.8011C71.4629 5.07812 74.414 8.1293 74.414 11.7908V13.8672ZM84.9957 64.5584C85.5493 64.0047 86.2778 63.6602 87.057 63.5834C87.8363 63.5066 88.618 63.7024 89.269 64.1374C89.9201 64.5724 90.4001 65.2197 90.6275 65.969C90.8548 66.7182 90.8152 67.5231 90.5156 68.2465C90.216 68.9699 89.6748 69.5671 88.9843 69.9362C88.2938 70.3053 87.4966 70.4236 86.7287 70.2708C85.9607 70.1181 85.2695 69.7038 84.7727 69.0986C84.276 68.4933 84.0045 67.7346 84.0045 66.9516C84.0039 66.507 84.0911 66.0668 84.2612 65.6561C84.4313 65.2454 84.6809 64.8723 84.9957 64.5584Z" fill="#254F91"/>
</svg>
