<svg width="100" height="100" viewBox="0 0 100 100" fill="none" xmlns="http://www.w3.org/2000/svg">
<path d="M93.1965 86.3931C91.9067 86.3931 90.6996 86.754 89.6706 87.3799L62.1406 59.8497C62.0927 59.8017 62.0419 59.7587 61.9898 59.7181C64.1469 57.0622 65.4428 53.6801 65.4428 50C65.4428 46.3246 64.1501 42.9469 61.9983 40.2924L80.7646 21.5261C82.7793 23.0605 85.2909 23.9741 88.013 23.9741C94.6227 23.9741 100 18.5968 100 11.987C100 5.37732 94.6227 0 88.013 0C81.4032 0 76.0259 5.37732 76.0259 11.987C76.0259 14.7091 76.9395 17.2207 78.4739 19.2352L59.7076 38.0015C57.0531 35.8499 53.6754 34.5572 50 34.5572C46.3246 34.5572 42.9469 35.8499 40.2924 38.0017L31.6266 29.3359C32.2525 28.3069 32.6134 27.0998 32.6134 25.8099C32.6134 22.0585 29.5613 19.0065 25.8099 19.0065C22.0585 19.0065 19.0065 22.0585 19.0065 25.8099C19.0065 29.5613 22.0585 32.6134 25.8099 32.6134C27.0998 32.6134 28.3069 32.2525 29.3359 31.6266L38.0017 40.2924C35.8499 42.9469 34.5572 46.3246 34.5572 50C34.5572 52.0847 34.9747 54.073 35.7268 55.889L15.1212 67.0503C13.5553 65.1469 11.1827 63.9309 8.53132 63.9309C3.82721 63.9309 0 67.7581 0 72.4622C0 77.1663 3.82721 80.9935 8.53132 80.9935C13.2354 80.9935 17.0626 77.1663 17.0626 72.4622C17.0626 71.5687 16.924 70.7071 16.668 69.8972L37.2745 58.7354C40.0616 62.7827 44.7251 65.4428 50 65.4428C50.5918 65.4428 51.1749 65.4061 51.7497 65.3408L53.8972 75.0045C51.6542 76.1179 50.108 78.432 50.108 81.1015C50.108 84.8529 53.16 87.905 56.9114 87.905C60.6628 87.905 63.7149 84.8529 63.7149 81.1015C63.7149 77.3998 60.7428 74.3812 57.0598 74.3017L54.9121 64.6371C56.6775 64.0432 58.3015 63.1404 59.7184 61.9898C59.759 62.0419 59.8019 62.0927 59.8499 62.1406L87.3799 89.6706C86.754 90.6996 86.3931 91.9067 86.3931 93.1965C86.3931 96.9479 89.4451 100 93.1965 100C96.9479 100 100 96.9479 100 93.1965C100 89.4451 96.9479 86.3931 93.1965 86.3931ZM8.53132 77.7538C5.61361 77.7538 3.23974 75.3799 3.23974 72.4622C3.23974 69.5445 5.61361 67.1706 8.53132 67.1706C11.449 67.1706 13.8229 69.5445 13.8229 72.4622C13.8229 75.3799 11.449 77.7538 8.53132 77.7538ZM60.4752 81.1015C60.4752 83.0665 58.8765 84.6652 56.9114 84.6652C54.9464 84.6652 53.3477 83.0665 53.3477 81.1015C53.3477 79.1365 54.9464 77.5378 56.9114 77.5378C58.8765 77.5378 60.4752 79.1365 60.4752 81.1015ZM88.013 3.23974C92.8363 3.23974 96.7603 7.16371 96.7603 11.987C96.7603 16.8104 92.8363 20.7343 88.013 20.7343C83.1896 20.7343 79.2657 16.8104 79.2657 11.987C79.2657 7.16371 83.1896 3.23974 88.013 3.23974ZM22.2462 25.8099C22.2462 23.8449 23.8449 22.2462 25.8099 22.2462C27.7749 22.2462 29.3736 23.8449 29.3736 25.8099C29.3736 27.7749 27.7749 29.3736 25.8099 29.3736C23.8449 29.3736 22.2462 27.7749 22.2462 25.8099ZM50 62.203C43.2713 62.203 37.797 56.7287 37.797 50C37.797 43.2713 43.2713 37.797 50 37.797C56.7287 37.797 62.203 43.2713 62.203 50C62.203 56.7287 56.7287 62.203 50 62.203ZM93.1965 96.7603C91.2315 96.7603 89.6328 95.1616 89.6328 93.1965C89.6328 91.2315 91.2315 89.6328 93.1965 89.6328C95.1616 89.6328 96.7603 91.2315 96.7603 93.1965C96.7603 95.1616 95.1616 96.7603 93.1965 96.7603Z" fill="#254F91"/>
<path d="M50 41.4686C49.1054 41.4686 48.3801 42.1939 48.3801 43.0885C48.3801 43.9831 49.1054 44.7084 50 44.7084C52.9177 44.7084 55.2916 47.0822 55.2916 49.9999C55.2916 50.8945 56.0168 51.6198 56.9114 51.6198C57.806 51.6198 58.5313 50.8945 58.5313 49.9999C58.5313 45.2958 54.7041 41.4686 50 41.4686Z" fill="#254F91"/>
<path d="M88.0129 10.1512C89.0252 10.1512 89.8488 10.9748 89.8488 11.9871C89.8488 12.8817 90.5741 13.607 91.4687 13.607C92.3633 13.607 93.0885 12.8817 93.0885 11.9871C93.0885 9.18839 90.8116 6.9115 88.0129 6.9115C87.1183 6.9115 86.3931 7.63677 86.3931 8.53137C86.3931 9.42597 87.1183 10.1512 88.0129 10.1512Z" fill="#254F91"/>
</svg>
