<svg width="100" height="100" viewBox="0 0 100 100" fill="none" xmlns="http://www.w3.org/2000/svg">
<g clip-path="url(#clip0)">
<path d="M28.857 31.3703H18.8687C18.2547 29.5381 16.5228 28.2135 14.4865 28.2135C11.9383 28.2135 9.86484 30.2867 9.86484 32.8352C9.86484 35.3836 11.9381 37.4568 14.4865 37.4568C16.5228 37.4568 18.2547 36.1324 18.8687 34.3H28.857C29.1 37.8402 30.2158 41.1438 31.991 43.9973H27.3691C26.7551 42.165 25.0232 40.8404 22.9869 40.8404C20.4387 40.8404 18.3652 42.9137 18.3652 45.4621C18.3652 48.0105 20.4385 50.0838 22.9869 50.0838C25.0232 50.0838 26.7551 48.7594 27.3691 46.927H34.1834C38.068 51.2822 43.7187 54.0297 50 54.0297C56.2812 54.0297 61.932 51.2822 65.8166 46.927H72.6309C73.2449 48.7592 74.9768 50.0838 77.0131 50.0838C79.5613 50.0838 81.6348 48.0105 81.6348 45.4621C81.6348 42.9137 79.5615 40.8404 77.0131 40.8404C74.9768 40.8404 73.2449 42.1648 72.6309 43.9973H68.0092C69.7842 41.1438 70.9002 37.8402 71.1432 34.3H81.1314C81.7455 36.1322 83.4773 37.4568 85.5137 37.4568C88.0619 37.4568 90.1354 35.3836 90.1354 32.8352C90.1354 30.2867 88.0621 28.2135 85.5137 28.2135C83.4773 28.2135 81.7455 29.5379 81.1314 31.3703H71.1432C70.9002 27.8301 69.7844 24.5266 68.0092 21.673H72.6309C73.2449 23.5053 74.9768 24.8299 77.0131 24.8299C79.5613 24.8299 81.6348 22.7566 81.6348 20.2082C81.6348 17.6598 79.5615 15.5865 77.0131 15.5865C74.9768 15.5865 73.2449 16.9109 72.6309 18.7434H65.8164C61.932 14.3881 56.2812 11.6406 50 11.6406C43.7187 11.6406 38.068 14.3881 34.1836 18.7434H27.3691C26.7551 16.9111 25.0232 15.5865 22.9869 15.5865C20.4387 15.5865 18.3652 17.6598 18.3652 20.2082C18.3652 22.7566 20.4385 24.8299 22.9869 24.8299C25.0232 24.8299 26.7551 23.5055 27.3691 21.673H31.9908C30.2158 24.5264 29.0998 27.8301 28.857 31.3703ZM22.9869 47.1541C22.0541 47.1541 21.2949 46.3951 21.2949 45.4621C21.2949 44.5291 22.0539 43.7701 22.9869 43.7701C23.9199 43.7701 24.6789 44.5291 24.6789 45.4621C24.6789 46.3951 23.9199 47.1541 22.9869 47.1541ZM77.0131 43.7703C77.9459 43.7703 78.7051 44.5293 78.7051 45.4623C78.7051 46.3953 77.9461 47.1543 77.0131 47.1543C76.0801 47.1543 75.3211 46.3953 75.3211 45.4623C75.3211 44.5293 76.0801 43.7703 77.0131 43.7703ZM77.0131 18.5162C77.9459 18.5162 78.7051 19.2752 78.7051 20.2082C78.7051 21.1412 77.9461 21.9002 77.0131 21.9002C76.0801 21.9002 75.3211 21.1412 75.3211 20.2082C75.3211 19.2752 76.0801 18.5162 77.0131 18.5162ZM22.9869 21.9C22.0541 21.9 21.2949 21.141 21.2949 20.208C21.2949 19.275 22.0539 18.516 22.9869 18.516C23.9199 18.516 24.6789 19.275 24.6789 20.208C24.6789 21.141 23.9199 21.9 22.9869 21.9ZM14.4865 34.527C13.5537 34.527 12.7945 33.768 12.7945 32.835C12.7945 31.902 13.5535 31.143 14.4865 31.143C15.4195 31.143 16.1785 31.902 16.1785 32.835C16.1785 33.768 15.4193 34.527 14.4865 34.527ZM85.5135 31.1432C86.4463 31.1432 87.2055 31.9021 87.2055 32.8352C87.2055 33.7682 86.4465 34.5271 85.5135 34.5271C84.5805 34.5271 83.8215 33.7682 83.8215 32.8352C83.8215 31.9021 84.5807 31.1432 85.5135 31.1432ZM50 14.5703C60.0713 14.5703 68.2648 22.7639 68.2648 32.8352C68.2648 42.9064 60.0713 51.1002 50 51.1002C39.9287 51.1002 31.7352 42.9066 31.7352 32.8352C31.7352 22.7639 39.9287 14.5703 50 14.5703Z" fill="#254F91"/>
<path d="M50 44.164C56.2474 44.164 61.3301 39.0822 61.3301 32.8359C61.3301 31.0927 60.9441 29.4193 60.1832 27.8626C59.8279 27.1357 58.9504 26.8345 58.2238 27.1898C57.4969 27.5451 57.1957 28.4224 57.551 29.1492C58.1144 30.3021 58.4002 31.5423 58.4002 32.8359C58.4002 37.4668 54.6318 41.2343 49.9998 41.2343C45.3678 41.2343 41.5994 37.4668 41.5994 32.8359C41.5994 32.2509 41.66 31.68 41.7742 31.1285C41.8424 31.2068 41.9129 31.2841 41.9885 31.3597C42.8894 32.2607 44.073 32.7111 45.2564 32.7111C46.44 32.7111 47.6234 32.2605 48.5244 31.3597C49.3973 30.4869 49.8781 29.3261 49.8781 28.0918C49.8781 26.8574 49.3975 25.6966 48.5246 24.8238C48.4502 24.7494 48.3728 24.6787 48.2941 24.6099C48.8451 24.4959 49.4156 24.4355 50 24.4355C51.193 24.4355 52.3463 24.6804 53.4279 25.1636C54.1664 25.4937 55.0328 25.1625 55.3629 24.4236C55.6928 23.6849 55.3617 22.8187 54.6228 22.4886C53.1629 21.8365 51.6076 21.5056 50 21.5056C43.7525 21.5056 38.6699 26.5882 38.6699 32.8357C38.6699 39.0824 43.7525 44.164 50 44.164ZM45.2566 26.3998C45.7086 26.3998 46.1334 26.5757 46.4529 26.8953C46.7725 27.2148 46.9484 27.6396 46.9484 28.0916C46.9484 28.5435 46.7725 28.9683 46.4529 29.2878C45.7934 29.9474 44.7199 29.9474 44.0603 29.2878C43.4377 28.6652 43.4033 27.6746 43.956 27.0105C44.0309 26.9328 44.1072 26.8568 44.185 26.782C44.4865 26.5345 44.8611 26.3998 45.2566 26.3998Z" fill="#254F91"/>
<path d="M92.6172 0H20.4805C19.6715 0 19.0156 0.655859 19.0156 1.46484C19.0156 2.27383 19.6715 2.92969 20.4805 2.92969H92.6172C95.0727 2.92969 97.0703 4.92734 97.0703 7.38281V62.7406H2.92969V7.38281C2.92969 4.92734 4.92734 2.92969 7.38281 2.92969H13.6445C14.4535 2.92969 15.1094 2.27383 15.1094 1.46484C15.1094 0.655859 14.4535 0 13.6445 0H7.38281C3.31191 0 0 3.31191 0 7.38281V70.125C0 74.1959 3.31191 77.5078 7.38281 77.5078H38.4512L34.5256 90.7568H25.9299C24.2518 90.7568 22.8865 92.1221 22.8865 93.8V96.9568C22.8865 98.635 24.2518 100 25.9299 100H74.0703C75.7484 100 77.1137 98.635 77.1137 96.9568V93.8C77.1137 92.1221 75.7484 90.7568 74.0703 90.7568H65.4746L61.5488 77.5078H72.6248C73.4338 77.5078 74.0896 76.852 74.0896 76.043C74.0896 75.234 73.4338 74.5781 72.6248 74.5781H59.6078C59.6074 74.5781 59.607 74.5781 59.6068 74.5781H7.38281C4.92734 74.5781 2.92969 72.5805 2.92969 70.125V65.6703H97.0703V70.125C97.0703 72.5805 95.0727 74.5781 92.6172 74.5781H79.4609C78.652 74.5781 77.9961 75.234 77.9961 76.043C77.9961 76.852 78.652 77.5078 79.4609 77.5078H92.6172C96.6881 77.5078 100 74.1959 100 70.125V7.38281C100 3.31191 96.6881 0 92.6172 0V0ZM74.1838 93.8V96.9568C74.1838 97.0195 74.1328 97.0705 74.0701 97.0705H25.9297C25.867 97.0705 25.816 97.0195 25.816 96.9568V93.8C25.816 93.7375 25.867 93.6865 25.9297 93.6865H74.0703C74.133 93.6865 74.1838 93.7375 74.1838 93.8ZM62.4189 90.7568H37.5811L41.5066 77.5078H58.4934L62.4189 90.7568Z" fill="#254F91"/>
</g>
<defs>
<clipPath id="clip0">
<rect width="100" height="100" fill="white"/>
</clipPath>
</defs>
</svg>
