<svg width="100" height="100" viewBox="0 0 100 100" fill="none" xmlns="http://www.w3.org/2000/svg">
<g clip-path="url(#clip0)">
<path d="M83.0506 26.6536H83.0451C81.9663 26.6536 81.0946 27.5282 81.0946 28.6068C81.0946 29.6854 81.9718 30.5601 83.0508 30.5601C84.1298 30.5601 85.0041 29.6854 85.0041 28.6068C85.0041 27.5282 84.1294 26.6536 83.0506 26.6536Z" fill="#254F91"/>
<path d="M85.5781 43.5504C85.5781 44.629 86.4553 45.5037 87.5343 45.5037C88.6133 45.5037 89.4876 44.629 89.4876 43.5504C89.4876 42.4718 88.6131 41.5972 87.5343 41.5972H87.5288C86.4499 41.5972 85.5781 42.4718 85.5781 43.5504Z" fill="#254F91"/>
<path d="M79.1769 35.2854H79.1715C78.0927 35.2854 77.2209 36.1601 77.2209 37.2387C77.2209 38.3172 78.0982 39.1919 79.1771 39.1919C80.2561 39.1919 81.1304 38.3172 81.1304 37.2387C81.1304 36.1601 80.2557 35.2854 79.1769 35.2854Z" fill="#254F91"/>
<path d="M99.5857 7.00551C99.7146 6.23886 99.3767 5.46869 98.7251 5.04464C92.7716 1.16957 81.9142 1.41079 75.8939 4.05082C71.9891 5.76031 70.019 8.60582 69.0381 10.8052C67.6581 10.636 66.2535 10.5476 64.8284 10.5476C64.8267 10.5476 64.8249 10.5476 64.8232 10.5476C64.7138 10.277 64.5974 10.0073 64.4734 9.73851C63.0215 6.59162 60.6565 3.6504 57.0305 0.482411C56.2179 -0.227598 54.984 -0.144389 54.2742 0.668166C53.5644 1.48053 53.6476 2.7144 54.46 3.42402C57.3379 5.93825 59.3878 8.36713 60.6461 10.7995C55.087 11.4709 49.8007 13.4792 45.1662 16.7089C39.8707 20.399 35.7634 25.4269 33.2265 31.3066C24.9441 31.6793 16.7716 35.0168 10.4609 41.3213C5.04468 46.7326 1.65987 53.5942 0.672892 61.1649C-0.282837 68.4949 1.17781 76.0606 4.78587 82.4683C5.3152 83.4082 6.50649 83.7414 7.4464 83.2121C8.38651 82.6827 8.71934 81.4917 8.1902 80.5517C1.51943 68.7048 3.58852 53.7093 13.222 44.0852C25.1136 32.2051 44.4626 32.2051 56.3542 44.0852C62.1158 49.8413 65.2882 57.4937 65.2875 65.6333C65.2871 69.4115 64.6019 73.0842 63.2922 76.5108C63.2496 76.6003 63.2123 76.6927 63.1836 76.789C61.6702 80.634 59.3667 84.1623 56.3538 87.1713C46.729 96.7919 31.7235 98.8635 19.8633 92.2088C18.9226 91.6814 17.7319 92.0158 17.2039 92.9563C16.6759 93.897 17.0107 95.0877 17.9514 95.6155C23.0795 98.4928 28.9463 99.9999 34.8395 99.9999C36.3169 99.9999 37.7961 99.9052 39.2656 99.7136C46.8389 98.7258 53.7031 95.3444 59.115 89.9348C62.2402 86.8141 64.688 83.197 66.3897 79.263C75.0327 78.8768 83.1026 75.3166 89.2356 69.1502C95.6843 62.6663 99.2359 54.0624 99.2359 44.9235C99.2359 35.8092 95.6659 27.5134 89.8514 21.3547C94.2127 17.8867 98.6784 12.4 99.5857 7.00551ZM95.3292 44.9235C95.3292 60.6644 83.2309 73.7202 67.8349 75.2434C68.7287 72.1604 69.1936 68.9332 69.194 65.6339C69.195 56.4501 65.6156 47.8157 59.1154 41.3215C53.0976 35.3096 45.3867 31.9967 37.502 31.3789C42.1808 22.0032 51.527 15.5963 61.9661 14.5953C62.4047 17.0251 62.0874 19.503 61.0378 22.1149C60.6354 23.1158 61.1208 24.2534 62.1218 24.6555C62.3607 24.7516 62.6072 24.7972 62.8496 24.7972C63.6237 24.7972 64.3563 24.3338 64.6626 23.5717C65.9039 20.4828 66.3121 17.4388 65.8893 14.4746C82.2179 15.035 95.3292 28.4773 95.3292 44.9235ZM86.9794 18.6413C83.0006 15.2887 78.2534 12.8202 73.0429 11.54C73.8351 10.163 75.1827 8.62652 77.4617 7.6288C82.0681 5.60874 90.4636 5.30286 95.4218 7.6661C94.2008 11.6814 90.5673 15.9204 86.9794 18.6413Z" fill="#254F91"/>
<path d="M13.5885 87.6792C13.106 86.7143 11.9358 86.3285 10.9705 86.8111C10.0056 87.2936 9.61728 88.4724 10.0997 89.4371C10.4419 90.1217 11.1318 90.5173 11.8485 90.5173C12.1419 90.5173 12.4401 90.4509 12.7204 90.3106C13.6853 89.8282 14.0764 88.6548 13.5939 87.6901L13.5885 87.6792Z" fill="#254F91"/>
<path d="M34.7852 90.5057C48.5166 90.5057 59.6881 79.3468 59.6881 65.6306C59.6881 51.9115 48.5166 40.75 34.7852 40.75C21.0569 40.75 9.888 51.9115 9.888 65.6306C9.888 79.347 21.0569 90.5057 34.7852 90.5057ZM32.8319 86.5078C28.509 86.1074 24.5619 84.3928 21.3966 81.7676L30.5734 72.5996C31.2656 73.019 32.0254 73.337 32.8319 73.536V86.5078ZM36.7387 86.5078V73.5362C37.5454 73.3374 38.3056 73.0196 38.9982 72.6006L48.1756 81.7692C45.0097 84.3936 41.0622 86.1076 36.7387 86.5078ZM50.9402 79.0091L41.7632 69.8409C42.1834 69.149 42.5019 68.3898 42.7014 67.5839H55.6896C55.2882 71.9033 53.5703 75.8469 50.9402 79.0091ZM55.6896 63.6773H42.7016C42.5023 62.8712 42.184 62.1116 41.7642 61.4196L50.9418 52.2508C53.5711 55.4135 55.2884 59.3575 55.6896 63.6773ZM36.7387 44.7481C41.0632 45.1485 45.0117 46.8637 48.1779 49.4899L39.0013 58.6577C38.3079 58.2375 37.5465 57.9189 36.7387 57.7197V44.7481ZM39.0335 65.6306C39.0335 67.9669 37.1278 69.8674 34.7852 69.8674C32.4458 69.8674 30.5427 67.9669 30.5427 65.6306C30.5427 63.2914 32.446 61.3883 34.7852 61.3883C37.1278 61.3883 39.0335 63.2914 39.0335 65.6306ZM32.8319 44.7481V57.7201C32.0245 57.9195 31.2635 58.2383 30.5705 58.6588L21.3943 49.4916C24.5599 46.8645 28.5078 45.1487 32.8319 44.7481ZM18.6312 52.2531L27.8095 61.4225C27.391 62.1138 27.0734 62.8724 26.8745 63.6773H13.8865C14.2877 59.3587 16.0037 55.4155 18.6312 52.2531ZM26.8747 67.5839C27.0737 68.3886 27.3915 69.1469 27.8105 69.8377L18.6327 79.0067C16.0044 75.845 14.2879 71.9023 13.8865 67.5839H26.8747Z" fill="#254F91"/>
</g>
<defs>
<clipPath id="clip0">
<rect width="100" height="100" fill="white"/>
</clipPath>
</defs>
</svg>
