<svg width="100" height="100" viewBox="0 0 100 100" fill="none" xmlns="http://www.w3.org/2000/svg">
<g clip-path="url(#clip0)">
<path d="M92.6172 0H20.4805C19.6715 0 19.0156 0.655859 19.0156 1.46484C19.0156 2.27383 19.6715 2.92969 20.4805 2.92969H92.6172C95.0727 2.92969 97.0703 4.92734 97.0703 7.38281V62.7406H2.92969V7.38281C2.92969 4.92734 4.92734 2.92969 7.38281 2.92969H13.6445C14.4535 2.92969 15.1094 2.27383 15.1094 1.46484C15.1094 0.655859 14.4535 0 13.6445 0H7.38281C3.31191 0 0 3.31191 0 7.38281V70.125C0 74.1959 3.31191 77.5078 7.38281 77.5078H38.4512L34.5256 90.7568H25.9299C24.2518 90.7568 22.8865 92.1221 22.8865 93.8V96.9568C22.8865 98.635 24.2518 100 25.9299 100H74.0703C75.7484 100 77.1137 98.635 77.1137 96.9568V93.8C77.1137 92.1221 75.7484 90.7568 74.0703 90.7568H65.4746L61.5488 77.5078H72.6248C73.4338 77.5078 74.0896 76.852 74.0896 76.043C74.0896 75.234 73.4338 74.5781 72.6248 74.5781H59.6078C59.6074 74.5781 59.607 74.5781 59.6068 74.5781H7.38281C4.92734 74.5781 2.92969 72.5805 2.92969 70.125V65.6703H97.0703V70.125C97.0703 72.5805 95.0727 74.5781 92.6172 74.5781H79.4609C78.652 74.5781 77.9961 75.234 77.9961 76.043C77.9961 76.852 78.652 77.5078 79.4609 77.5078H92.6172C96.6881 77.5078 100 74.1959 100 70.125V7.38281C100 3.31191 96.6881 0 92.6172 0V0ZM74.1838 93.8V96.9568C74.1838 97.0195 74.1328 97.0705 74.0701 97.0705H25.9297C25.867 97.0705 25.816 97.0195 25.816 96.9568V93.8C25.816 93.7375 25.867 93.6865 25.9297 93.6865H74.0703C74.133 93.6865 74.1838 93.7375 74.1838 93.8ZM62.4189 90.7568H37.5811L41.5066 77.5078H58.4934L62.4189 90.7568Z" fill="#254F91"/>
<path d="M21 15H29.5L30.9737 21M30.9737 21L36.5 43.5H66.5L70.5 21H30.9737Z" stroke="#254F91" stroke-width="2.5" stroke-linecap="round" stroke-linejoin="round"/>
<circle cx="42" cy="49" r="4.75" stroke="#254F91" stroke-width="2.5"/>
<circle cx="61" cy="49" r="4.75" stroke="#254F91" stroke-width="2.5"/>
</g>
<defs>
<clipPath id="clip0">
<rect width="100" height="100" fill="white"/>
</clipPath>
</defs>
</svg>
