<svg width="100" height="100" viewBox="0 0 100 100" fill="none" xmlns="http://www.w3.org/2000/svg">
<path d="M98.5352 94.326H94.7293V32.4582C94.7293 30.5114 93.1455 28.9276 91.1984 28.9276H78.6979C77.8889 28.9276 77.233 29.5834 77.233 30.3924C77.233 31.2014 77.8889 31.8572 78.6979 31.8572H91.1984C91.5299 31.8572 91.7996 32.1268 91.7996 32.4582V94.3262H73.3223V87.0145H84.4969C85.9902 87.0145 87.2055 85.7994 87.2055 84.3059V80.841C87.2055 79.3477 85.9904 78.1324 84.4969 78.1324H73.3223V73.8348H84.4969C85.9902 73.8348 87.2055 72.6197 87.2055 71.1262V67.6613C87.2055 66.168 85.9904 64.9528 84.4969 64.9528H73.3223V60.6551H84.4969C85.9902 60.6551 87.2055 59.4401 87.2055 57.9465V54.4819C87.2055 52.9883 85.9904 51.7733 84.4969 51.7733H73.3223V47.4756H84.4969C85.9902 47.4756 87.2055 46.2606 87.2055 44.767V41.3022C87.2055 39.8088 85.9904 38.5936 84.4969 38.5936H73.3223V18.9887C73.3223 17.5588 72.4691 16.2797 71.1494 15.7303L40.6184 3.00588C39.5689 2.56838 38.3779 2.68322 37.4324 3.31369C36.4865 3.94416 35.9219 4.99963 35.9219 6.13713V13.0012H28.1471V6.99885C28.1471 6.18986 27.4912 5.53401 26.6822 5.53401C25.8732 5.53401 25.2174 6.18986 25.2174 6.99885V13.0014H16.4283C14.4814 13.0014 12.8975 14.5852 12.8975 16.5322V21.1256H7.95898C6.01191 21.1256 4.42773 22.7088 4.42773 24.6549V84.8209H3.53125C1.58418 84.8209 0 86.4051 0 88.3522V93.7252C0 95.6723 1.58418 97.2565 3.53125 97.2565L98.5352 97.2559C99.3441 97.2559 100 96.6 100 95.791C100 94.9821 99.3441 94.326 98.5352 94.326ZM84.2758 81.0623V84.085H73.3223V81.0623H84.2758ZM84.2758 67.8826V70.9051H73.3223V67.8826H84.2758ZM84.2758 54.703V57.7256H73.3223V54.703H84.2758ZM84.2758 41.5235V44.5461H73.3223V41.5235H84.2758ZM38.8516 6.13713C38.8516 5.92092 38.9805 5.80276 39.0572 5.75139C39.1342 5.70041 39.2924 5.62678 39.4912 5.70998L56.7508 12.9033V78.8983C56.7508 79.7073 57.4066 80.3631 58.2156 80.3631C59.0246 80.3631 59.6805 79.7073 59.6805 78.8983V14.1242L70.023 18.4348C70.2477 18.5283 70.3928 18.7457 70.3928 18.9887L70.3922 94.3266H59.6805V85.7672C59.6805 84.9582 59.0246 84.3024 58.2156 84.3024C57.4066 84.3024 56.7508 84.9582 56.7508 85.7672V94.3266H49.5547V46.6723C49.5547 44.4895 47.7789 42.7135 45.5959 42.7135H38.8516V6.13713ZM45.5959 45.6432C46.1633 45.6432 46.625 46.1047 46.625 46.6723V94.3262H28.1471V46.6723C28.1471 46.1049 28.6086 45.6432 29.1762 45.6432H45.5959ZM25.2174 46.6723V57.0043H7.35742V45.6432H25.3578C25.2689 45.9721 25.2174 46.3158 25.2174 46.6723ZM7.35742 59.934H25.2174V71.2973H7.35742V59.934ZM15.8273 16.5321C15.8273 16.2006 16.0971 15.9309 16.4285 15.9309H35.9213V21.1248H15.8273V16.5321ZM7.95898 24.0551H35.9219V29.2033H17.7865C16.9775 29.2033 16.3217 29.8592 16.3217 30.6682C16.3217 31.4772 16.9775 32.133 17.7865 32.133H35.9219V42.7135H7.35742V32.133H10.9645C11.7734 32.133 12.4293 31.4772 12.4293 30.6682C12.4293 29.8592 11.7734 29.2033 10.9645 29.2033H7.35742V24.6547C7.35742 24.3242 7.62734 24.0551 7.95898 24.0551ZM7.35742 74.2272H25.2174V84.8209H7.35742V74.2272ZM3.53125 94.3266C3.19961 94.3266 2.92969 94.0569 2.92969 93.725V88.352C2.92969 88.0203 3.19961 87.7504 3.53125 87.7504H25.2174V94.3266H3.53125Z" fill="#254F91"/>
<path d="M33.9926 55.2889C34.8016 55.2889 35.4575 54.633 35.4575 53.824V50.6918C35.4575 49.8828 34.8016 49.2269 33.9926 49.2269C33.1836 49.2269 32.5278 49.8828 32.5278 50.6918V53.824C32.5278 54.633 33.1834 55.2889 33.9926 55.2889Z" fill="#254F91"/>
<path d="M40.7248 55.2889C41.5338 55.2889 42.1896 54.633 42.1896 53.824V50.6918C42.1896 49.8828 41.5338 49.2269 40.7248 49.2269C39.9158 49.2269 39.2599 49.8828 39.2599 50.6918V53.824C39.2599 54.633 39.9158 55.2889 40.7248 55.2889Z" fill="#254F91"/>
<path d="M33.9926 66.2328C34.8016 66.2328 35.4575 65.577 35.4575 64.768V61.6357C35.4575 60.8268 34.8016 60.1709 33.9926 60.1709C33.1836 60.1709 32.5278 60.8268 32.5278 61.6357V64.768C32.5278 65.577 33.1834 66.2328 33.9926 66.2328Z" fill="#254F91"/>
<path d="M40.7248 66.2328C41.5338 66.2328 42.1896 65.577 42.1896 64.768V61.6357C42.1896 60.8268 41.5338 60.1709 40.7248 60.1709C39.9158 60.1709 39.2599 60.8268 39.2599 61.6357V64.768C39.2599 65.577 39.9158 66.2328 40.7248 66.2328Z" fill="#254F91"/>
<path d="M33.9926 77.1768C34.8016 77.1768 35.4575 76.5209 35.4575 75.7119V72.5797C35.4575 71.7707 34.8016 71.1149 33.9926 71.1149C33.1836 71.1149 32.5278 71.7707 32.5278 72.5797V75.7119C32.5278 76.5209 33.1834 77.1768 33.9926 77.1768Z" fill="#254F91"/>
<path d="M40.7248 77.1768C41.5338 77.1768 42.1896 76.5209 42.1896 75.7119V72.5797C42.1896 71.7707 41.5338 71.1149 40.7248 71.1149C39.9158 71.1149 39.2599 71.7707 39.2599 72.5797V75.7119C39.2599 76.5209 39.9158 77.1768 40.7248 77.1768Z" fill="#254F91"/>
<path d="M33.9926 88.1208C34.8016 88.1208 35.4575 87.4649 35.4575 86.6559V83.5237C35.4575 82.7147 34.8016 82.0588 33.9926 82.0588C33.1836 82.0588 32.5278 82.7147 32.5278 83.5237V86.6559C32.5278 87.4649 33.1834 88.1208 33.9926 88.1208Z" fill="#254F91"/>
<path d="M40.7248 88.1208C41.5338 88.1208 42.1896 87.4649 42.1896 86.6559V83.5237C42.1896 82.7147 41.5338 82.0588 40.7248 82.0588C39.9158 82.0588 39.2599 82.7147 39.2599 83.5237V86.6559C39.2599 87.4649 39.9158 88.1208 40.7248 88.1208Z" fill="#254F91"/>
</svg>
