<svg width="100" height="100" viewBox="0 0 100 100" fill="none" xmlns="http://www.w3.org/2000/svg"><g clip-path="url(#clip0)" fill="#254F91"><path d="M81.348 47.366h8.291a5.273 5.273 0 100-2.735h-8.291V38.01H87.5a1.368 1.368 0 001.112-.57l4.265-5.96a5.267 5.267 0 10-2.225-1.588l-3.855 5.384h-5.45v-5.07a1.367 1.367 0 00-1.367-1.367c-2.115 0-4.175-.668-5.888-1.91l7.543-9.296a5.296 5.296 0 10-2.12-1.725l-7.414 9.14a10.051 10.051 0 01-2.224-6.307 1.368 1.368 0 00-1.367-1.367H31.49a1.368 1.368 0 00-1.368 1.367c0 2.295-.784 4.52-2.224 6.308l-7.413-9.142a5.281 5.281 0 10-2.12 1.725l7.542 9.297a10.037 10.037 0 01-5.887 1.91 1.367 1.367 0 00-1.368 1.367v5.07h-5.449L9.348 29.89a5.322 5.322 0 10-2.225 1.588l4.266 5.959a1.368 1.368 0 001.111.571h6.152v6.622h-8.291a5.274 5.274 0 100 2.735h8.291v7.707c0 .343.02.682.032 1.024h-6.77a1.367 1.367 0 00-1.222.754l-4.356 8.68a5.306 5.306 0 102.44 1.235l3.982-7.938h6.148a28.593 28.593 0 008.071 16.421l-8.864 7.585a5.308 5.308 0 101.776 2.08l9.13-7.813a28.54 28.54 0 002.122 1.614L49.23 91.059a1.378 1.378 0 001.54 0l18.09-12.344c.739-.504 1.44-1.05 2.122-1.614l9.13 7.812a5.271 5.271 0 101.776-2.08l-8.864-7.584a28.594 28.594 0 008.07-16.42h6.148l3.985 7.934a5.224 5.224 0 102.44-1.235l-4.357-8.68a1.368 1.368 0 00-1.221-.754h-6.77c.012-.342.031-.681.031-1.025l-.001-7.703zm13.379-3.907a2.539 2.539 0 110 5.078 2.539 2.539 0 010-5.078zm0-19.453a2.539 2.539 0 11-2.54 2.54 2.542 2.542 0 012.54-2.537v-.003zM2.734 26.548a2.54 2.54 0 115.08 0 2.54 2.54 0 01-5.08 0zm2.54 21.99a2.539 2.539 0 110-5.079 2.539 2.539 0 010 5.078zm0 24.698a2.54 2.54 0 110-5.08 2.54 2.54 0 010 5.08zm91.992-2.54a2.539 2.539 0 11-5.078.001 2.539 2.539 0 015.078 0zM83.78 10.28a2.54 2.54 0 110 5.078 2.54 2.54 0 010-5.078zm-70.1 2.539a2.54 2.54 0 115.078 0 2.54 2.54 0 01-5.078 0zm1.455 76.901a2.54 2.54 0 110-5.078 2.54 2.54 0 010 5.078zm52.182-13.263L50 88.273 32.683 76.457a25.871 25.871 0 01-11.296-21.384V31.5a12.986 12.986 0 0011.397-11.398h34.432A12.987 12.987 0 0078.613 31.5v23.573a25.87 25.87 0 01-11.296 21.384zm20.087 10.724a2.539 2.539 0 11-5.078 0 2.539 2.539 0 015.078 0z"/><path d="M73.535 36.363a1.368 1.368 0 00-.812-1.25 17.957 17.957 0 01-9.121-9.12 1.367 1.367 0 00-1.25-.813H37.648a1.368 1.368 0 00-1.25.812 17.957 17.957 0 01-9.121 9.122 1.368 1.368 0 00-.812 1.25v18.709a20.796 20.796 0 009.082 17.193l13.684 9.337a1.378 1.378 0 001.54 0l13.682-9.337a20.795 20.795 0 009.08-17.188l.002-18.715zm-2.734 18.71A18.061 18.061 0 0162.913 70L50 78.815 37.086 70a18.064 18.064 0 01-7.887-14.927V37.23a20.678 20.678 0 009.317-9.315h22.968a20.678 20.678 0 009.317 9.316v17.842z"/></g><defs><clipPath id="clip0"><path fill="#fff" d="M0 0h100v100H0z"/></clipPath></defs></svg>