<svg width="338" height="142" viewBox="0 0 338 142" fill="none" xmlns="http://www.w3.org/2000/svg"><g clip-path="url(#clip0)"><path d="M52.29 112.567c-1.67 9.77 3.156 12.881 11.572 12.881 6.003 0 12.686-2.365 14.11-8.463 1.67-7.218-9.035-8.649-19.246-12.01-10.149-3.36-20.421-8.649-17.017-23.77 3.96-18.045 22.277-25.077 36.634-25.077 15.16 0 28.713 7.965 24.691 26.57H83.169c2.043-7.529-3.96-9.956-10.024-9.956-4.332 0-10.025 1.618-11.201 7.032-1.361 6.41 9.406 7.53 19.678 10.89 10.335 3.297 20.174 8.836 16.832 23.77C93.875 135.28 75.93 142 59.097 142c-17.512 0-31.188-8.338-26.609-29.495H52.29v.062zM189.854 57.87h19.864l-18.317 82.388h-19.864l18.317-82.388zm-67.08 65.213h16.028c6.25 0 11.138-2.427 12.685-9.209 1.671-7.343-2.599-9.77-8.539-9.77h-15.904l-4.27 18.979zm7.364-32.73h15.347c3.403 0 8.54-1.992 9.839-7.903 1.361-6.036-2.228-7.965-6.374-7.965h-15.347l-3.465 15.867zM117.452 57.87h35.706c13.181-.186 26.795 3.485 23.02 20.66-1.67 7.404-7.116 13.44-13.799 16.614 7.549 2.551 10.953 10.205 8.849 19.539-4.332 19.725-19.06 25.637-35.459 25.637H99.135l18.317-82.45z" fill="#175CA3"/><path d="M237.503 24.704C226.55-5.04 163.616-8.401 97.093 17.112 49.629 35.407 13.057 63.471 0 88.797c18.131-19.228 47.278-38.083 82.427-51.71 66.647-25.513 129.457-22.153 140.41 7.591 3.218 8.525 1.733 18.42-3.527 28.624 16.089-17.112 23.33-34.473 18.193-48.598z" fill="#EC2439"/><path fill-rule="evenodd" clip-rule="evenodd" d="M239.607 83.258l-12.685 57h19.864l12.747-57h-19.926z" fill="#175CA3"/><path fill-rule="evenodd" clip-rule="evenodd" d="M285.71 111.074c23.577-14.188 26.485-53.142-5.26-53.204h-35.149l-4.58 20.348h35.644c11.696 0 6.993 17.423-4.146 17.423h-10.334l-4.579 20.348h6.188l8.478 24.206h23.082l.619-3.111-9.963-26.01zm26.795-27.816l-12.686 57h19.864l12.686-57h-19.864z" fill="#175CA3"/><path fill-rule="evenodd" clip-rule="evenodd" d="M338 57.87h-19.864l-4.518 20.348h19.865L338 57.87z" fill="#ED2633"/></g><defs><clipPath id="clip0"><path fill="#fff" d="M0 0h338v142H0z"/></clipPath></defs></svg>