<svg width="100" height="100" viewBox="0 0 100 100" fill="none" xmlns="http://www.w3.org/2000/svg"><path d="M50 58.532a9.118 9.118 0 10-9.118-9.118A9.129 9.129 0 0050 58.532zm0-15.892a6.775 6.775 0 11-6.775 6.774A6.782 6.782 0 0150 42.64z" fill="#254F91"/><path d="M39.05 58.527a13.205 13.205 0 002.365 2.253l-.054 1.812a1.172 1.172 0 00.75 1.127l4.093 1.58a1.172 1.172 0 001.308-.328l1.178-1.366a14.55 14.55 0 003.258-.084l1.263 1.316a1.173 1.173 0 001.315.263l4.021-1.76a1.172 1.172 0 00.7-1.159l-.135-1.816a13.198 13.198 0 002.254-2.366l1.81.054a1.174 1.174 0 001.129-.75l1.58-4.092a1.17 1.17 0 00-.328-1.309l-1.366-1.179a14.63 14.63 0 00-.084-3.258l1.316-1.262a1.172 1.172 0 00.263-1.315l-1.76-4.021a1.172 1.172 0 00-1.16-.7l-1.816.134a13.218 13.218 0 00-2.365-2.253l.054-1.811a1.171 1.171 0 00-.75-1.128l-4.093-1.58a1.172 1.172 0 00-1.308.328l-1.179 1.366a14.638 14.638 0 00-3.258.084l-1.262-1.316a1.172 1.172 0 00-1.316-.263l-4.02 1.76a1.172 1.172 0 00-.7 1.16l.134 1.816a13.194 13.194 0 00-2.253 2.366l-1.812-.054a1.175 1.175 0 00-1.127.75l-1.58 4.092a1.172 1.172 0 00.328 1.309l1.366 1.178a14.617 14.617 0 00.084 3.259l-1.316 1.262a1.172 1.172 0 00-.263 1.315l1.76 4.021a1.17 1.17 0 001.16.7l1.815-.135zm-.75-6.954a12.293 12.293 0 01-.097-3.803 1.172 1.172 0 00-.396-1.038l-1.207-1.04.984-2.55 1.612.048a1.178 1.178 0 001.01-.522 10.891 10.891 0 012.594-2.723 1.172 1.172 0 00.472-1.028l-.119-1.615 2.512-1.099 1.12 1.17a1.172 1.172 0 001.058.34 12.306 12.306 0 013.803-.097 1.171 1.171 0 001.038-.396l1.04-1.206 2.55.983-.048 1.613a1.172 1.172 0 00.522 1.01 10.88 10.88 0 012.723 2.593 1.17 1.17 0 001.028.472l1.615-.119 1.099 2.512-1.17 1.121a1.172 1.172 0 00-.34 1.057c.229 1.255.262 2.537.097 3.802a1.171 1.171 0 00.396 1.038l1.206 1.041-.984 2.55-1.612-.048a1.175 1.175 0 00-1.01.521 10.889 10.889 0 01-2.593 2.724 1.172 1.172 0 00-.472 1.028l.118 1.614-2.513 1.099-1.121-1.17a1.172 1.172 0 00-1.057-.34 12.29 12.29 0 01-3.802.097 1.175 1.175 0 00-1.039.396l-1.04 1.207-2.55-.984.048-1.613a1.172 1.172 0 00-.521-1.01 10.887 10.887 0 01-2.724-2.593 1.173 1.173 0 00-1.028-.472l-1.614.119-1.1-2.512 1.17-1.12a1.171 1.171 0 00.343-1.057zM50 91.776a4.372 4.372 0 100-8.744 4.372 4.372 0 000 8.744zm0-6.401a2.028 2.028 0 110 4.056 2.028 2.028 0 010-4.056zM28.906 21.238a1.172 1.172 0 001.172-1.172v-.992a1.171 1.171 0 10-2.344 0v.992a1.171 1.171 0 001.172 1.172zm0 13.327a1.172 1.172 0 001.172-1.172v-9.451a1.171 1.171 0 10-2.344 0v9.451a1.172 1.172 0 001.172 1.172z" fill="#254F91"/><path d="M82.805 50.586a5.725 5.725 0 100-2.344h-6.047v-9.459c.3-.715.455-1.484.454-2.26a3.513 3.513 0 013.469-3.515h1.1a5.408 5.408 0 001.557 2.899 5.722 5.722 0 100-8.102 6.091 6.091 0 00-1.557 2.86h-1.1a5.757 5.757 0 00-3.923 1.549V11.719a8.984 8.984 0 00-8.985-8.985H32.227a8.985 8.985 0 00-8.985 8.985v20.495a5.757 5.757 0 00-3.923-1.55h-1.1a6.088 6.088 0 00-1.558-2.858 5.744 5.744 0 100 8.1 5.407 5.407 0 001.558-2.898h1.1a3.513 3.513 0 013.469 3.515c0 .776.154 1.545.454 2.26v9.46h-6.047a5.725 5.725 0 100 2.343h6.047v9.459a5.834 5.834 0 00-.454 2.26 3.513 3.513 0 01-3.47 3.515h-1.1a5.407 5.407 0 00-1.556-2.898 5.706 5.706 0 100 8.1 6.09 6.09 0 001.557-2.858h1.1a5.757 5.757 0 003.923-1.55v21.472a8.985 8.985 0 008.985 8.984h35.546a8.985 8.985 0 008.985-8.984V66.615a5.757 5.757 0 003.923 1.55h1.1a6.09 6.09 0 001.557 2.857 5.735 5.735 0 100-8.1 5.407 5.407 0 00-1.557 2.898h-1.1a3.513 3.513 0 01-3.469-3.515c0-.776-.154-1.544-.454-2.26v-9.46h6.047zm3.214-3.565a3.384 3.384 0 114.787 4.785 3.384 3.384 0 01-4.787-4.785zm-1.023-17.537a3.384 3.384 0 114.786 4.786 3.384 3.384 0 01-4.786-4.786zM15.004 34.27a3.384 3.384 0 11-4.785-4.787 3.384 3.384 0 014.785 4.787zM13.98 51.807a3.382 3.382 0 11-4.782-4.784 3.382 3.382 0 014.782 4.784zm1.024 17.537a3.382 3.382 0 11-4.782-4.784 3.382 3.382 0 014.782 4.784zm10.582-27.818a5.72 5.72 0 003.014.857h1.134a21.02 21.02 0 00-1.094 4.954c-.03.312-.053.596-.07.905h-2.984v-6.716zm0 9.06h2.981a20.065 20.065 0 001.177 5.86H28.6a5.721 5.721 0 00-3.014.857v-6.717zm48.828 37.623c0 3.662-2.951 6.713-6.613 6.713H32.2c-3.662 0-6.613-3.051-6.613-6.713V81.25h48.828v6.96zm0-9.303H25.586V60.583A3.473 3.473 0 0128.6 58.79h2.13a21.444 21.444 0 0017.135 11.927c.717.07 1.432.12 2.143.12A21.498 21.498 0 0069.227 58.79H71.4a3.472 3.472 0 013.014 1.794v18.323zM30.973 47.541a19.09 19.09 0 1117.123 20.87 18.963 18.963 0 01-17.123-20.87zm43.441 9.762a5.72 5.72 0 00-3.014-.858h-1.197a20.975 20.975 0 001.164-5.859h3.047v6.717zm0-9.06h-3.043a20.06 20.06 0 00-1.178-5.86H71.4a5.72 5.72 0 003.014-.857v6.716zm0-9.998a3.472 3.472 0 01-3.014 1.794h-2.192a21.43 21.43 0 00-38.497 0H28.6a3.473 3.473 0 01-3.015-1.794V16.21h48.828v22.034zm0-24.378H25.586v-2.076c0-3.662 2.951-6.713 6.613-6.713H67.8c3.662 0 6.613 3.051 6.613 6.713v2.076zm10.582 50.691a3.384 3.384 0 114.786 4.786 3.384 3.384 0 01-4.786-4.786z" fill="#254F91"/></svg>