<svg width="100" height="100" viewBox="0 0 100 100" fill="none" xmlns="http://www.w3.org/2000/svg"><path d="M93.197 86.393c-1.29 0-2.497.361-3.526.987L62.14 59.85a1.603 1.603 0 00-.151-.132A15.366 15.366 0 0065.443 50a15.37 15.37 0 00-3.445-9.708l18.767-18.766a11.925 11.925 0 007.248 2.448c6.61 0 11.987-5.377 11.987-11.987S94.623 0 88.013 0 76.026 5.377 76.026 11.987c0 2.722.913 5.234 2.448 7.248L59.708 38.002A15.368 15.368 0 0050 34.556a15.367 15.367 0 00-9.708 3.445l-8.665-8.666a6.764 6.764 0 00.986-3.526 6.811 6.811 0 00-6.803-6.803 6.811 6.811 0 00-6.803 6.803 6.811 6.811 0 006.803 6.803c1.29 0 2.497-.36 3.526-.986l8.666 8.665A15.367 15.367 0 0034.557 50c0 2.085.418 4.073 1.17 5.889L15.12 67.05a8.518 8.518 0 00-6.59-3.12C3.827 63.93 0 67.759 0 72.463c0 4.704 3.827 8.531 8.531 8.531 4.704 0 8.532-3.827 8.532-8.53 0-.894-.139-1.756-.395-2.566l20.607-11.162c2.787 4.048 7.45 6.708 12.725 6.708.592 0 1.175-.037 1.75-.102l2.147 9.663a6.81 6.81 0 00-3.789 6.097 6.811 6.811 0 006.803 6.804 6.811 6.811 0 006.804-6.803c0-3.702-2.972-6.72-6.655-6.8l-2.148-9.665a15.427 15.427 0 004.806-2.647c.041.052.084.103.132.15l27.53 27.53a6.764 6.764 0 00-.987 3.526A6.811 6.811 0 0093.196 100 6.811 6.811 0 00100 93.197a6.811 6.811 0 00-6.803-6.804zM8.53 77.753a5.298 5.298 0 01-5.291-5.29A5.298 5.298 0 018.53 67.17a5.298 5.298 0 015.292 5.291 5.298 5.298 0 01-5.292 5.292zm51.944 3.349a3.568 3.568 0 01-3.564 3.563 3.568 3.568 0 01-3.563-3.564 3.568 3.568 0 013.563-3.563 3.568 3.568 0 013.564 3.564zM88.013 3.24c4.823 0 8.747 3.924 8.747 8.747s-3.924 8.747-8.747 8.747-8.747-3.924-8.747-8.747S83.19 3.24 88.013 3.24zM22.246 25.81a3.568 3.568 0 013.564-3.564 3.568 3.568 0 013.564 3.564 3.568 3.568 0 01-3.564 3.564 3.568 3.568 0 01-3.564-3.564zM50 62.203c-6.729 0-12.203-5.474-12.203-12.203 0-6.729 5.474-12.203 12.203-12.203 6.729 0 12.203 5.474 12.203 12.203 0 6.729-5.474 12.203-12.203 12.203zM93.197 96.76a3.568 3.568 0 01-3.564-3.564 3.568 3.568 0 013.564-3.563 3.568 3.568 0 013.563 3.564 3.568 3.568 0 01-3.564 3.563z" fill="#254F91"/><path d="M50 41.469a1.62 1.62 0 000 3.24 5.298 5.298 0 015.292 5.29 1.62 1.62 0 103.24 0c0-4.703-3.828-8.53-8.532-8.53zm38.013-31.318c1.012 0 1.836.824 1.836 1.836a1.62 1.62 0 003.24 0 5.081 5.081 0 00-5.076-5.075 1.62 1.62 0 000 3.24z" fill="#254F91"/></svg>