<svg width="195" height="280" viewBox="0 0 195 280" fill="none" xmlns="http://www.w3.org/2000/svg"><path d="M195 280H5.506v-37.561l89.43-95.23c12.279-13.406 21.33-25.104 27.153-35.095 5.949-9.991 8.924-19.476 8.924-28.456 0-12.267-3.102-21.878-9.304-28.834-6.203-7.082-15.063-10.623-26.582-10.623-12.405 0-22.216 4.3-29.43 12.9-7.09 8.473-10.634 19.665-10.634 33.576H0c0-16.82 3.987-32.186 11.962-46.097 8.101-13.911 19.494-24.788 34.177-32.629C60.823 3.984 77.47 0 96.076 0c28.481 0 50.57 6.83 66.266 20.488 15.823 13.658 23.734 32.945 23.734 57.859 0 13.658-3.544 27.57-10.633 41.734-7.089 14.165-19.24 30.669-36.456 49.513l-62.848 66.205H195V280z" fill="#C1D4E2"/></svg>