<svg width="189" height="280" viewBox="0 0 189 280" fill="none" xmlns="http://www.w3.org/2000/svg"><path d="M61.505 116.043h28.789c13.709 0 23.866-3.432 30.472-10.294 6.605-6.863 9.908-15.972 9.908-27.326 0-10.98-3.303-19.528-9.908-25.642-6.481-6.114-15.454-9.171-26.92-9.171-10.345 0-19.006 2.87-25.986 8.61-6.979 5.614-10.468 12.976-10.468 22.085H3.365c0-14.225 3.801-26.952 11.403-38.182 7.727-11.355 18.446-20.214 32.155-26.578C60.757 3.182 75.96 0 92.537 0c28.789 0 51.347 6.925 67.674 20.775C176.537 34.501 184.7 53.467 184.7 77.674c0 12.477-3.801 23.957-11.403 34.438-7.603 10.482-17.573 18.53-29.911 24.145 15.329 5.49 26.733 13.725 34.21 24.706 7.603 10.98 11.404 23.957 11.404 38.93 0 24.207-8.849 43.61-26.546 58.209C144.881 272.701 121.576 280 92.537 280c-27.169 0-49.415-7.175-66.739-21.524C8.6 244.127 0 225.16 0 201.578h54.027c0 10.231 3.8 18.591 11.403 25.08 7.727 6.488 17.2 9.732 28.416 9.732 12.836 0 22.869-3.369 30.098-10.107 7.353-6.862 11.029-15.909 11.029-27.139 0-27.201-14.955-40.802-44.866-40.802H61.505v-42.299z" fill="#C1D4E2"/></svg>