<svg width="100" height="100" viewBox="0 0 100 100" fill="none" xmlns="http://www.w3.org/2000/svg"><g clip-path="url(#clip0)" fill="#254F91"><path d="M31.256 41.258c0-2.005-.557-3.923-1.597-5.58 4.17-2.14 7.032-6.487 7.032-11.49a1.955 1.955 0 10-3.911 0c0 4.96-4.036 8.996-8.995 8.996a1.955 1.955 0 100 3.91c.666 0 1.32-.05 1.96-.148 3.684 4.194.584 10.962-5.007 10.918a1.956 1.956 0 000 3.911c5.8 0 10.518-4.718 10.518-10.517zm8.291 14.892a18.17 18.17 0 00-10.671 7.802 12.833 12.833 0 00-5.091-1.047c-2.587.09-2.59 3.82 0 3.911 4.96 0 8.995 4.035 8.995 8.995a1.955 1.955 0 103.91 0c0-3.908-1.746-7.416-4.499-9.785a14.287 14.287 0 018.368-6.098c2.477-.755 1.512-4.362-1.012-3.778z"/><path d="M81.558 51.955c2.36 7.45 13.235 5.952 13.403-1.955-.169-7.909-11.043-9.405-13.403-1.956H51.942V36.313h23.684c.7 0 1.344-.373 1.694-.978l2.834-4.909c4.212 1.056 8.489-2.304 8.43-6.658a6.851 6.851 0 00-6.844-6.844c-5.984-.017-9.07 7.27-4.97 11.543l-2.273 3.935H51.942V20.67h10.233c.699 0 1.344-.373 1.693-.978l2.078-3.6c4.212 1.057 8.489-2.304 8.43-6.657a6.852 6.852 0 00-6.843-6.844c-5.984-.017-9.07 7.27-4.971 11.543l-1.516 2.625h-9.104v-7.04c-.31-11.859-16.91-13.326-19.38-1.84-6.5.85-11.58 6.275-11.891 12.926C12.519 21.86 7.043 30.407 9.49 38.27c-5.935 6.359-5.935 17.102 0 23.46-2.45 7.864 3.03 16.412 11.18 17.466.31 6.651 5.392 12.077 11.89 12.925 2.476 11.493 19.073 10.015 19.38-1.84v-7.039h9.105l1.516 2.626c-4.099 4.272-1.013 11.56 4.97 11.543a6.852 6.852 0 006.845-6.844c.058-4.354-4.219-7.716-8.43-6.658l-2.079-3.6a1.955 1.955 0 00-1.693-.978H51.942V67.6h22.556l2.272 3.935c-4.099 4.272-1.013 11.561 4.97 11.543a6.852 6.852 0 006.845-6.844c.058-4.353-4.219-7.715-8.43-6.658l-2.835-4.91a1.955 1.955 0 00-1.693-.977H51.942V51.956h29.616zm6.559-4.888A2.936 2.936 0 0191.05 50c-.148 3.886-5.72 3.885-5.866 0a2.936 2.936 0 012.933-2.933zM81.74 20.834a2.936 2.936 0 012.933 2.933c-.147 3.886-5.719 3.885-5.866 0a2.936 2.936 0 012.933-2.933zM67.533 6.5a2.936 2.936 0 012.933 2.933c-.148 3.886-5.72 3.885-5.866 0A2.936 2.936 0 0167.532 6.5zm2.933 84.066a2.936 2.936 0 01-2.933 2.933c-3.886-.147-3.885-5.719 0-5.866a2.937 2.937 0 012.933 2.933zm14.207-14.333a2.936 2.936 0 01-2.933 2.933c-3.885-.147-3.884-5.719 0-5.866a2.936 2.936 0 012.933 2.933zM48.031 90.281c-.289 7.753-11.43 7.788-11.732 0 0-1.08-.876-1.955-1.956-1.955-5.39 0-9.777-4.386-9.777-9.777 0-.326.017-.656.049-.981.137-1.122-.83-2.179-1.957-2.149-5.265.139-9.937-4.506-9.824-9.776 0-1.268.24-2.502.712-3.668a1.957 1.957 0 00-.453-2.14c-5.522-5.118-5.524-14.553 0-19.671a1.957 1.957 0 00.453-2.14 9.723 9.723 0 01-.712-3.668c-.11-5.246 4.52-9.886 9.767-9.776a1.95 1.95 0 001.514-.639c.681-.668.466-1.64.451-2.49 0-5.391 4.386-9.777 9.777-9.777 1.08 0 1.956-.876 1.956-1.956.28-7.744 11.431-7.793 11.732 0v80.563z"/></g><defs><clipPath id="clip0"><path fill="#fff" d="M0 0h100v100H0z"/></clipPath></defs></svg>