<svg width="274" height="274" viewBox="0 0 274 274" fill="none" xmlns="http://www.w3.org/2000/svg"><g clip-path="url(#clip0)" fill="#F5F5F5"><path d="M66.481 74.272a2.703 2.703 0 011.002-5.02l37.112-4.822a2.703 2.703 0 01.695 5.36l-37.112 4.82a2.678 2.678 0 01-1.697-.338zm102.418 190.174l-39.228-22.648a2.702 2.702 0 012.703-4.682l36.888 21.298 55.391-95.942a2.701 2.701 0 013.692-.989 2.704 2.704 0 01.99 3.692l-56.744 98.282a2.697 2.697 0 01-1.641 1.259 2.699 2.699 0 01-2.051-.27zm-78.949-45.58l-6.787-3.919a2.705 2.705 0 01-.99-3.692 2.705 2.705 0 013.693-.99l6.787 3.919a2.705 2.705 0 01.99 3.692 2.705 2.705 0 01-3.692.99z"/><path d="M66.779 205.487L9.738 172.555a2.704 2.704 0 01-.99-3.692L65.493 70.58a2.703 2.703 0 014.681 2.703l-55.392 95.942 54.7 31.581a2.7 2.7 0 01.99 3.692 2.707 2.707 0 01-3.692.989zm46.508 26.852l-6.952-4.014a2.7 2.7 0 01-.989-3.692 2.697 2.697 0 011.641-1.259 2.699 2.699 0 012.051.27l6.951 4.013a2.707 2.707 0 011.26 1.641 2.706 2.706 0 01-1.912 3.311 2.704 2.704 0 01-2.05-.27z"/><path d="M113.05 177.397a35.801 35.801 0 01-15.683-18.507L65.3 72.875a2.703 2.703 0 015.066-1.887l32.069 86.006a30.502 30.502 0 0033.587 19.392l90.521-15.229a2.701 2.701 0 012.651 4.232 2.708 2.708 0 01-1.753 1.099l-90.527 15.234a35.788 35.788 0 01-23.864-4.325z"/><path d="M9.738 172.555a2.704 2.704 0 01.9-5.008l87.886-14.764a2.705 2.705 0 012.049.438 2.712 2.712 0 011.085 2.837 2.707 2.707 0 01-1.232 1.693c-.308.186-.65.309-1.006.361L11.538 172.88a2.706 2.706 0 01-1.8-.325zm159.161 91.892a2.706 2.706 0 01-1.179-1.396l-31.157-83.494a2.719 2.719 0 01-.19-1.051 2.718 2.718 0 01.851-1.914 2.698 2.698 0 013-.479 2.712 2.712 0 011.403 1.555l31.157 83.494a2.707 2.707 0 01-.788 3.008 2.7 2.7 0 01-3.097.277zm26.688-170.5a2.703 2.703 0 01-1.143-1.302l-13.597-32.677-35.092 4.566a2.7 2.7 0 01-2.692-1.333 2.707 2.707 0 01.996-3.69c.308-.178.647-.293.999-.338l37.147-4.827a2.705 2.705 0 012.842 1.64L199.44 90.57a2.705 2.705 0 01-.7 3.091 2.706 2.706 0 01-3.156.3l.003-.014zm30.056 72.217a2.669 2.669 0 01-1.14-1.301l-14.382-34.549a2.7 2.7 0 011.525-3.356 2.705 2.705 0 013.455 1.287l14.38 34.552a2.705 2.705 0 01-3.838 3.367z"/><path d="M187.626 172.552a2.704 2.704 0 01-.99-3.692l34.676-60.06-102.987-59.46L83.65 109.4a2.705 2.705 0 01-3.692.99 2.705 2.705 0 01-.99-3.692l36.027-62.4a2.704 2.704 0 013.692-.99l107.668 62.162a2.704 2.704 0 01.99 3.692l-36.027 62.401a2.707 2.707 0 01-3.692.989z"/><path d="M149.668 144.13a31.4 31.4 0 01-12.316-4.23 27.935 27.935 0 01-13.55-15.023 21.719 21.719 0 012.486-18.328 26.352 26.352 0 0115.811-12.84 24.434 24.434 0 0119.73 2.654 22.429 22.429 0 0111.136 13.101 19.205 19.205 0 01-2.01 15.558 19.584 19.584 0 01-10.695 9.616 14.47 14.47 0 01-12.124-1.363 5.029 5.029 0 01-2.455-2.84 4.464 4.464 0 01.269-3.4 9.426 9.426 0 01-9.061-.253 8.846 8.846 0 01-4.416-5.833 10.979 10.979 0 011.598-8.091 19.037 19.037 0 019.777-8.464 11.891 11.891 0 0110.639.01 9.729 9.729 0 015.426 6.959l1.802-1.927 4.005 2.312-12.191 13.115a20.526 20.526 0 00-2.742 3.388c-.624 1.08-.523 1.858.303 2.335a9.27 9.27 0 008.423.319 17.16 17.16 0 008.159-7.884 15.338 15.338 0 001.488-12.848 18.999 18.999 0 00-9.178-10.698 20.379 20.379 0 00-16.906-2.068 23.2 23.2 0 00-13.483 11.066 18.375 18.375 0 00-2.184 15.55 24.15 24.15 0 0011.704 12.74 26.429 26.429 0 0010.46 3.699l.095 3.668zm7.554-29.917a7.643 7.643 0 00-11.908-5.737 16.791 16.791 0 00-7.033 6.647c-2.329 4.034-1.881 6.982 1.344 8.844a7.256 7.256 0 005.544.576 12.117 12.117 0 005.906-3.684l6.147-6.646z"/><path d="M137.186 140.191a28.399 28.399 0 01-13.694-15.199 22.16 22.16 0 01-.812-9.583 22.16 22.16 0 013.327-9.023 26.82 26.82 0 0116.008-12.996 24.866 24.866 0 0119.988 2.677 22.868 22.868 0 0111.292 13.301 19.61 19.61 0 01-2.044 15.822 19.996 19.996 0 01-10.884 9.769 14.868 14.868 0 01-12.404-1.379 5.364 5.364 0 01-2.615-3.038 4.74 4.74 0 01-.017-2.879 9.63 9.63 0 01-8.624-.581 9.193 9.193 0 01-4.574-6.052 11.35 11.35 0 011.633-8.336 19.462 19.462 0 019.947-8.612 12.28 12.28 0 0110.933.03 10.43 10.43 0 015.479 6.521l1.528-1.636 4.607 2.659-12.482 13.426a20.267 20.267 0 00-2.698 3.336c-.675 1.17-.26 1.619.17 1.868a8.993 8.993 0 008.133.298 16.928 16.928 0 007.997-7.733 15.09 15.09 0 001.452-12.58 18.76 18.76 0 00-9.022-10.514 20.131 20.131 0 00-16.637-2.038 22.973 22.973 0 00-13.288 10.913 18.145 18.145 0 00-2.158 15.272 23.936 23.936 0 0011.552 12.555 26.203 26.203 0 0010.323 3.654l.295.03.112 4.368-.384-.043a31.857 31.857 0 01-12.439-4.277zm24.477-43.54a24.231 24.231 0 00-19.472-2.62 26.155 26.155 0 00-15.61 12.686 21.486 21.486 0 00-2.459 18.055 27.75 27.75 0 0013.402 14.834 31.414 31.414 0 0011.792 4.143l-.075-2.999a27.182 27.182 0 01-10.297-3.71 24.573 24.573 0 01-11.855-12.927 18.787 18.787 0 012.214-15.824 23.606 23.606 0 0113.674-11.22 20.783 20.783 0 0117.167 2.11 19.405 19.405 0 019.321 10.883 15.73 15.73 0 01-1.5 13.127 17.57 17.57 0 01-8.328 8.047 9.634 9.634 0 01-8.714-.35c-.571-.33-1.386-1.131-.425-2.795a20.94 20.94 0 012.787-3.459l11.896-12.793-3.404-1.965-2.103 2.249-.099-.699a9.463 9.463 0 00-5.258-6.725 11.662 11.662 0 00-10.35.013 18.79 18.79 0 00-9.606 8.32 10.699 10.699 0 00-1.558 7.839 8.559 8.559 0 004.248 5.614 9.139 9.139 0 008.755.236l.849-.39-.409.844a4.087 4.087 0 00-.256 3.147 4.708 4.708 0 002.296 2.649 14.209 14.209 0 0011.859 1.32 19.363 19.363 0 0010.507-9.463 18.977 18.977 0 001.968-15.301 22.21 22.21 0 00-10.957-12.877zm-22.207 27.609c-3.403-1.965-3.898-5.097-1.468-9.306a17.19 17.19 0 017.171-6.782 7.968 7.968 0 017.929-.554 7.98 7.98 0 014.472 6.571l.01.146-6.246 6.752a12.53 12.53 0 01-6.075 3.783 7.617 7.617 0 01-5.793-.61zm13.262-16.062a7.422 7.422 0 00-7.253.584 16.507 16.507 0 00-6.885 6.52c-2.237 3.874-1.838 6.616 1.221 8.382a6.945 6.945 0 005.303.544 11.83 11.83 0 005.716-3.603l6.048-6.539a7.392 7.392 0 00-4.147-5.893l-.003.005z"/></g><defs><clipPath id="clip0"><path fill="#fff" transform="rotate(30 50 186.603)" d="M0 0h200v200H0z"/></clipPath></defs></svg>