<svg width="165" height="165" viewBox="0 0 165 165" fill="none" xmlns="http://www.w3.org/2000/svg"><g clip-path="url(#clip0)" fill="#F5F5F5"><path d="M23.77 92.753a1.714 1.714 0 01-2.104-2.475l12.207-20.367a1.715 1.715 0 012.94 1.764L24.607 92.04a1.699 1.699 0 01-.836.712zm134.953 23.879l-26.711 10.609a1.719 1.719 0 01-2.227-.961 1.717 1.717 0 01.961-2.227l25.117-9.976-25.945-65.327a1.715 1.715 0 113.187-1.266l26.579 66.921a1.717 1.717 0 01-.961 2.227zm-53.757 21.35l-4.622 1.836a1.712 1.712 0 01-2.207-2.273c.18-.418.519-.747.942-.915l4.621-1.835a1.717 1.717 0 012.227.96 1.717 1.717 0 01-.961 2.227z"/><path d="M89.188 144.249L50.35 159.674a1.715 1.715 0 01-2.227-.961l-26.578-66.92a1.715 1.715 0 013.187-1.267l25.946 65.328 37.245-14.793a1.715 1.715 0 111.266 3.188zm31.668-12.578l-4.734 1.88a1.714 1.714 0 11-1.266-3.187l4.734-1.88a1.714 1.714 0 111.266 3.187z"/><path d="M93.42 110.165a22.717 22.717 0 01-15.382.521L22.61 92.791a1.716 1.716 0 011.055-3.264l55.423 17.891a19.357 19.357 0 0022.871-9.084l28.048-51.042a1.712 1.712 0 012.328-.678 1.713 1.713 0 01.678 2.33L104.965 99.99a22.704 22.704 0 01-11.545 10.174z"/><path d="M50.349 159.674a1.72 1.72 0 01-1.92-.458 1.712 1.712 0 01-.218-1.961l27.243-49.549a1.726 1.726 0 011.024-.847 1.717 1.717 0 011.98 2.499L51.22 158.906c-.192.349-.5.621-.87.768zm108.374-43.042c-.37.146-.78.16-1.159.037l-53.815-17.356a1.716 1.716 0 111.053-3.263l53.815 17.356a1.715 1.715 0 01.106 3.226zM84.375 36.246c-.35.138-.735.158-1.098.056l-21.613-6.094-11.54 19.26a1.715 1.715 0 01-2.942-1.763L59.4 27.32a1.715 1.715 0 011.935-.769L84.211 33a1.716 1.716 0 01.17 3.253l-.006-.006zm47.769 13.464c-.349.14-.734.16-1.096.056l-22.854-6.44a1.715 1.715 0 01.93-3.293l22.855 6.442a1.716 1.716 0 01.967 2.568c-.191.3-.472.534-.802.668z"/><path d="M120.361 71.144a1.717 1.717 0 01-2.227-.96l-16.242-40.895-70.124 27.85L48.01 98.034a1.715 1.715 0 11-3.188 1.266L27.947 56.813a1.715 1.715 0 01.96-2.227l73.313-29.117a1.715 1.715 0 012.226.96l16.875 42.49a1.715 1.715 0 01-.96 2.226z"/><path d="M91.276 78.849a19.924 19.924 0 01-6.952 4.464 17.728 17.728 0 01-12.81.83 13.786 13.786 0 01-8.142-8.45 16.727 16.727 0 01-.167-12.922 15.503 15.503 0 019.086-8.775 14.233 14.233 0 0110.903-.385 12.187 12.187 0 016.951 7.123 12.424 12.424 0 01.577 9.108 9.185 9.185 0 01-5.45 5.496 3.19 3.19 0 01-2.38.104 2.833 2.833 0 01-1.587-1.471 5.975 5.975 0 01-3.692 4.409 5.603 5.603 0 01-4.64-.098 6.963 6.963 0 01-3.398-3.98 12.081 12.081 0 01-.364-8.196 7.546 7.546 0 014.192-5.291 6.172 6.172 0 015.599.038l-.25-1.655 2.727-1.083 1.729 11.229c.106.919.309 1.823.607 2.698.292.736.719.992 1.28.768a5.88 5.88 0 003.475-4.066c.581-2.4.33-4.926-.713-7.164a9.73 9.73 0 00-5.808-5.797 12.056 12.056 0 00-8.936.357 12.934 12.934 0 00-7.683 7.6 14.72 14.72 0 00.2 11.065 11.66 11.66 0 006.88 7.207 15.323 15.323 0 0010.946-.81 16.764 16.764 0 005.957-3.75l1.863 1.397zM79.361 63.314a4.848 4.848 0 00-7.542 3.669 10.65 10.65 0 00.54 6.116c1.09 2.747 2.734 3.684 4.93 2.812a4.604 4.604 0 002.47-2.533 7.691 7.691 0 00.49-4.389l-.888-5.675z"/><path d="M84.404 83.51a18.02 18.02 0 01-12.954.833 14.048 14.048 0 01-8.27-8.574 17.014 17.014 0 01-.167-13.082 15.776 15.776 0 019.2-8.894 14.511 14.511 0 0111.063-.385 12.45 12.45 0 017.07 7.245 12.69 12.69 0 01.578 9.262 9.43 9.43 0 01-5.569 5.63c-.801.362-1.712.4-2.541.105a3.006 3.006 0 01-1.44-1.124 6.107 6.107 0 01-3.683 4.063 5.833 5.833 0 01-4.812-.105 7.202 7.202 0 01-3.505-4.094 12.347 12.347 0 01-.372-8.34 7.794 7.794 0 014.319-5.43 6.618 6.618 0 015.401-.16l-.212-1.404 3.136-1.245 1.769 11.495c.105.904.306 1.794.598 2.656.317.797.703.767.997.65a5.7 5.7 0 003.349-3.93 10.739 10.739 0 00-.7-7.023 9.579 9.579 0 00-5.69-5.674 11.906 11.906 0 00-8.783.352 12.774 12.774 0 00-7.563 7.477 14.576 14.576 0 00.201 10.908 11.51 11.51 0 006.752 7.085A15.184 15.184 0 0083.37 81a16.632 16.632 0 005.882-3.7l.13-.135 2.219 1.664-.173.174a20.208 20.208 0 01-7.024 4.507zM72.37 54.192a15.374 15.374 0 00-8.968 8.66 16.595 16.595 0 00.17 12.762 13.638 13.638 0 008.017 8.33 17.606 17.606 0 0012.658-.832 19.944 19.944 0 006.703-4.238l-1.522-1.143a17.256 17.256 0 01-5.9 3.664 15.591 15.591 0 01-11.099.812 11.916 11.916 0 01-7.003-7.33 14.98 14.98 0 01-.202-11.22 13.185 13.185 0 017.806-7.714 12.313 12.313 0 019.085-.355 9.98 9.98 0 015.943 5.913 11.147 11.147 0 01.726 7.312 6.113 6.113 0 01-3.604 4.199c-.389.154-1.107.244-1.558-.89a13.286 13.286 0 01-.624-2.748L81.312 58.42l-2.317.92.291 1.933-.387-.226a6.003 6.003 0 00-5.416-.03 7.394 7.394 0 00-4.067 5.156 11.924 11.924 0 00.36 8.055 6.79 6.79 0 003.288 3.86 5.428 5.428 0 004.466.096 5.801 5.801 0 003.563-4.264l.14-.576.259.535a2.594 2.594 0 001.465 1.367 2.991 2.991 0 002.223-.1 9.018 9.018 0 005.324-5.383 12.28 12.28 0 00-.575-8.953 12.036 12.036 0 00-6.84-7.002 14.093 14.093 0 00-10.72.385zm5 21.918c-2.317.92-4.07-.066-5.209-2.932a10.903 10.903 0 01-.553-6.238 5.061 5.061 0 017.876-3.803l.076.053.902 5.765a7.952 7.952 0 01-.509 4.513 4.83 4.83 0 01-2.583 2.642zm-2.774-12.921a4.71 4.71 0 00-2.564 3.84 10.472 10.472 0 00.535 5.992c1.048 2.638 2.57 3.519 4.652 2.691a4.404 4.404 0 002.358-2.425 7.509 7.509 0 00.457-4.263l-.874-5.583a4.684 4.684 0 00-4.565-.256l.001.004z"/></g><defs><clipPath id="clip0"><path fill="#fff" transform="rotate(-21.661 122.416 23.42)" d="M0 0h126.897v126.897H0z"/></clipPath></defs></svg>