<svg width="160" height="68" viewBox="0 0 160 68" fill="none" xmlns="http://www.w3.org/2000/svg"><g clip-path="url(#clip0)"><path d="M24.753 53.113c-.791 4.61 1.494 6.077 5.478 6.077 2.841 0 6.005-1.115 6.679-3.993.79-3.406-4.277-4.08-9.11-5.666-4.805-1.586-9.667-4.081-8.056-11.216 1.875-8.514 10.545-11.832 17.341-11.832 7.177 0 13.592 3.758 11.688 12.537H39.37c.967-3.553-1.875-4.698-4.745-4.698-2.05 0-4.746.764-5.302 3.318-.645 3.024 4.452 3.552 9.315 5.138 4.892 1.556 9.55 4.169 7.968 11.215C44.438 63.83 35.943 67 27.976 67c-8.29 0-14.765-3.934-12.597-13.917h9.374v.03zm65.119-25.808h9.403l-8.67 38.873H81.2l8.67-38.873zM58.118 58.074h7.587c2.959 0 5.273-1.145 6.005-4.345.79-3.464-1.23-4.61-4.042-4.61h-7.529l-2.021 8.955zm3.486-15.443h7.264c1.612 0 4.043-.94 4.658-3.729.645-2.848-1.054-3.758-3.017-3.758h-7.265l-1.64 7.487zm-6.005-15.326H72.5c6.24-.088 12.684 1.644 10.897 9.748-.79 3.493-3.369 6.341-6.532 7.839 3.573 1.203 5.184 4.815 4.189 9.219-2.051 9.307-9.023 12.096-16.786 12.096h-17.34l8.67-38.902z" fill="#254F91"/><path d="M112.428 11.655c-5.185-14.034-34.977-15.62-66.467-3.581C23.493 16.706 6.181 29.947 0 41.897c8.583-9.073 22.38-17.969 39.019-24.399C70.568 5.46 100.3 7.046 105.485 21.08c1.523 4.023.82 8.69-1.67 13.506 7.617-8.074 11.044-16.266 8.613-22.93z" fill="#ED2633"/><path fill-rule="evenodd" clip-rule="evenodd" d="M113.424 39.284l-6.005 26.894h9.403l6.034-26.894h-9.432z" fill="#254F91"/><path fill-rule="evenodd" clip-rule="evenodd" d="M135.247 52.408c11.161-6.694 12.538-25.074-2.49-25.103h-16.638l-2.168 9.601h16.873c5.536 0 3.31 8.22-1.963 8.22h-4.892l-2.167 9.602h2.929l4.013 11.42h10.926l.293-1.467-4.716-12.273zm12.684-13.124l-6.005 26.894h9.403l6.005-26.894h-9.403z" fill="#254F91"/><path fill-rule="evenodd" clip-rule="evenodd" d="M160 27.305h-9.403l-2.139 9.601h9.404l2.138-9.6z" fill="#ED2633"/></g><defs><clipPath id="clip0"><path fill="#fff" d="M0 0h160v67H0z"/></clipPath></defs></svg>