<svg width="100" height="100" viewBox="0 0 100 100" fill="none" xmlns="http://www.w3.org/2000/svg"><path d="M17.158 48.208a6.183 6.183 0 00-4.401 1.825c-2.42 2.427-2.42 6.375.001 8.804a6.182 6.182 0 004.4 1.823 6.18 6.18 0 004.399-1.821 6.177 6.177 0 001.828-4.398 6.19 6.19 0 00-1.827-4.41 6.182 6.182 0 00-4.4-1.823zm2.329 8.558a3.271 3.271 0 01-2.329.965 3.27 3.27 0 01-2.327-.964 3.31 3.31 0 01-.001-4.664 3.271 3.271 0 012.328-.965c.88 0 1.706.342 2.329.965a3.28 3.28 0 01.969 2.336c0 .877-.345 1.703-.97 2.327zM46.93 79.933a1.458 1.458 0 00-2.066-.003 1.472 1.472 0 001.036 2.511 1.465 1.465 0 001.04-2.496l-.01-.012z" fill="#254F91"/><path d="M89.316 54.906H74.31a1.465 1.465 0 100 2.93h15.005c2.009 0 3.644 1.852 3.644 4.128v1.407H50.716v-5.535H67.51a1.465 1.465 0 100-2.93H50.247c-1.357 0-2.461 1.144-2.461 2.55v6.295c0 1.406 1.104 2.55 2.461 2.55h15.577a25.396 25.396 0 01-11.896 8.365 9.31 9.31 0 00-8.033-4.616 9.309 9.309 0 00-8.03 4.611 25.379 25.379 0 01-12.913-9.763c.5-.372.979-.782 1.432-1.235a12.966 12.966 0 003.822-9.228 12.95 12.95 0 00-3.822-9.223 13.001 13.001 0 00-4.44-2.918 24.926 24.926 0 014.457-7.883l13.71 11.427a2.43 2.43 0 001.797.564c.39-.035.757-.162 1.08-.363l2.003 1.674a4.13 4.13 0 002.65.958 4.125 4.125 0 003.18-1.485l.231-.278 2.826 2.357a4.824 4.824 0 003.111 1.115c1.38 0 2.788-.56 3.883-1.656.9-.899 1.362-2.123 1.302-3.447a5.173 5.173 0 00-1.85-3.733l-2.828-2.362.23-.276a4.103 4.103 0 00.942-3.023c-.1-1.104-.62-2.1-1.466-2.804l-2.01-1.68c.142-.358.2-.748.16-1.144a2.415 2.415 0 00-.872-1.645l-4.052-3.379-16.466-13.723a6.409 6.409 0 00-4.717-1.47 6.428 6.428 0 00-3.826 1.699l-5.075-4.238.022-.026a4.56 4.56 0 00-.575-6.418 4.529 4.529 0 00-3.33-1.036 4.528 4.528 0 00-3.09 1.617l-7.18 8.605a4.53 4.53 0 00-1.037 3.329 4.515 4.515 0 001.613 3.086 4.54 4.54 0 002.918 1.056c1.304 0 2.6-.555 3.501-1.63l.002-.002.023-.028 5.077 4.235a6.485 6.485 0 00.255 7.339 35.642 35.642 0 00-7.54 15.3 13.096 13.096 0 00-3.07 2.284 12.95 12.95 0 00-3.822 9.224 12.96 12.96 0 003.823 9.228 12.975 12.975 0 006.274 3.474 35.606 35.606 0 006.425 8.748 35.667 35.667 0 0015.956 9.231v3.846h-9.911a1.465 1.465 0 100 2.93h54.73c.014 0 .037.023.037.037v5.104c0 .014-.023.038-.038.038H10.382c-.014 0-.037-.024-.037-.038v-5.104c0-.014.023-.037.037-.037h9.495a1.465 1.465 0 100-2.93h-9.495a2.97 2.97 0 00-2.967 2.967v5.104a2.97 2.97 0 002.967 2.967h71.025a2.97 2.97 0 002.968-2.967v-5.104a2.97 2.97 0 00-2.968-2.967H55.201v-3.84a35.634 35.634 0 0015.967-9.237 35.616 35.616 0 006.848-9.584h15.418c1.354 0 2.456-1.144 2.456-2.55v-1.786c0-3.892-2.95-7.058-6.574-7.058zM58.447 43.794c.473.394.772.998.8 1.615.016.348-.05.847-.447 1.244-.786.786-2.084 1.163-3.046.362l-2.825-2.356 1.488-1.785 1.203-1.442 2.828 2.362zm-3.121-8.465c.244.204.395.494.424.817a1.19 1.19 0 01-.273.882L48.57 45.31c-.419.503-1.2.572-1.703.152l-1.91-1.594L53.41 33.73l1.916 1.6zM27.1 14.21a3.519 3.519 0 012.732-1.27 3.49 3.49 0 012.251.817l20.157 16.8-10.614 12.731-20.157-16.8a3.542 3.542 0 01-.452-4.982L27.1 14.21zm-16.162-.007a1.634 1.634 0 01-2.296.203 1.605 1.605 0 01-.57-1.098c-.04-.436.09-.858.368-1.19l7.18-8.605a1.618 1.618 0 011.256-.583c.38 0 .744.13 1.035.373.688.577.782 1.603.206 2.291l-7.179 8.609zm4.149-.401l3.38-4.053 5.034 4.204-3.378 4.05-5.036-4.201zm5.59 15.84l3.473 2.894a28.362 28.362 0 00-5.04 8.997 13.216 13.216 0 00-4.781.166 32.714 32.714 0 016.348-12.057zM10.005 61.59a10.054 10.054 0 01-2.965-7.156 10.04 10.04 0 012.965-7.152 10.053 10.053 0 017.155-2.965 10.04 10.04 0 017.151 2.964l.002.002a10.04 10.04 0 012.963 7.15 10.06 10.06 0 01-2.964 7.157c-3.943 3.942-10.36 3.941-14.307 0zm26.584 17.765v2.713a32.743 32.743 0 01-13.884-8.257 32.806 32.806 0 01-4.96-6.35 13.071 13.071 0 004.67-1.089 28.32 28.32 0 0014.384 11.02 9.304 9.304 0 00-.21 1.963zm15.683 9.605H39.518v-9.605a6.384 6.384 0 016.377-6.376 6.384 6.384 0 016.377 6.376v9.605zm16.823-15.148a32.706 32.706 0 01-13.894 8.261v-2.718c0-.671-.073-1.325-.208-1.957A28.334 28.334 0 0069.443 66.3h5.277a32.752 32.752 0 01-5.625 7.512z" fill="#254F91"/></svg>