<svg width="100" height="100" viewBox="0 0 100 100" fill="none" xmlns="http://www.w3.org/2000/svg"><g clip-path="url(#clip0)" fill="#254F91"><path d="M28.857 31.37h-9.988a4.629 4.629 0 00-4.383-3.157 4.627 4.627 0 00-4.621 4.622 4.627 4.627 0 004.621 4.622A4.629 4.629 0 0018.87 34.3h9.988a21.05 21.05 0 003.134 9.697H27.37a4.629 4.629 0 00-4.382-3.157 4.627 4.627 0 00-4.622 4.622 4.627 4.627 0 004.622 4.622 4.629 4.629 0 004.382-3.157h6.814C38.068 51.282 43.72 54.03 50 54.03c6.281 0 11.932-2.748 15.817-7.103h6.814a4.629 4.629 0 004.382 3.157 4.627 4.627 0 004.622-4.622 4.627 4.627 0 00-4.622-4.622 4.628 4.628 0 00-4.382 3.157h-4.622a21.053 21.053 0 003.134-9.697h9.988a4.629 4.629 0 004.383 3.157 4.627 4.627 0 004.621-4.622 4.627 4.627 0 00-4.621-4.622 4.629 4.629 0 00-4.383 3.157h-9.988a21.051 21.051 0 00-3.134-9.697h4.622a4.629 4.629 0 004.382 3.157 4.627 4.627 0 004.622-4.622 4.627 4.627 0 00-4.622-4.621 4.628 4.628 0 00-4.382 3.156h-6.815c-3.884-4.355-9.535-7.102-15.816-7.102-6.281 0-11.932 2.747-15.816 7.102h-6.815a4.629 4.629 0 00-4.382-3.156 4.627 4.627 0 00-4.622 4.621 4.627 4.627 0 004.622 4.622 4.628 4.628 0 004.382-3.157h4.622a21.05 21.05 0 00-3.134 9.697zm-5.87 15.784a1.694 1.694 0 01-1.692-1.692c0-.933.759-1.692 1.692-1.692.933 0 1.692.76 1.692 1.692 0 .933-.76 1.692-1.692 1.692zm54.026-3.384c.933 0 1.692.76 1.692 1.692 0 .933-.759 1.692-1.692 1.692a1.694 1.694 0 01-1.692-1.692c0-.933.76-1.692 1.692-1.692zm0-25.254c.933 0 1.692.76 1.692 1.692 0 .933-.759 1.692-1.692 1.692a1.694 1.694 0 01-1.692-1.692c0-.933.76-1.692 1.692-1.692zM22.987 21.9a1.694 1.694 0 01-1.692-1.692c0-.933.759-1.692 1.692-1.692.933 0 1.692.759 1.692 1.692 0 .933-.76 1.692-1.692 1.692zm-8.5 12.627a1.694 1.694 0 01-1.693-1.692c0-.933.76-1.692 1.692-1.692.933 0 1.692.759 1.692 1.692 0 .933-.759 1.692-1.692 1.692zm71.026-3.384a1.693 1.693 0 010 3.384 1.694 1.694 0 01-1.692-1.692c0-.933.76-1.692 1.692-1.692zM50 14.57c10.071 0 18.265 8.194 18.265 18.265S60.07 51.1 50 51.1s-18.265-8.193-18.265-18.265C31.735 22.764 39.93 14.57 50 14.57z"/><path d="M50 44.164c6.247 0 11.33-5.082 11.33-11.328 0-1.743-.386-3.417-1.147-4.973a1.465 1.465 0 00-2.632 1.286 8.326 8.326 0 01.85 3.687c0 4.63-3.77 8.398-8.401 8.398-4.632 0-8.4-3.767-8.4-8.398 0-.585.06-1.156.174-1.707a4.607 4.607 0 003.482 1.583 4.611 4.611 0 003.268-1.352 4.591 4.591 0 001.354-3.268 4.591 4.591 0 00-1.584-3.482A8.413 8.413 0 0150 24.436a8.35 8.35 0 013.428.728 1.465 1.465 0 101.195-2.675A11.262 11.262 0 0050 21.506c-6.248 0-11.33 5.082-11.33 11.33 0 6.246 5.082 11.328 11.33 11.328zM45.257 26.4c.452 0 .876.176 1.196.495.32.32.495.745.495 1.197a1.694 1.694 0 01-2.888 1.196 1.694 1.694 0 01-.104-2.277c.075-.078.151-.154.229-.229a1.68 1.68 0 011.072-.382z"/><path d="M92.617 0H20.481a1.465 1.465 0 000 2.93h72.136a4.458 4.458 0 014.453 4.453V62.74H2.93V7.383A4.458 4.458 0 017.383 2.93h6.262a1.465 1.465 0 000-2.93H7.383C3.312 0 0 3.312 0 7.383v62.742c0 4.07 3.312 7.383 7.383 7.383H38.45l-3.925 13.249H25.93a3.047 3.047 0 00-3.043 3.043v3.157A3.047 3.047 0 0025.93 100h48.14a3.047 3.047 0 003.044-3.043V93.8a3.047 3.047 0 00-3.044-3.043h-8.595l-3.926-13.25h11.076a1.465 1.465 0 100-2.929H7.383a4.458 4.458 0 01-4.453-4.453V65.67h94.14v4.455a4.458 4.458 0 01-4.453 4.453H79.461a1.465 1.465 0 000 2.93h13.156c4.071 0 7.383-3.312 7.383-7.383V7.383C100 3.312 96.688 0 92.617 0zM74.184 93.8v3.157a.114.114 0 01-.114.114H25.93a.114.114 0 01-.114-.114V93.8c0-.063.051-.114.114-.114h48.14c.063 0 .114.051.114.114zm-11.765-3.043H37.58l3.926-13.25h16.986l3.926 13.25z"/></g><defs><clipPath id="clip0"><path fill="#fff" d="M0 0h100v100H0z"/></clipPath></defs></svg>