<svg width="100" height="100" viewBox="0 0 100 100" fill="none" xmlns="http://www.w3.org/2000/svg"><g clip-path="url(#clip0)"><path d="M92.617 0H20.481a1.465 1.465 0 000 2.93h72.136a4.458 4.458 0 014.453 4.453V62.74H2.93V7.383A4.458 4.458 0 017.383 2.93h6.262a1.465 1.465 0 000-2.93H7.383C3.312 0 0 3.312 0 7.383v62.742c0 4.07 3.312 7.383 7.383 7.383H38.45l-3.925 13.249H25.93a3.047 3.047 0 00-3.043 3.043v3.157A3.047 3.047 0 0025.93 100h48.14a3.047 3.047 0 003.044-3.043V93.8a3.047 3.047 0 00-3.044-3.043h-8.595l-3.926-13.25h11.076a1.465 1.465 0 100-2.929H7.383a4.458 4.458 0 01-4.453-4.453V65.67h94.14v4.455a4.458 4.458 0 01-4.453 4.453H79.461a1.465 1.465 0 000 2.93h13.156c4.071 0 7.383-3.312 7.383-7.383V7.383C100 3.312 96.688 0 92.617 0zM74.184 93.8v3.157a.114.114 0 01-.114.114H25.93a.114.114 0 01-.114-.114V93.8c0-.063.051-.114.114-.114h48.14c.063 0 .114.051.114.114zm-11.765-3.043H37.58l3.926-13.25h16.986l3.926 13.25z" fill="#254F91"/><path d="M21 15h8.5l1.474 6m0 0L36.5 43.5h30l4-22.5H30.974z" stroke="#254F91" stroke-width="2.5" stroke-linecap="round" stroke-linejoin="round"/><circle cx="42" cy="49" r="4.75" stroke="#254F91" stroke-width="2.5"/><circle cx="61" cy="49" r="4.75" stroke="#254F91" stroke-width="2.5"/></g><defs><clipPath id="clip0"><path fill="#fff" d="M0 0h100v100H0z"/></clipPath></defs></svg>