<svg width="100" height="100" viewBox="0 0 100 100" fill="none" xmlns="http://www.w3.org/2000/svg"><path d="M98.535 94.326H94.73V32.458a3.535 3.535 0 00-3.53-3.53H78.697a1.465 1.465 0 100 2.93h12.5c.332 0 .602.269.602.6v61.868H73.322v-7.311h11.175a2.712 2.712 0 002.709-2.71v-3.464a2.712 2.712 0 00-2.71-2.709H73.323v-4.297h11.175a2.712 2.712 0 002.709-2.709v-3.465a2.712 2.712 0 00-2.71-2.708H73.323v-4.298h11.175a2.712 2.712 0 002.709-2.709v-3.464a2.712 2.712 0 00-2.71-2.709H73.323v-4.297h11.175a2.712 2.712 0 002.709-2.709v-3.465a2.712 2.712 0 00-2.71-2.708H73.323V18.989a3.52 3.52 0 00-2.173-3.259L40.62 3.006a3.384 3.384 0 00-3.187.308 3.386 3.386 0 00-1.51 2.823v6.864h-7.775V7a1.465 1.465 0 00-2.93 0v6h-8.789a3.535 3.535 0 00-3.53 3.531v4.594h-4.94a3.534 3.534 0 00-3.531 3.529V84.82H3.53A3.535 3.535 0 000 88.352v5.373a3.535 3.535 0 003.531 3.532l95.004-.001a1.465 1.465 0 000-2.93zm-14.26-13.264v3.023H73.323v-3.023h10.954zm0-13.18v3.023H73.323v-3.022h10.954zm0-13.179v3.023H73.323v-3.023h10.954zm0-13.18v3.023H73.323v-3.023h10.954zM38.853 6.137c0-.216.129-.334.205-.386a.45.45 0 01.434-.041l17.26 7.193v65.995a1.465 1.465 0 102.93 0V14.124l10.342 4.31a.6.6 0 01.37.555v75.338H59.68v-8.56a1.465 1.465 0 00-2.93 0v8.56h-7.196V46.672a3.963 3.963 0 00-3.96-3.958h-6.743V6.137zm6.744 39.506a1.03 1.03 0 011.029 1.03v47.653H28.147V46.672a1.03 1.03 0 011.03-1.029h16.419zm-20.379 1.03v10.331H7.357v-11.36h18a3.96 3.96 0 00-.14 1.028zM7.357 59.933h17.86v11.363H7.357V59.934zm8.47-43.402c0-.331.27-.601.601-.601h19.493v5.194H15.827v-4.593zM7.96 24.055h27.963v5.148H17.787a1.465 1.465 0 000 2.93h18.135v10.58H7.357v-10.58h3.607a1.465 1.465 0 000-2.93H7.357v-4.548c0-.33.27-.6.602-.6zm-.602 50.172h17.86v10.594H7.357V74.227zm-3.826 20.1a.602.602 0 01-.601-.602v-5.373c0-.332.27-.602.601-.602h21.686v6.577H3.531z" fill="#254F91"/><path d="M33.993 55.289c.809 0 1.465-.656 1.465-1.465v-3.132a1.465 1.465 0 00-2.93 0v3.132c0 .809.655 1.465 1.465 1.465zm6.732 0c.809 0 1.465-.656 1.465-1.465v-3.132a1.465 1.465 0 10-2.93 0v3.132c0 .809.656 1.465 1.465 1.465zm-6.732 10.944c.809 0 1.465-.656 1.465-1.465v-3.132a1.465 1.465 0 00-2.93 0v3.132c0 .809.655 1.465 1.465 1.465zm6.732 0c.809 0 1.465-.656 1.465-1.465v-3.132a1.465 1.465 0 00-2.93 0v3.132c0 .809.656 1.465 1.465 1.465zm-6.732 10.944c.809 0 1.465-.656 1.465-1.465V72.58a1.465 1.465 0 00-2.93 0v3.132c0 .809.655 1.465 1.465 1.465zm6.732 0c.809 0 1.465-.656 1.465-1.465V72.58a1.465 1.465 0 10-2.93 0v3.132c0 .809.656 1.465 1.465 1.465zM33.993 88.12c.809 0 1.465-.655 1.465-1.464v-3.132a1.465 1.465 0 00-2.93 0v3.132c0 .809.655 1.465 1.465 1.465zm6.732 0c.809 0 1.465-.655 1.465-1.464v-3.132a1.465 1.465 0 10-2.93 0v3.132c0 .809.656 1.465 1.465 1.465z" fill="#254F91"/></svg>